<?xml version="1.0" encoding="utf-8" standalone="no"?>
<!DOCTYPE svg PUBLIC "-//W3C//DTD SVG 1.1//EN"
  "http://www.w3.org/Graphics/SVG/1.1/DTD/svg11.dtd">
<!-- Created with matplotlib (https://matplotlib.org/) -->
<svg height="577.659375pt" version="1.1" viewBox="0 0 544.164807 577.659375" width="544.164807pt" xmlns="http://www.w3.org/2000/svg" xmlns:xlink="http://www.w3.org/1999/xlink">
 <metadata>
  <rdf:RDF xmlns:cc="http://creativecommons.org/ns#" xmlns:dc="http://purl.org/dc/elements/1.1/" xmlns:rdf="http://www.w3.org/1999/02/22-rdf-syntax-ns#">
   <cc:Work>
    <dc:type rdf:resource="http://purl.org/dc/dcmitype/StillImage"/>
    <dc:date>2021-07-03T19:07:55.127408</dc:date>
    <dc:format>image/svg+xml</dc:format>
    <dc:creator>
     <cc:Agent>
      <dc:title>Matplotlib v3.3.4, https://matplotlib.org/</dc:title>
     </cc:Agent>
    </dc:creator>
   </cc:Work>
  </rdf:RDF>
 </metadata>
 <defs>
  <style type="text/css">*{stroke-linecap:butt;stroke-linejoin:round;}</style>
 </defs>
 <g id="figure_1">
  <g id="patch_1">
   <path d="M 0 577.659375 
L 544.164807 577.659375 
L 544.164807 0 
L 0 0 
z
" style="fill:none;"/>
  </g>
  <g id="axes_1">
   <g id="PatchCollection_1">
    <path clip-path="url(#pb0f21b7eb1)" d="M 506.933066 234.641389 
L 506.661464 234.985296 
L 506.676711 234.921008 
L 506.933064 234.57965 
L 512.145512 227.638792 
L 510.187702 230.52031 
L 506.933066 234.641389 
" style="fill:#808080;stroke:#999999;stroke-width:0.2;"/>
    <path clip-path="url(#pb0f21b7eb1)" d="M 413.300809 58.414194 
L 418.518088 60.527557 
L 422.577076 59.375368 
L 426.23047 63.619553 
L 433.228123 62.123886 
L 439.750899 64.46762 
L 442.647607 56.58874 
L 442.676102 56.600934 
L 451.486194 60.028153 
L 463.816899 64.824927 
L 467.042882 67.991661 
L 467.677793 68.701057 
L 462.673273 72.606068 
L 451.486169 74.521212 
L 451.417814 74.532914 
L 443.5054 87.787487 
L 443.668312 98.229548 
L 443.741778 102.938381 
L 451.486205 125.291534 
L 454.959422 135.316465 
L 467.10543 153.676333 
L 477.574105 169.500749 
L 506.790239 207.483382 
L 506.933026 207.896344 
L 507.357217 209.12317 
L 512.635606 224.38909 
L 512.884589 226.551015 
L 512.152757 227.62813 
L 512.489566 225.368751 
L 512.019062 223.892235 
L 506.933146 219.793642 
L 500.564748 214.661533 
L 491.513602 212.176128 
L 475.860675 218.868842 
L 466.729131 217.199891 
L 459.136774 209.123173 
L 451.486199 200.984523 
L 445.890036 195.031347 
L 443.491072 195.20606 
L 442.735331 187.492292 
L 440.416682 188.811512 
L 440.127765 186.438847 
L 440.178449 186.327824 
L 439.553933 185.220158 
L 439.986094 186.632859 
L 439.092093 187.65757 
L 438.874045 187.570684 
L 440.527984 180.956777 
L 438.123811 178.36463 
L 438.331454 172.857921 
L 433.590471 172.747862 
L 426.442547 163.288064 
L 418.068674 166.0582 
L 418.686095 169.60013 
L 412.709743 170.437665 
L 413.612708 177.140353 
L 408.173911 179.951231 
L 407.495801 182.944533 
L 411.220169 183.167726 
L 407.624447 188.950814 
L 408.289841 192.608469 
L 408.271933 192.615363 
L 396.039435 194.745808 
L 385.776706 196.533193 
L 378.20433 191.084132 
L 369.585942 188.972183 
L 368.330345 190.56987 
L 371.743385 190.005139 
L 362.08621 192.863439 
L 357.727528 198.337416 
L 349.181784 197.683136 
L 354.717042 199.017749 
L 357.298915 200.390331 
L 355.213293 201.004978 
L 357.090998 201.023547 
L 357.228892 202.657902 
L 356.693723 206.646689 
L 353.14678 206.134091 
L 343.61409 213.44447 
L 344.005261 211.01091 
L 340.988673 212.563699 
L 330.21506 220.817236 
L 327.062077 219.426638 
L 312.024346 213.045533 
L 293.383374 214.259555 
L 283.270704 210.22634 
L 287.336344 205.529422 
L 288.377624 199.537026 
L 290.795947 198.650962 
L 295.009639 202.56913 
L 305.722792 201.476002 
L 305.657921 198.978947 
L 308.941218 200.24064 
L 309.780957 195.897205 
L 319.639696 194.661842 
L 318.252687 190.268243 
L 309.132495 189.372505 
L 306.71751 185.131646 
L 314.935308 180.160289 
L 313.626748 169.01877 
L 316.187568 164.563614 
L 312.410809 162.329661 
L 310.846924 150.601543 
L 315.262431 144.625222 
L 315.703524 141.578679 
L 310.463776 140.640787 
L 315.421295 132.081742 
L 315.309015 120.049501 
L 312.926466 117.606796 
L 314.421023 110.469112 
L 320.088241 107.908588 
L 322.81124 102.420448 
L 336.896128 100.050357 
L 337.19749 101.60758 
L 348.930047 97.946446 
L 349.711293 103.349721 
L 358.269518 104.396563 
L 357.501301 97.633427 
L 362.467392 95.564992 
L 365.053996 89.979266 
L 362.164933 87.569846 
L 370.247708 85.132933 
L 379.603796 77.693373 
L 386.643349 80.179037 
L 397.134435 73.11843 
L 399.17377 70.256833 
L 398.352888 67.432374 
L 403.971031 63.769549 
L 402.688826 55.580312 
L 405.320072 52.438705 
L 410.279511 51.568466 
L 413.300809 58.414194 
" style="fill:#808080;stroke:#999999;stroke-width:0.2;"/>
    <path clip-path="url(#pb0f21b7eb1)" d="M 389.913595 203.613477 
L 387.196699 204.892354 
L 383.84965 202.160492 
L 389.913595 203.613477 
" style="fill:#808080;stroke:#999999;stroke-width:0.2;"/>
    <path clip-path="url(#pb0f21b7eb1)" d="M 431.189159 193.764774 
L 439.088885 203.802993 
L 441.87463 209.109722 
L 448.365796 215.591208 
L 448.847065 216.20276 
L 443.13731 221.288815 
L 432.308266 224.865972 
L 429.285574 224.610629 
L 430.858329 230.450035 
L 424.66519 241.907567 
L 409.755534 240.831623 
L 407.468348 237.392518 
L 400.65948 245.42871 
L 396.288318 246.474166 
L 394.450547 249.108996 
L 407.354401 246.092413 
L 411.588894 250.388731 
L 412.253129 254.84555 
L 397.023825 259.11357 
L 397.505948 266.628822 
L 400.280492 268.296685 
L 385.650003 273.339022 
L 371.307572 274.023788 
L 371.951028 257.159628 
L 350.753144 255.362028 
L 348.55634 261.387433 
L 345.62348 261.933595 
L 345.092303 268.027762 
L 342.746898 268.849194 
L 342.821187 272.947845 
L 340.449998 275.553268 
L 326.692529 272.308532 
L 318.562346 274.29019 
L 317.802176 272.693888 
L 321.395955 269.662616 
L 314.812765 261.322025 
L 315.413249 258.797226 
L 312.10611 257.925324 
L 313.185403 252.669523 
L 322.601654 250.421436 
L 320.903865 247.226587 
L 322.700904 241.445134 
L 320.832068 240.806125 
L 321.348548 236.308537 
L 327.062077 219.426638 
L 330.21506 220.817236 
L 340.988673 212.563699 
L 344.005261 211.01091 
L 343.61409 213.44447 
L 353.14678 206.134091 
L 356.693723 206.646689 
L 357.228892 202.657902 
L 357.379033 204.437404 
L 358.648975 206.221447 
L 359.932081 208.023983 
L 357.979242 201.368411 
L 368.028435 196.352709 
L 373.281212 194.927717 
L 377.874967 201.353167 
L 389.464203 206.160698 
L 396.039376 201.512409 
L 399.016931 199.407441 
L 403.993672 199.568245 
L 404.152824 202.055827 
L 404.148544 199.571905 
L 412.846643 198.540551 
L 413.736149 201.853502 
L 414.174928 197.850044 
L 431.189159 193.764774 
" style="fill:#808080;stroke:#999999;stroke-width:0.2;"/>
    <path clip-path="url(#pb0f21b7eb1)" d="M 233.150896 447.672283 
L 230.447852 448.005229 
L 227.477574 452.938339 
L 226.657241 458.949332 
L 222.437171 460.144757 
L 219.077916 456.700413 
L 213.405715 457.506602 
L 211.769483 452.963837 
L 204.563318 451.563816 
L 201.687284 443.828698 
L 204.051821 440.875029 
L 210.74121 436.746196 
L 213.03171 427.962849 
L 216.89997 427.920167 
L 218.066581 432.619829 
L 229.107977 432.638399 
L 226.409116 437.18532 
L 234.053838 440.119588 
L 233.150896 447.672283 
" style="fill:#808080;stroke:#999999;stroke-width:0.2;"/>
    <path clip-path="url(#pb0f21b7eb1)" d="M 289.309985 432.54885 
L 286.809327 434.614541 
L 280.829089 434.428792 
L 278.982997 437.790266 
L 277.025723 436.259927 
L 275.982478 447.673392 
L 272.697809 451.102492 
L 265.652176 446.447729 
L 266.189182 444.055189 
L 268.415108 444.855307 
L 271.502648 442.397053 
L 259.346758 431.469581 
L 262.076683 426.984769 
L 259.25528 421.80186 
L 263.111882 422.8099 
L 267.338604 420.79357 
L 264.393264 419.601471 
L 263.213898 414.495084 
L 266.019232 411.365672 
L 271.064343 411.177706 
L 278.405235 414.81445 
L 276.552194 417.709888 
L 279.426559 418.397981 
L 278.670275 421.045865 
L 282.347784 421.871731 
L 282.905591 426.689516 
L 289.309985 432.54885 
" style="fill:#808080;stroke:#999999;stroke-width:0.2;"/>
    <path clip-path="url(#pb0f21b7eb1)" d="M 85.429642 390.032193 
L 87.194497 390.144496 
L 89.14041 396.109731 
L 95.777682 397.831917 
L 97.407262 402.937749 
L 94.582796 403.148442 
L 96.063501 411.075962 
L 99.82835 414.406644 
L 99.546967 418.466189 
L 102.593774 418.641683 
L 101.972215 422.196945 
L 104.322603 425.625768 
L 102.667514 425.823712 
L 103.951387 427.967561 
L 96.416156 431.293255 
L 94.795719 426.636552 
L 91.948807 425.109289 
L 88.789721 432.117209 
L 86.125764 432.005488 
L 85.242503 434.316516 
L 79.516768 423.700095 
L 81.0388 423.451985 
L 78.995579 412.988858 
L 81.411959 411.56029 
L 74.726456 395.076497 
L 82.199856 389.122321 
L 85.429642 390.032193 
" style="fill:#808080;stroke:#999999;stroke-width:0.2;"/>
    <path clip-path="url(#pb0f21b7eb1)" d="M 260.883465 450.238904 
L 260.857978 453.99599 
L 255.686164 456.128476 
L 246.093014 456.376585 
L 240.36065 454.011511 
L 242.315158 451.224468 
L 233.150896 447.672283 
L 234.053838 440.119588 
L 226.409116 437.18532 
L 229.107977 432.638399 
L 218.066581 432.619829 
L 216.89997 427.920167 
L 216.098495 422.798814 
L 229.036179 424.40648 
L 233.469149 422.74003 
L 236.171073 425.55756 
L 243.275497 423.934096 
L 247.918328 416.021266 
L 251.686218 426.468845 
L 250.844261 430.822534 
L 253.00031 432.779803 
L 252.976469 444.767144 
L 259.634816 446.952844 
L 260.883465 450.238904 
" style="fill:#808080;stroke:#999999;stroke-width:0.2;"/>
    <path clip-path="url(#pb0f21b7eb1)" d="M 204.051821 440.875029 
L 201.687284 443.828698 
L 204.563318 451.563816 
L 211.769483 452.963837 
L 213.405715 457.506602 
L 219.077916 456.700413 
L 222.437171 460.144757 
L 226.657241 458.949332 
L 227.477574 452.938339 
L 230.447852 448.005229 
L 233.150896 447.672283 
L 242.315158 451.224468 
L 240.36065 454.011511 
L 246.093014 456.376585 
L 244.988532 458.511316 
L 241.339276 458.066621 
L 240.201238 462.469921 
L 238.322138 461.901891 
L 232.188614 467.633706 
L 233.390975 468.757043 
L 227.909501 478.512095 
L 223.073976 478.202153 
L 223.315998 481.210698 
L 219.518736 483.126947 
L 220.830884 486.12995 
L 218.504611 489.298441 
L 213.744495 491.747548 
L 211.669113 489.121588 
L 202.734964 490.498605 
L 200.943205 494.440581 
L 204.320747 500.246146 
L 203.331561 503.76122 
L 194.471152 509.94937 
L 183.701151 510.505759 
L 183.374028 503.429632 
L 174.457068 500.283313 
L 181.425074 484.017419 
L 191.790852 484.989124 
L 191.178162 482.873545 
L 195.920815 479.272276 
L 195.351373 476.307244 
L 191.851289 474.194436 
L 196.52187 469.446521 
L 188.752365 462.481312 
L 176.88147 459.443638 
L 174.957181 460.650177 
L 174.25219 458.772728 
L 170.345391 460.952359 
L 166.475211 458.181668 
L 168.207355 449.994398 
L 165.877219 444.675656 
L 172.310437 445.548112 
L 173.45819 441.713395 
L 179.054983 441.819019 
L 182.679003 447.661723 
L 184.233723 434.707139 
L 192.258278 433.862121 
L 192.850167 437.053921 
L 199.178329 437.331436 
L 204.051821 440.875029 
" style="fill:#808080;stroke:#999999;stroke-width:0.2;"/>
    <path clip-path="url(#pb0f21b7eb1)" d="M 256.997764 475.519902 
L 254.315247 478.669852 
L 253.953174 483.963346 
L 246.412685 483.354547 
L 243.516125 490.255734 
L 243.996306 493.360757 
L 249.178909 494.716156 
L 252.454435 499.15385 
L 256.272521 494.958472 
L 259.240582 496.95676 
L 259.999381 498.337962 
L 253.407299 505.106087 
L 240.65728 511.544841 
L 242.260253 512.749993 
L 238.927353 517.013302 
L 231.191953 518.435496 
L 226.984638 514.792654 
L 222.995527 521.005748 
L 217.100687 516.807016 
L 213.933852 519.50257 
L 212.350834 516.865801 
L 205.914554 520.577959 
L 203.108946 520.065361 
L 195.973503 513.999741 
L 194.471152 509.94937 
L 203.331561 503.76122 
L 204.320747 500.246146 
L 200.943205 494.440581 
L 202.734964 490.498605 
L 211.669113 489.121588 
L 213.744495 491.747548 
L 218.504611 489.298441 
L 220.830884 486.12995 
L 219.518736 483.126947 
L 223.315998 481.210698 
L 223.073976 478.202153 
L 227.909501 478.512095 
L 233.390975 468.757043 
L 232.188614 467.633706 
L 238.322138 461.901891 
L 240.201238 462.469921 
L 241.339276 458.066621 
L 244.988532 458.511316 
L 246.093014 456.376585 
L 255.686164 456.128476 
L 254.593865 467.625114 
L 256.997764 475.519902 
" style="fill:#808080;stroke:#999999;stroke-width:0.2;"/>
    <path clip-path="url(#pb0f21b7eb1)" d="M 432.308266 224.865972 
L 440.459799 230.717295 
L 439.992373 233.509299 
L 443.049717 232.940965 
L 445.412312 238.508954 
L 450.409444 237.271651 
L 451.526979 239.00132 
L 446.176642 249.417303 
L 447.891048 249.652109 
L 449.240913 255.77122 
L 448.239818 263.658829 
L 452.307401 264.096291 
L 453.675827 268.964518 
L 458.874796 269.748008 
L 459.845947 275.579349 
L 463.126753 278.814385 
L 454.131321 277.577082 
L 447.974229 281.455589 
L 449.686144 287.646788 
L 445.458874 290.954466 
L 450.181846 298.912501 
L 440.979616 307.701917 
L 441.205271 312.047846 
L 437.524996 314.671589 
L 434.14606 310.849372 
L 431.123094 315.387425 
L 433.96059 320.571969 
L 429.9515 322.126698 
L 430.275857 327.913694 
L 432.99497 329.124113 
L 433.276102 332.624747 
L 435.311277 332.571506 
L 433.362323 333.204445 
L 437.187039 336.915494 
L 438.086667 341.701379 
L 433.401959 349.144293 
L 435.96582 358.666757 
L 430.413098 357.075693 
L 423.989846 343.965846 
L 418.51475 342.845253 
L 397.60241 345.368361 
L 397.294968 338.608579 
L 393.869721 336.58532 
L 378.975883 339.60412 
L 373.835956 335.705657 
L 369.07584 337.327457 
L 369.116596 340.336003 
L 365.787011 341.543373 
L 361.712776 335.853132 
L 353.206942 337.359912 
L 353.08968 340.487108 
L 345.305478 339.686462 
L 347.534718 331.679371 
L 344.916524 328.295447 
L 347.536112 323.443018 
L 349.88346 325.202342 
L 350.53302 321.880529 
L 349.905359 315.756983 
L 346.823898 313.993751 
L 348.147408 306.650114 
L 345.167986 303.433065 
L 342.096766 303.75717 
L 344.95424 299.325573 
L 342.107578 296.87677 
L 344.50206 293.423806 
L 342.289186 287.801496 
L 336.799667 284.278689 
L 336.283164 280.039493 
L 340.449998 275.553268 
L 342.821187 272.947845 
L 342.746898 268.849194 
L 345.092303 268.027762 
L 345.62348 261.933595 
L 348.55634 261.387433 
L 350.753144 255.362028 
L 371.951028 257.159628 
L 371.307572 274.023788 
L 385.650003 273.339022 
L 400.280492 268.296685 
L 397.505948 266.628822 
L 397.023825 259.11357 
L 412.253129 254.84555 
L 411.588894 250.388731 
L 407.354401 246.092413 
L 394.450547 249.108996 
L 396.288318 246.474166 
L 400.65948 245.42871 
L 407.468348 237.392518 
L 409.755534 240.831623 
L 424.66519 241.907567 
L 430.858329 230.450035 
L 429.285574 224.610629 
L 432.308266 224.865972 
" style="fill:#808080;stroke:#999999;stroke-width:0.2;"/>
    <path clip-path="url(#pb0f21b7eb1)" d="M 340.449998 275.553268 
L 336.283164 280.039493 
L 336.799667 284.278689 
L 342.289186 287.801496 
L 344.50206 293.423806 
L 342.107578 296.87677 
L 344.95424 299.325573 
L 342.096766 303.75717 
L 345.167986 303.433065 
L 348.147408 306.650114 
L 346.823898 313.993751 
L 349.905359 315.756983 
L 350.53302 321.880529 
L 349.88346 325.202342 
L 347.536112 323.443018 
L 344.916524 328.295447 
L 347.534718 331.679371 
L 345.305478 339.686462 
L 344.962537 355.274241 
L 343.636536 352.777185 
L 337.305609 353.874747 
L 333.838509 348.511382 
L 330.536102 350.635553 
L 323.740812 347.205594 
L 313.665012 350.303965 
L 313.918669 346.68773 
L 310.123052 343.811415 
L 302.815716 343.611254 
L 298.89646 336.040544 
L 285.002574 344.065373 
L 281.248559 347.493364 
L 265.425674 349.820745 
L 266.739218 344.297961 
L 264.657184 340.583585 
L 266.56705 336.38405 
L 271.686748 335.109026 
L 270.4026 333.622505 
L 273.158583 331.239111 
L 270.605535 328.344809 
L 271.186612 322.786798 
L 266.89447 320.8897 
L 278.055368 311.52333 
L 277.612903 309.873787 
L 274.696684 310.457087 
L 273.588842 306.807288 
L 278.034293 307.04323 
L 276.603213 303.009184 
L 279.437097 300.960704 
L 278.632285 296.509983 
L 282.113236 294.260509 
L 281.989323 291.126912 
L 288.473011 285.024153 
L 297.572379 283.635496 
L 297.676635 285.418378 
L 300.650525 285.038288 
L 304.044981 281.711486 
L 305.677601 270.969762 
L 311.640924 266.950433 
L 314.812765 261.322025 
L 321.395955 269.662616 
L 317.802176 272.693888 
L 318.562346 274.29019 
L 326.692529 272.308532 
L 340.449998 275.553268 
" style="fill:#808080;stroke:#999999;stroke-width:0.2;"/>
    <path clip-path="url(#pb0f21b7eb1)" d="M 263.213898 414.495084 
L 264.393264 419.601471 
L 267.338604 420.79357 
L 263.111882 422.8099 
L 259.25528 421.80186 
L 262.076683 426.984769 
L 259.346758 431.469581 
L 271.502648 442.397053 
L 268.415108 444.855307 
L 266.189182 444.055189 
L 265.652176 446.447729 
L 264.456192 449.190677 
L 260.883465 450.238904 
L 259.634816 446.952844 
L 252.976469 444.767144 
L 253.00031 432.779803 
L 250.844261 430.822534 
L 251.686218 426.468845 
L 247.918328 416.021266 
L 243.273554 407.586414 
L 242.489543 400.863466 
L 248.532961 404.224108 
L 251.989249 402.233553 
L 257.850533 404.775259 
L 262.436813 409.985302 
L 263.213898 414.495084 
" style="fill:#808080;stroke:#999999;stroke-width:0.2;"/>
    <path clip-path="url(#pb0f21b7eb1)" d="M 303.873637 420.977379 
L 302.133721 422.609462 
L 298.209184 421.632213 
L 297.616472 431.597404 
L 291.660921 430.260575 
L 289.309985 432.54885 
L 282.905591 426.689516 
L 282.347784 421.871731 
L 278.670275 421.045865 
L 279.426559 418.397981 
L 276.552194 417.709888 
L 278.405235 414.81445 
L 271.064343 411.177706 
L 271.08791 401.974635 
L 264.512743 401.855431 
L 261.893155 397.862958 
L 262.835207 391.858617 
L 274.199589 385.015937 
L 278.846603 386.078854 
L 278.713797 388.32999 
L 282.356104 390.013901 
L 280.595387 394.088689 
L 288.342148 392.769071 
L 287.484396 395.932851 
L 289.914903 400.492521 
L 299.497515 409.069332 
L 295.329013 413.363959 
L 298.767814 415.056212 
L 298.056172 417.918641 
L 303.873637 420.977379 
" style="fill:#808080;stroke:#999999;stroke-width:0.2;"/>
    <path clip-path="url(#pb0f21b7eb1)" d="M 365.787011 341.543373 
L 364.193182 348.378015 
L 360.1536 347.652229 
L 357.051636 351.604487 
L 354.106022 350.685718 
L 348.063129 359.48514 
L 356.588096 360.966395 
L 357.327465 373.417832 
L 354.218301 376.274718 
L 357.185813 379.805589 
L 354.899176 385.486408 
L 361.477955 395.120288 
L 358.073509 395.256953 
L 357.603591 397.421062 
L 351.429036 398.7465 
L 349.47094 406.710355 
L 344.360385 407.894971 
L 343.061266 412.62293 
L 341.514867 412.060416 
L 346.501759 422.952663 
L 343.176059 423.068015 
L 340.165551 429.061519 
L 338.814886 428.158299 
L 335.788857 425.90744 
L 339.592246 420.373015 
L 338.070785 415.670831 
L 330.274125 412.601007 
L 327.466003 414.184865 
L 321.683465 405.150638 
L 309.662301 420.628053 
L 303.873637 420.977379 
L 298.056172 417.918641 
L 298.767814 415.056212 
L 295.329013 413.363959 
L 299.497515 409.069332 
L 289.914903 400.492521 
L 287.484396 395.932851 
L 288.342148 392.769071 
L 280.595387 394.088689 
L 282.356104 390.013901 
L 278.713797 388.32999 
L 278.846603 386.078854 
L 274.199589 385.015937 
L 271.627134 381.485897 
L 277.31017 379.215638 
L 282.312857 380.041781 
L 280.387195 373.11371 
L 283.881176 369.428158 
L 276.022137 362.826936 
L 283.675453 355.396494 
L 286.60861 346.202293 
L 285.002574 344.065373 
L 298.89646 336.040544 
L 302.815716 343.611254 
L 310.123052 343.811415 
L 313.918669 346.68773 
L 313.665012 350.303965 
L 323.740812 347.205594 
L 330.536102 350.635553 
L 333.838509 348.511382 
L 337.305609 353.874747 
L 343.636536 352.777185 
L 344.962537 355.274241 
L 345.305478 339.686462 
L 353.08968 340.487108 
L 353.206942 337.359912 
L 361.712776 335.853132 
L 365.787011 341.543373 
" style="fill:#808080;stroke:#999999;stroke-width:0.2;"/>
    <path clip-path="url(#pb0f21b7eb1)" d="M 338.814886 428.158299 
L 336.302022 432.698015 
L 338.101278 433.930606 
L 331.062845 442.889419 
L 332.080032 445.177999 
L 321.14895 453.586521 
L 316.746198 454.292352 
L 319.119033 457.580075 
L 313.361708 464.54365 
L 310.094228 465.52949 
L 309.129455 471.731498 
L 301.795786 471.40853 
L 299.139328 473.348892 
L 292.523405 474.011486 
L 291.976958 470.713508 
L 284.05611 472.401299 
L 281.500844 476.673477 
L 275.446591 476.530714 
L 269.06661 481.880775 
L 263.794998 481.239522 
L 256.997764 475.519902 
L 254.593865 467.625114 
L 255.686164 456.128476 
L 260.857978 453.99599 
L 260.883465 450.238904 
L 264.456192 449.190677 
L 265.652176 446.447729 
L 272.697809 451.102492 
L 275.982478 447.673392 
L 277.025723 436.259927 
L 278.982997 437.790266 
L 280.829089 434.428792 
L 286.809327 434.614541 
L 289.309985 432.54885 
L 291.660921 430.260575 
L 297.616472 431.597404 
L 298.209184 421.632213 
L 302.133721 422.609462 
L 303.873637 420.977379 
L 309.662301 420.628053 
L 321.683465 405.150638 
L 327.466003 414.184865 
L 330.274125 412.601007 
L 338.070785 415.670831 
L 339.592246 420.373015 
L 335.788857 425.90744 
L 338.814886 428.158299 
" style="fill:#808080;stroke:#999999;stroke-width:0.2;"/>
    <path clip-path="url(#pb0f21b7eb1)" d="M 166.475211 458.181668 
L 170.345391 460.952359 
L 174.25219 458.772728 
L 174.957181 460.650177 
L 176.88147 459.443638 
L 188.752365 462.481312 
L 196.52187 469.446521 
L 191.851289 474.194436 
L 195.351373 476.307244 
L 195.920815 479.272276 
L 191.178162 482.873545 
L 191.790852 484.989124 
L 181.425074 484.017419 
L 174.457068 500.283313 
L 165.754677 498.136137 
L 162.64661 494.550944 
L 159.4659 496.103732 
L 158.26795 493.645478 
L 153.215913 493.226032 
L 151.167435 488.959397 
L 154.694126 484.601828 
L 153.126652 481.527292 
L 148.542589 480.672574 
L 146.423959 484.874354 
L 139.656944 479.319115 
L 137.404138 480.880218 
L 128.169746 477.156142 
L 125.075532 471.935817 
L 130.876653 464.612966 
L 131.019996 457.668792 
L 126.438128 457.790214 
L 122.867641 450.682214 
L 119.129124 450.994374 
L 116.696675 446.57996 
L 111.333012 443.217682 
L 124.455641 436.028697 
L 130.160279 438.898083 
L 132.694766 435.867088 
L 135.808091 436.322287 
L 137.042065 434.407451 
L 132.953406 429.114484 
L 145.152567 424.600266 
L 141.293176 419.415722 
L 140.613946 411.566942 
L 142.95382 411.569991 
L 145.839271 407.226833 
L 150.590244 407.563383 
L 153.817516 408.660972 
L 157.018181 413.642029 
L 159.078866 410.127815 
L 157.244409 405.583388 
L 160.153701 403.875891 
L 163.888058 406.185812 
L 163.280626 417.740403 
L 151.319922 424.797656 
L 150.780972 434.47674 
L 145.806561 441.36964 
L 151.122244 453.374414 
L 160.634979 453.537437 
L 166.475211 458.181668 
" style="fill:#808080;stroke:#999999;stroke-width:0.2;"/>
    <path clip-path="url(#pb0f21b7eb1)" d="M 174.457068 500.283313 
L 183.374028 503.429632 
L 183.701151 510.505759 
L 194.471152 509.94937 
L 195.973503 513.999741 
L 185.655659 523.227505 
L 178.287338 526.429006 
L 171.130523 525.18228 
L 168.882425 527.28511 
L 169.483754 530.924072 
L 174.970507 536.125828 
L 176.975738 535.606023 
L 175.34282 543.814634 
L 169.915132 544.754743 
L 167.44803 542.792486 
L 158.87648 544.813251 
L 157.280182 541.345321 
L 151.339328 538.400522 
L 146.495208 540.507232 
L 143.010096 545.750284 
L 139.302917 541.374977 
L 140.455105 536.35897 
L 134.836117 530.237642 
L 136.878217 527.792165 
L 134.450203 525.732876 
L 135.786193 523.694096 
L 131.52955 522.122987 
L 129.311945 523.76283 
L 127.591435 521.808056 
L 126.710094 515.175793 
L 134.897948 506.999582 
L 130.740258 505.26631 
L 135.763746 494.492436 
L 135.60543 492.000646 
L 129.557578 487.538562 
L 126.899725 479.913225 
L 128.169746 477.156142 
L 137.404138 480.880218 
L 139.656944 479.319115 
L 146.423959 484.874354 
L 148.542589 480.672574 
L 153.126652 481.527292 
L 154.694126 484.601828 
L 151.167435 488.959397 
L 153.215913 493.226032 
L 158.26795 493.645478 
L 159.4659 496.103732 
L 162.64661 494.550944 
L 165.754677 498.136137 
L 174.457068 500.283313 
" style="fill:#808080;stroke:#999999;stroke-width:0.2;"/>
    <path clip-path="url(#pb0f21b7eb1)" d="M 85.429642 390.032193 
L 82.199856 389.122321 
L 74.726456 395.076497 
L 81.411959 411.56029 
L 78.995579 412.988858 
L 81.0388 423.451985 
L 79.516768 423.700095 
L 68.768962 428.937881 
L 67.288257 432.704389 
L 69.847409 441.210775 
L 59.459162 438.474202 
L 54.315074 444.100947 
L 52.355857 442.70755 
L 48.384461 444.448028 
L 48.393628 450.976081 
L 36.907527 454.14679 
L 35.824645 456.366608 
L 31.280219 446.511225 
L 37.638324 434.91506 
L 39.858398 432.954743 
L 43.517072 433.809988 
L 42.183574 429.347072 
L 47.139698 432.00327 
L 48.385856 424.96345 
L 50.436551 423.958209 
L 48.222283 418.070855 
L 47.818905 415.17708 
L 50.169316 413.095618 
L 47.629297 409.507098 
L 48.226443 401.373043 
L 54.487516 400.288757 
L 60.01002 392.545878 
L 64.588551 393.500677 
L 72.058065 388.70232 
L 73.138181 389.978979 
L 79.863046 381.989626 
L 85.429642 390.032193 
" style="fill:#808080;stroke:#999999;stroke-width:0.2;"/>
    <path clip-path="url(#pb0f21b7eb1)" d="M 102.667514 425.823712 
L 111.058829 432.770103 
L 107.323375 441.684294 
L 111.333012 443.217682 
L 116.696675 446.57996 
L 119.129124 450.994374 
L 122.867641 450.682214 
L 126.438128 457.790214 
L 131.019996 457.668792 
L 130.876653 464.612966 
L 125.075532 471.935817 
L 128.169746 477.156142 
L 126.899725 479.913225 
L 129.557578 487.538562 
L 124.10022 491.304516 
L 115.783743 492.012287 
L 114.056285 499.088414 
L 110.953773 491.367181 
L 104.826328 489.629475 
L 106.736194 487.602335 
L 101.280231 483.622085 
L 100.56468 487.691884 
L 97.640964 489.052826 
L 91.577865 484.792566 
L 88.990163 497.073497 
L 85.778389 496.675115 
L 83.93008 500.069571 
L 78.487397 500.075668 
L 73.125152 505.534125 
L 67.612614 496.994758 
L 60.637956 497.558934 
L 47.088131 482.478211 
L 49.643122 480.724152 
L 48.503118 475.673224 
L 41.300312 470.895349 
L 45.536451 467.95418 
L 48.393628 450.976081 
L 48.384461 444.448028 
L 52.355857 442.70755 
L 54.315074 444.100947 
L 59.459162 438.474202 
L 69.847409 441.210775 
L 67.288257 432.704389 
L 68.768962 428.937881 
L 79.516768 423.700095 
L 85.242503 434.316516 
L 86.125764 432.005488 
L 88.789721 432.117209 
L 91.948807 425.109289 
L 94.795719 426.636552 
L 96.416156 431.293255 
L 103.951387 427.967561 
L 102.667514 425.823712 
" style="fill:#808080;stroke:#999999;stroke-width:0.2;"/>
   </g>
   <g id="matplotlib.axis_1"/>
   <g id="matplotlib.axis_2"/>
   <g id="LineCollection_1">
    <path clip-path="url(#pb0f21b7eb1)" d="M 88.579685 405.352511 
L 82.932231 418.301897 
L 82.522656 424.09844 
L 85.046484 432.387377 
L 88.056037 438.581376 
L 91.547933 444.010205 
L 99.568006 452.909042 
L 109.627773 460.286304 
L 112.496906 463.60097 
L 119.318689 475.034658 
L 122.467115 478.058532 
L 137.630958 488.737795 
L 141.453833 490.074721 
L 150.069886 489.907106 
L 157.606229 490.201408 
L 169.509358 493.813863 
L 172.775813 491.918927 
L 178.893214 484.288579 
L 183.861953 479.59742 
L 196.315772 462.841346 
L 201.283559 459.047057 
L 206.643858 457.657834 
L 229.493912 460.476192 
L 234.634054 459.353708 
L 250.443669 449.69558 
L 256.556002 449.195109 
L 264.078742 443.003975 
L 278.373906 427.906702 
L 286.526568 424.794886 
L 293.357595 426.326591 
L 295.614275 426.221621 
L 298.104294 424.305781 
L 299.797485 418.421623 
L 308.078974 413.914178 
L 321.240829 398.220375 
L 336.164707 385.935561 
L 341.156094 377.17965 
L 343.269168 367.278123 
L 346.744982 329.862582 
L 350.267164 319.608532 
L 350.838547 316.184127 
L 350.390353 313.769287 
L 347.289801 303.956764 
L 346.411306 302.653906 
L 345.181127 301.846586 
L 344.187401 300.809162 
L 344.016962 298.74085 
L 344.785388 295.401181 
L 344.995983 293.677815 
L 344.78825 292.062047 
L 342.233284 286.494461 
L 340.368614 283.525828 
L 339.788736 280.246714 
L 341.056681 273.672699 
L 343.45974 267.003821 
L 349.021388 255.383595 
L 350.69068 248.248986 
L 352.738304 210.601921 
L 356.044767 202.193858 
" style="fill:none;stroke:#add8e6;stroke-width:2;"/>
   </g>
   <g id="text_1">
    <!-- East Riding of Yorkshire -->
    <g transform="translate(330.888158 137.978626)scale(0.1 -0.1)">
     <defs>
      <path d="M 64.09375 20.796875 
L 60.09375 0 
L 1.59375 0 
L 1.59375 2.5 
Q 7 3.09375 8.703125 4.59375 
Q 10.40625 6.09375 10.40625 10.09375 
L 10.40625 58 
Q 10.40625 61.796875 8.59375 63.296875 
Q 6.796875 64.796875 1.59375 65.09375 
L 1.59375 67.59375 
L 59.296875 67.59375 
L 59.296875 47.5 
L 56.796875 47.5 
Q 55.09375 57.5 50.25 60.84375 
Q 45.40625 64.203125 33.09375 64.203125 
Q 29.296875 64.203125 27.9375 63 
Q 26.59375 61.796875 26.59375 58.796875 
L 26.59375 36.296875 
Q 34.703125 36.40625 38.296875 39.546875 
Q 41.90625 42.703125 42.796875 51.203125 
L 45.40625 51.203125 
L 45.40625 17.40625 
L 42.796875 17.40625 
Q 42.09375 26.203125 38.5 29.546875 
Q 34.90625 32.90625 26.59375 32.90625 
L 26.59375 8.703125 
Q 26.59375 5.5 28.34375 4.296875 
Q 30.09375 3.09375 34.90625 3.09375 
Q 46.59375 3.09375 53.09375 8.5 
Q 55.59375 10.5 57.296875 13.09375 
Q 59 15.703125 61.296875 20.796875 
z
" id="STIXGeneral-Bold-69"/>
      <path d="M 47.296875 6.40625 
L 48.796875 4.296875 
Q 43.5 -1.40625 37.59375 -1.40625 
Q 33.90625 -1.40625 32.046875 0.140625 
Q 30.203125 1.703125 29.40625 5.5 
Q 21.796875 -1.40625 13.5 -1.40625 
Q 8.5 -1.40625 5.5 1.25 
Q 2.5 3.90625 2.5 9.203125 
Q 2.5 15.90625 9.203125 20.40625 
Q 14.203125 23.703125 29.296875 28 
L 29.296875 34.796875 
Q 29.296875 39.703125 27.4375 41.890625 
Q 25.59375 44.09375 21.203125 44.09375 
Q 18.40625 44.09375 16.546875 43.09375 
Q 14.703125 42.09375 14.703125 40.40625 
Q 14.703125 39.296875 15.796875 38.09375 
Q 17.703125 35.796875 17.703125 33.90625 
Q 17.703125 31.296875 15.796875 29.59375 
Q 13.90625 27.90625 10.90625 27.90625 
Q 7.796875 27.90625 6.09375 29.703125 
Q 4.40625 31.5 4.40625 34.703125 
Q 4.40625 40.59375 9.65625 43.9375 
Q 14.90625 47.296875 23.5 47.296875 
Q 32.703125 47.296875 37.890625 43.796875 
Q 43.09375 40.296875 43.09375 33.90625 
L 43.09375 7.796875 
Q 43.09375 5 45.203125 5 
Q 45.90625 5 46.296875 5.40625 
z
M 29.296875 9.703125 
L 29.296875 24.5 
Q 17.09375 21.09375 17.09375 12.40625 
Q 17.09375 9.203125 18.546875 7.453125 
Q 20 5.703125 22.296875 5.703125 
Q 26.5 5.703125 29.296875 9.703125 
z
" id="STIXGeneral-Bold-97"/>
      <path d="M 34 32.59375 
L 31.5 32.59375 
Q 29.59375 38.203125 26.796875 40.796875 
Q 23.40625 44 19.296875 44 
Q 16.5 44 14.59375 42.34375 
Q 12.703125 40.703125 12.703125 38.203125 
Q 12.703125 35.59375 14.953125 33.546875 
Q 17.203125 31.5 22.296875 29.40625 
Q 29.796875 26.296875 32.9375 22.6875 
Q 36.09375 19.09375 36.09375 13.796875 
Q 36.09375 7.09375 31.796875 2.84375 
Q 27.5 -1.40625 20.703125 -1.40625 
Q 15.5 -1.40625 9.90625 0.90625 
Q 8.40625 1.5 7.59375 1.5 
Q 6.5 1.5 5 -1.296875 
L 2.5 -1.296875 
L 2.5 15.203125 
L 5.296875 15.203125 
Q 8.5 2 19 2 
Q 22.40625 2 24.453125 3.796875 
Q 26.5 5.59375 26.5 8.5 
Q 26.5 10.90625 24.296875 12.953125 
Q 22.09375 15 16.90625 17.203125 
Q 9.40625 20.40625 6.046875 24.046875 
Q 2.703125 27.703125 2.703125 32.703125 
Q 2.703125 39 7.140625 43.140625 
Q 11.59375 47.296875 18.40625 47.296875 
Q 21.796875 47.296875 26.203125 45.796875 
Q 28.40625 45.09375 29.296875 45.09375 
Q 31 45.09375 31.796875 47.09375 
L 34 47.09375 
z
" id="STIXGeneral-Bold-115"/>
      <path d="M 30.703125 11.203125 
L 33.203125 10.09375 
Q 30.09375 3.90625 26.75 1.34375 
Q 23.40625 -1.203125 18.40625 -1.203125 
Q 13.203125 -1.203125 10.203125 1.640625 
Q 7.203125 4.5 7.203125 9.5 
L 7.203125 41.703125 
L 1.90625 41.703125 
L 1.90625 44.40625 
Q 6.796875 47.703125 10.09375 51.546875 
Q 13.40625 55.40625 18.59375 63 
L 21.09375 63 
L 21.09375 46.09375 
L 30.59375 46.09375 
L 30.59375 41.703125 
L 21.09375 41.703125 
L 21.09375 11.90625 
Q 21.09375 5.90625 25 5.90625 
Q 27.90625 5.90625 30.703125 11.203125 
z
" id="STIXGeneral-Bold-116"/>
      <path id="STIXGeneral-Bold-32"/>
      <path d="M 71.59375 0 
L 51.09375 0 
L 30.40625 31.296875 
L 27.59375 31.296875 
L 27.59375 11.703125 
Q 27.59375 6.296875 29.046875 4.796875 
Q 30.5 3.296875 36.40625 2.5 
L 36.40625 0 
L 2.59375 0 
L 2.59375 2.5 
Q 8.5 3.203125 9.953125 4.703125 
Q 11.40625 6.203125 11.40625 12 
L 11.40625 55.09375 
Q 11.40625 61 9.75 62.84375 
Q 8.09375 64.703125 2.59375 65.09375 
L 2.59375 67.59375 
L 33.40625 67.59375 
Q 63 67.59375 63 50.40625 
Q 63 42.796875 58.5 38.59375 
Q 54.296875 34.796875 47.296875 32.90625 
L 67.203125 4.703125 
Q 68.703125 2.5 71.59375 2.5 
z
M 27.59375 59.703125 
L 27.59375 34.5 
Q 37.90625 34.59375 41.90625 37.59375 
Q 45.90625 40.59375 45.90625 49.40625 
Q 45.90625 57.296875 42.90625 60.75 
Q 39.90625 64.203125 32.90625 64.203125 
Q 30 64.203125 28.796875 63.203125 
Q 27.59375 62.203125 27.59375 59.703125 
z
" id="STIXGeneral-Bold-82"/>
      <path d="M 21.5 61.296875 
Q 21.5 58 19.25 55.796875 
Q 17 53.59375 13.703125 53.59375 
Q 10.40625 53.59375 8.203125 55.796875 
Q 6 58 6 61.296875 
Q 6 64.59375 8.25 66.84375 
Q 10.5 69.09375 13.90625 69.09375 
Q 17 69.09375 19.25 66.796875 
Q 21.5 64.5 21.5 61.296875 
z
M 25.59375 0 
L 1.59375 0 
L 1.59375 2.40625 
Q 5.09375 3.203125 6 4.296875 
Q 6.90625 5.40625 6.90625 8.796875 
L 6.90625 37.296875 
Q 6.90625 40.59375 5.84375 41.796875 
Q 4.796875 43 1.5 43.703125 
L 1.5 46.09375 
L 20.796875 46.09375 
L 20.796875 8.5 
Q 20.796875 5.296875 21.84375 4.046875 
Q 22.90625 2.796875 25.59375 2.40625 
z
" id="STIXGeneral-Bold-105"/>
      <path d="M 53.40625 2 
L 47.203125 1.203125 
Q 39 0.09375 33.90625 -1.296875 
L 33.90625 5.203125 
Q 30.40625 1.5 27.5 0.046875 
Q 24.59375 -1.40625 20.59375 -1.40625 
Q 12.703125 -1.40625 7.59375 5.1875 
Q 2.5 11.796875 2.5 22.09375 
Q 2.5 33 7.953125 40.140625 
Q 13.40625 47.296875 21.703125 47.296875 
Q 25.09375 47.296875 27.75 45.9375 
Q 30.40625 44.59375 33.59375 41.09375 
L 33.59375 59.40625 
Q 33.59375 62.90625 32.296875 63.84375 
Q 31 64.796875 26 65.203125 
L 26 67.59375 
L 47.5 67.59375 
L 47.5 10.09375 
Q 47.5 6.90625 48.75 5.703125 
Q 50 4.5 53.40625 4.296875 
z
M 33.59375 11.203125 
L 33.59375 35.5 
Q 32.5 38.40625 30.390625 40.046875 
Q 28.296875 41.703125 25.796875 41.703125 
Q 17.296875 41.703125 17.296875 22.90625 
Q 17.296875 4.203125 25.09375 4.203125 
Q 28.703125 4.203125 31.703125 7.90625 
Q 33.59375 10.40625 33.59375 11.203125 
z
" id="STIXGeneral-Bold-100"/>
      <path d="M 53.90625 0 
L 30.5 0 
L 30.5 2.40625 
Q 33 2.703125 34.046875 4.046875 
Q 35.09375 5.40625 35.09375 8.40625 
L 35.09375 32.09375 
Q 35.09375 40.59375 30 40.59375 
Q 26.40625 40.59375 23 37.203125 
Q 21.296875 35.5 21.296875 34.796875 
L 21.296875 8.40625 
Q 21.296875 5.5 22.34375 4.140625 
Q 23.40625 2.796875 26.09375 2.40625 
L 26.09375 0 
L 2.09375 0 
L 2.09375 2.40625 
Q 5.40625 3.09375 6.40625 4.296875 
Q 7.40625 5.5 7.40625 8.703125 
L 7.40625 37.59375 
Q 7.40625 40.796875 6.40625 42 
Q 5.40625 43.203125 2.09375 43.703125 
L 2.09375 46.09375 
L 21.203125 46.09375 
L 21.203125 38.59375 
L 21.296875 38.59375 
Q 26.203125 47.296875 35.5 47.296875 
Q 41.703125 47.296875 45.34375 43.4375 
Q 49 39.59375 49 33.09375 
L 49 8.40625 
Q 49 5 50 3.796875 
Q 51 2.59375 53.90625 2.40625 
z
" id="STIXGeneral-Bold-110"/>
      <path d="M 25.40625 6.796875 
L 30.59375 6.796875 
Q 38.703125 6.796875 43.5 3.546875 
Q 48.296875 0.296875 48.296875 -5.203125 
Q 48.296875 -12.296875 41.4375 -16.4375 
Q 34.59375 -20.59375 22.203125 -20.59375 
Q 2.796875 -20.59375 2.796875 -11.40625 
Q 2.796875 -5.296875 12.40625 -3.90625 
Q 7.703125 -2.203125 5.953125 -0.390625 
Q 4.203125 1.40625 4.203125 4.296875 
Q 4.203125 8.703125 7.09375 11.453125 
Q 10 14.203125 16.09375 16 
Q 10.59375 17.5 7.140625 21.59375 
Q 3.703125 25.703125 3.703125 31.203125 
Q 3.703125 38.5 9.34375 42.890625 
Q 15 47.296875 24 47.296875 
Q 29.203125 47.296875 35.203125 45.09375 
L 48.09375 45.09375 
L 48.09375 39.796875 
L 40.09375 39.796875 
Q 44.09375 36.203125 44.09375 30 
Q 44.09375 20.59375 34.90625 16.796875 
Q 32.5 15.796875 30.796875 15.59375 
Q 29.09375 15.40625 22.203125 15.40625 
Q 19.203125 15.40625 17.25 14.046875 
Q 15.296875 12.703125 15.296875 10.5 
Q 15.296875 8.40625 17.390625 7.59375 
Q 19.5 6.796875 25.40625 6.796875 
z
M 30.59375 31.203125 
Q 30.59375 38.203125 29.046875 41.203125 
Q 27.5 44.203125 23.890625 44.203125 
Q 20.296875 44.203125 18.84375 41.296875 
Q 17.40625 38.40625 17.40625 31.09375 
Q 17.40625 24.09375 18.90625 21.140625 
Q 20.40625 18.203125 24 18.203125 
Q 27.59375 18.203125 29.09375 21.140625 
Q 30.59375 24.09375 30.59375 31.203125 
z
M 31.5 -5.203125 
L 15.09375 -5.203125 
Q 13 -6.90625 12.296875 -8 
Q 11.59375 -9.09375 11.59375 -10.703125 
Q 11.59375 -17.40625 25 -17.40625 
Q 32.203125 -17.40625 36.296875 -15.546875 
Q 40.40625 -13.703125 40.40625 -10.796875 
Q 40.40625 -5.203125 31.5 -5.203125 
z
" id="STIXGeneral-Bold-103"/>
      <path d="M 47.59375 22.90625 
Q 47.59375 12.40625 41.140625 5.5 
Q 34.703125 -1.40625 25 -1.40625 
Q 15.5 -1.40625 9 5.4375 
Q 2.5 12.296875 2.5 22.796875 
Q 2.5 33.703125 8.953125 40.5 
Q 15.40625 47.296875 25.40625 47.296875 
Q 34.90625 47.296875 41.25 40.390625 
Q 47.59375 33.5 47.59375 22.90625 
z
M 32.90625 21.796875 
Q 32.90625 34.59375 31.203125 39.390625 
Q 29.5 44.203125 25.09375 44.203125 
Q 20.5 44.203125 18.84375 39.453125 
Q 17.203125 34.703125 17.203125 21.796875 
Q 17.203125 10.90625 19 6.296875 
Q 20.796875 1.703125 25.09375 1.703125 
Q 29.40625 1.703125 31.15625 6.140625 
Q 32.90625 10.59375 32.90625 21.796875 
z
" id="STIXGeneral-Bold-111"/>
      <path d="M 1.40625 46.09375 
L 7.09375 46.09375 
Q 7.09375 59.203125 11.09375 64 
Q 15.296875 69.09375 24.59375 69.09375 
Q 31 69.09375 34.953125 66.296875 
Q 38.90625 63.5 38.90625 59.09375 
Q 38.90625 56.296875 37.203125 54.5 
Q 35.5 52.703125 32.703125 52.703125 
Q 30.203125 52.703125 28.453125 54.390625 
Q 26.703125 56.09375 26.703125 58.40625 
Q 26.703125 60.40625 27.796875 62.046875 
Q 28.90625 63.703125 28.90625 64.09375 
Q 28.90625 66 26 66 
Q 23.296875 66 22.140625 64.25 
Q 21 62.5 21 58.09375 
L 21 46.09375 
L 29.59375 46.09375 
L 29.59375 41.703125 
L 21 41.703125 
L 21 10.703125 
Q 21 5.703125 22.5 4.09375 
Q 24 2.5 29.203125 2.40625 
L 29.203125 0 
L 1.40625 0 
L 1.40625 2.40625 
Q 4.796875 2.796875 5.9375 4.046875 
Q 7.09375 5.296875 7.09375 8.703125 
L 7.09375 41.703125 
L 1.40625 41.703125 
z
" id="STIXGeneral-Bold-102"/>
      <path d="M 69.90625 67.59375 
L 69.90625 65.09375 
Q 65 64.40625 63.09375 61.203125 
L 44 30.09375 
L 44 12.296875 
Q 44 6.5 45.640625 4.75 
Q 47.296875 3 53.203125 2.5 
L 53.203125 0 
L 18.5 0 
L 18.5 2.5 
Q 24.5 3 26.140625 5 
Q 27.796875 7 27.796875 12.796875 
L 27.796875 26.40625 
L 9.796875 59.203125 
Q 6.703125 64.796875 1.5 65.09375 
L 1.5 67.59375 
L 35 67.59375 
L 35 65.09375 
L 32.296875 64.90625 
Q 29.09375 64.703125 28 64.140625 
Q 26.90625 63.59375 26.90625 62 
Q 26.90625 60.703125 29.296875 56.09375 
L 41.296875 32.90625 
L 52.203125 50.703125 
Q 56.296875 57.5 56.296875 60.90625 
Q 56.296875 63.09375 54.640625 63.890625 
Q 53 64.703125 47.90625 65.09375 
L 47.90625 67.59375 
z
" id="STIXGeneral-Bold-89"/>
      <path d="M 21.796875 46.09375 
L 21.796875 37.90625 
Q 25.296875 43 28.390625 45.140625 
Q 31.5 47.296875 35.296875 47.296875 
Q 38.796875 47.296875 41.09375 45.046875 
Q 43.40625 42.796875 43.40625 39.40625 
Q 43.40625 36.40625 41.65625 34.5 
Q 39.90625 32.59375 37.09375 32.59375 
Q 33.40625 32.59375 31.09375 36.40625 
Q 29.703125 38.703125 28.296875 38.703125 
Q 25.703125 38.703125 23.953125 35.703125 
Q 22.203125 32.703125 22.203125 28.296875 
L 22.203125 10.59375 
Q 22.203125 5.796875 23.546875 4.25 
Q 24.90625 2.703125 29.40625 2.40625 
L 29.40625 0 
L 2.90625 0 
L 2.90625 2.40625 
Q 6.203125 3 7.25 4.140625 
Q 8.296875 5.296875 8.296875 8.40625 
L 8.296875 37.296875 
Q 8.296875 40.796875 7.1875 42 
Q 6.09375 43.203125 2.796875 43.703125 
L 2.796875 46.09375 
z
" id="STIXGeneral-Bold-114"/>
      <path d="M 54.296875 0 
L 30.90625 0 
L 30.90625 2.40625 
Q 35.09375 2.59375 35.09375 4.296875 
Q 35.09375 5.5 32.703125 8.796875 
L 23.203125 22.203125 
L 20.90625 19.796875 
L 20.90625 8.40625 
Q 20.90625 4.90625 21.75 3.90625 
Q 22.59375 2.90625 26.09375 2.40625 
L 26.09375 0 
L 2.203125 0 
L 2.203125 2.40625 
Q 7 2.796875 7 8.40625 
L 7 59.40625 
Q 7 64.796875 2.203125 65.203125 
L 2.203125 67.59375 
L 20.90625 67.59375 
L 20.90625 24.5 
L 33.703125 37.296875 
Q 35.796875 39.40625 35.796875 41.09375 
Q 35.796875 42.90625 32.296875 43.40625 
L 29.90625 43.796875 
L 29.90625 46.09375 
L 51.296875 46.09375 
L 51.296875 43.796875 
Q 46.59375 43.203125 43.25 40.890625 
Q 39.90625 38.59375 32.40625 30.703125 
L 51.796875 3.90625 
Q 52.90625 2.40625 54.296875 2.40625 
z
" id="STIXGeneral-Bold-107"/>
      <path d="M 53.40625 0 
L 30 0 
L 30 2.40625 
Q 32.5 2.703125 33.546875 4.046875 
Q 34.59375 5.40625 34.59375 8.5 
L 34.59375 30.90625 
Q 34.59375 36.296875 33.5 38.4375 
Q 32.40625 40.59375 29.5 40.59375 
Q 25.90625 40.59375 22.5 37.203125 
Q 20.796875 35.5 20.796875 34.796875 
L 20.796875 8.5 
Q 20.796875 5.40625 21.796875 4.09375 
Q 22.796875 2.796875 25.59375 2.40625 
L 25.59375 0 
L 1.59375 0 
L 1.59375 2.40625 
Q 5.203125 3.09375 6.046875 4 
Q 6.90625 4.90625 6.90625 8.90625 
L 6.90625 59.09375 
Q 6.90625 62.59375 6 63.546875 
Q 5.09375 64.5 1.5 65.203125 
L 1.5 67.59375 
L 20.796875 67.59375 
L 20.796875 39.59375 
Q 27.296875 47.296875 35.5 47.296875 
Q 41.5 47.296875 45 43.5 
Q 48.5 39.703125 48.5 33.703125 
L 48.5 8.703125 
Q 48.5 5.296875 49.640625 3.84375 
Q 50.796875 2.40625 53.40625 2.40625 
z
" id="STIXGeneral-Bold-104"/>
      <path d="M 40.296875 12.59375 
L 42.703125 11.203125 
Q 38.296875 4.203125 33.84375 1.390625 
Q 29.40625 -1.40625 22.90625 -1.40625 
Q 13.90625 -1.40625 8.203125 5.34375 
Q 2.5 12.09375 2.5 22.40625 
Q 2.5 33.59375 8.25 40.4375 
Q 14 47.296875 23.40625 47.296875 
Q 31.703125 47.296875 36.203125 42.296875 
Q 41.5 36.5 42.09375 24.5 
L 16.90625 24.5 
Q 17.203125 20.296875 17.703125 17.4375 
Q 18.203125 14.59375 19.390625 11.6875 
Q 20.59375 8.796875 22.9375 7.296875 
Q 25.296875 5.796875 28.796875 5.796875 
Q 32 5.796875 34.59375 7.34375 
Q 37.203125 8.90625 40.296875 12.59375 
z
M 29.796875 28.203125 
L 29.796875 30.296875 
Q 29.796875 37.59375 28.90625 39.5 
Q 27.703125 42 26.546875 43.09375 
Q 25.40625 44.203125 23.40625 44.203125 
Q 19.796875 44.203125 18.09375 40.546875 
Q 16.40625 36.90625 16.40625 28.203125 
z
" id="STIXGeneral-Bold-101"/>
     </defs>
     <use xlink:href="#STIXGeneral-Bold-69"/>
     <use x="66.699997" xlink:href="#STIXGeneral-Bold-97"/>
     <use x="116.699982" xlink:href="#STIXGeneral-Bold-115"/>
     <use x="155.599976" xlink:href="#STIXGeneral-Bold-116"/>
     <use x="188.899963" xlink:href="#STIXGeneral-Bold-32"/>
     <use x="213.899948" xlink:href="#STIXGeneral-Bold-82"/>
     <use x="286.09993" xlink:href="#STIXGeneral-Bold-105"/>
     <use x="313.899918" xlink:href="#STIXGeneral-Bold-100"/>
     <use x="369.499908" xlink:href="#STIXGeneral-Bold-105"/>
     <use x="397.299896" xlink:href="#STIXGeneral-Bold-110"/>
     <use x="452.899887" xlink:href="#STIXGeneral-Bold-103"/>
     <use x="502.899872" xlink:href="#STIXGeneral-Bold-32"/>
     <use x="527.899857" xlink:href="#STIXGeneral-Bold-111"/>
     <use x="577.899841" xlink:href="#STIXGeneral-Bold-102"/>
     <use x="611.199829" xlink:href="#STIXGeneral-Bold-32"/>
     <use x="636.199814" xlink:href="#STIXGeneral-Bold-89"/>
     <use x="708.399796" xlink:href="#STIXGeneral-Bold-111"/>
     <use x="758.39978" xlink:href="#STIXGeneral-Bold-114"/>
     <use x="802.799774" xlink:href="#STIXGeneral-Bold-107"/>
     <use x="858.399765" xlink:href="#STIXGeneral-Bold-115"/>
     <use x="897.299759" xlink:href="#STIXGeneral-Bold-104"/>
     <use x="952.89975" xlink:href="#STIXGeneral-Bold-105"/>
     <use x="980.699738" xlink:href="#STIXGeneral-Bold-114"/>
     <use x="1025.099731" xlink:href="#STIXGeneral-Bold-101"/>
    </g>
   </g>
   <g id="text_2">
    <!-- North Lincolnshire -->
    <g transform="translate(334.832454 233.379286)scale(0.1 -0.1)">
     <defs>
      <path d="M 70.09375 67.59375 
L 70.09375 65.09375 
Q 65.09375 64.296875 63.6875 62.84375 
Q 62.296875 61.40625 62.296875 56.796875 
L 62.296875 -1.796875 
L 59.5 -1.796875 
L 14.796875 52.703125 
L 14.796875 13.09375 
Q 14.796875 7.296875 16.59375 5.25 
Q 18.40625 3.203125 24.203125 2.5 
L 24.203125 0 
L 1.59375 0 
L 1.59375 2.5 
Q 7.09375 3.203125 8.75 4.75 
Q 10.40625 6.296875 10.40625 10.90625 
L 10.40625 57.90625 
Q 5.203125 65.09375 1.90625 65.09375 
L 1.90625 67.59375 
L 23 67.59375 
L 57.90625 24.59375 
L 57.90625 54.5 
Q 57.90625 60.5 56.09375 62.546875 
Q 54.296875 64.59375 48.703125 65.09375 
L 48.703125 67.59375 
z
" id="STIXGeneral-Bold-78"/>
      <path d="M 63.796875 22.703125 
L 59.59375 0 
L 1.90625 0 
L 1.90625 2.5 
Q 7.40625 3.203125 8.953125 4.5 
Q 10.5 5.796875 10.5 9.796875 
L 10.5 57.59375 
Q 10.5 61.796875 8.75 63.296875 
Q 7 64.796875 1.90625 65.09375 
L 1.90625 67.59375 
L 36.703125 67.703125 
L 36.703125 65.203125 
Q 30.203125 64.90625 28.453125 63.203125 
Q 26.703125 61.5 26.703125 55.296875 
L 26.703125 8.90625 
Q 26.703125 5.59375 28.546875 4.34375 
Q 30.40625 3.09375 35.203125 3.09375 
Q 46.09375 3.09375 52.203125 8.59375 
Q 56.40625 12.5 60.90625 22.703125 
z
" id="STIXGeneral-Bold-76"/>
      <path d="M 41.203125 10.90625 
L 43 9.09375 
Q 38.90625 3.5 34.40625 1.046875 
Q 29.90625 -1.40625 23.90625 -1.40625 
Q 14.40625 -1.40625 8.453125 5.09375 
Q 2.5 11.59375 2.5 22.203125 
Q 2.5 33.203125 9.296875 40.25 
Q 16.09375 47.296875 26.203125 47.296875 
Q 32.796875 47.296875 37.1875 44.1875 
Q 41.59375 41.09375 41.59375 36.296875 
Q 41.59375 33.40625 39.75 31.65625 
Q 37.90625 29.90625 34.796875 29.90625 
Q 32.203125 29.90625 30.703125 31.796875 
Q 29.203125 33.703125 29.203125 37.203125 
Q 29.203125 39 29.140625 39.796875 
Q 29.09375 40.59375 28.890625 41.640625 
Q 28.703125 42.703125 28.296875 43.140625 
Q 27.90625 43.59375 27.046875 43.890625 
Q 26.203125 44.203125 25 44.203125 
Q 21.203125 44.203125 18.890625 39.75 
Q 16.59375 35.296875 16.59375 27.296875 
Q 16.59375 17.09375 20.296875 11.1875 
Q 24 5.296875 30.5 5.296875 
Q 36.296875 5.296875 41.203125 10.90625 
z
" id="STIXGeneral-Bold-99"/>
      <path d="M 25.59375 0 
L 1.59375 0 
L 1.59375 2.40625 
Q 6.703125 2.796875 6.703125 8.703125 
L 6.703125 58.703125 
Q 6.703125 64.796875 1.5 65.203125 
L 1.5 67.59375 
L 20.59375 67.59375 
L 20.59375 8.703125 
Q 20.59375 5.40625 21.796875 3.953125 
Q 23 2.5 25.59375 2.40625 
z
" id="STIXGeneral-Bold-108"/>
     </defs>
     <use xlink:href="#STIXGeneral-Bold-78"/>
     <use x="72.199982" xlink:href="#STIXGeneral-Bold-111"/>
     <use x="122.199966" xlink:href="#STIXGeneral-Bold-114"/>
     <use x="166.59996" xlink:href="#STIXGeneral-Bold-116"/>
     <use x="199.899948" xlink:href="#STIXGeneral-Bold-104"/>
     <use x="255.499939" xlink:href="#STIXGeneral-Bold-32"/>
     <use x="280.499924" xlink:href="#STIXGeneral-Bold-76"/>
     <use x="347.199921" xlink:href="#STIXGeneral-Bold-105"/>
     <use x="374.999908" xlink:href="#STIXGeneral-Bold-110"/>
     <use x="430.599899" xlink:href="#STIXGeneral-Bold-99"/>
     <use x="474.999893" xlink:href="#STIXGeneral-Bold-111"/>
     <use x="524.999878" xlink:href="#STIXGeneral-Bold-108"/>
     <use x="552.799866" xlink:href="#STIXGeneral-Bold-110"/>
     <use x="608.399857" xlink:href="#STIXGeneral-Bold-115"/>
     <use x="647.29985" xlink:href="#STIXGeneral-Bold-104"/>
     <use x="702.899841" xlink:href="#STIXGeneral-Bold-105"/>
     <use x="730.699829" xlink:href="#STIXGeneral-Bold-114"/>
     <use x="775.099823" xlink:href="#STIXGeneral-Bold-101"/>
    </g>
   </g>
   <g id="text_3">
    <!-- South Derbyshire -->
    <g transform="translate(175.288244 471.820479)scale(0.1 -0.1)">
     <defs>
      <path d="M 48.40625 47.40625 
L 45.59375 47.40625 
Q 43 55.90625 38.59375 60.40625 
Q 33.203125 66 26.296875 66 
Q 21.203125 66 18.25 63.25 
Q 15.296875 60.5 15.296875 56.09375 
Q 15.296875 52.5 17.390625 50.203125 
Q 19.5 47.90625 25.59375 44.703125 
Q 27.40625 43.703125 32.453125 41.140625 
Q 37.5 38.59375 40.40625 37 
Q 45.296875 34.296875 48.296875 29.640625 
Q 51.296875 25 51.296875 19.40625 
Q 51.296875 9.90625 44.4375 4 
Q 37.59375 -1.90625 26.5 -1.90625 
Q 20.40625 -1.90625 13.5 0.5 
Q 10.40625 1.5 9.40625 1.5 
Q 8.203125 1.5 7.5 0.75 
Q 6.796875 0 6.40625 -1.90625 
L 3.5 -1.90625 
L 3.5 22.90625 
L 6.40625 22.90625 
Q 8.703125 13.296875 12.40625 8.59375 
Q 18.09375 1.40625 26.796875 1.40625 
Q 32.59375 1.40625 36 4.453125 
Q 39.40625 7.5 39.40625 12.703125 
Q 39.40625 17.5 33.703125 21.5 
Q 31.203125 23.296875 21.5 28 
Q 12.59375 32.296875 8.5 37 
Q 4.40625 41.703125 4.40625 49 
Q 4.40625 58.5 10.25 63.796875 
Q 16.09375 69.09375 26.296875 69.09375 
Q 31.796875 69.09375 38 66.796875 
Q 41 65.796875 42.203125 65.796875 
Q 43.59375 65.796875 44.25 66.5 
Q 44.90625 67.203125 45.40625 69.203125 
L 48.40625 69.203125 
z
" id="STIXGeneral-Bold-83"/>
      <path d="M 53.796875 2 
L 47.5 1.296875 
Q 39.203125 0.40625 34.296875 -1.296875 
L 34.296875 5.203125 
Q 30.40625 1.5 27.15625 0.046875 
Q 23.90625 -1.40625 19.796875 -1.40625 
Q 13.5 -1.40625 10 2.390625 
Q 6.5 6.203125 6.5 13.09375 
L 6.5 37.203125 
Q 6.5 40.703125 5.59375 41.890625 
Q 4.703125 43.09375 1.59375 43.703125 
L 1.59375 46.09375 
L 20.40625 46.09375 
L 20.40625 12.703125 
Q 20.40625 5.09375 26 5.09375 
Q 29.90625 5.09375 34.203125 9.796875 
L 34.203125 37.40625 
Q 34.203125 40.796875 33 42.09375 
Q 31.796875 43.40625 28.09375 43.703125 
L 28.09375 46.09375 
L 48.09375 46.09375 
L 48.09375 10.5 
Q 48.09375 7.203125 49.296875 5.796875 
Q 50.5 4.40625 53.796875 4.296875 
z
" id="STIXGeneral-Bold-117"/>
      <path d="M 1.40625 67.59375 
L 32.59375 67.59375 
Q 49.703125 67.59375 59.34375 58.796875 
Q 69 50 69 34.5 
Q 69 26.796875 65.953125 19.796875 
Q 62.90625 12.796875 57.5 8.09375 
Q 48.203125 0 32.296875 0 
L 1.40625 0 
L 1.40625 2.5 
Q 5.703125 2.59375 7.703125 4.390625 
Q 9.703125 6.203125 9.703125 9.796875 
L 9.703125 58.40625 
Q 9.703125 61.796875 7.953125 63.1875 
Q 6.203125 64.59375 1.40625 65.09375 
z
M 25.90625 59.796875 
L 25.90625 10 
Q 25.90625 6.5 27.15625 5 
Q 28.40625 3.5 31.703125 3.5 
Q 41.5 3.5 46.59375 10.703125 
Q 48.90625 14 50.25 20.140625 
Q 51.59375 26.296875 51.59375 33 
Q 51.59375 46.90625 47.5 54.09375 
Q 41.703125 64.203125 31.203125 64.203125 
Q 25.90625 64.203125 25.90625 59.796875 
z
" id="STIXGeneral-Bold-68"/>
      <path d="M 21.09375 67.59375 
L 21.09375 41.703125 
Q 26.40625 47.296875 33.296875 47.296875 
Q 41.59375 47.296875 46.84375 40.796875 
Q 52.09375 34.296875 52.09375 23.90625 
Q 52.09375 12.59375 45.796875 5.59375 
Q 39.5 -1.40625 29.5 -1.40625 
Q 22.5 -1.40625 16.296875 4.296875 
L 8.40625 -1.296875 
L 7.203125 -1.296875 
L 7.203125 59.40625 
Q 7.203125 62.40625 6.203125 63.453125 
Q 5.203125 64.5 1.703125 65.203125 
L 1.703125 67.59375 
z
M 21.09375 36 
L 21.09375 9.703125 
Q 21.09375 6.09375 23 3.9375 
Q 24.90625 1.796875 28 1.796875 
Q 37.40625 1.796875 37.40625 22.09375 
Q 37.40625 41.90625 28.09375 41.90625 
Q 25.59375 41.90625 24 40.546875 
Q 22.40625 39.203125 21.09375 36 
z
" id="STIXGeneral-Bold-98"/>
      <path d="M 48.203125 46.09375 
L 48.203125 43.703125 
Q 45.796875 43.40625 44.59375 42.34375 
Q 43.40625 41.296875 42.203125 38.203125 
L 27.40625 -1.59375 
Q 22.90625 -13.703125 19.703125 -17.203125 
Q 16.59375 -20.5 11.296875 -20.5 
Q 7 -20.5 4.296875 -18.296875 
Q 1.59375 -16.09375 1.59375 -12.59375 
Q 1.59375 -9.703125 3.296875 -7.796875 
Q 5 -5.90625 7.796875 -5.90625 
Q 10.296875 -5.90625 12.046875 -7.40625 
Q 13.796875 -8.90625 13.796875 -11.09375 
Q 13.796875 -11.5 13.59375 -12.5 
L 13.5 -13.09375 
Q 13.5 -13.796875 14 -14.296875 
Q 14.5 -14.796875 15.203125 -14.796875 
Q 19 -14.796875 21.796875 -6.59375 
L 23.59375 -1.296875 
L 11.703125 27.703125 
Q 6.796875 39.796875 5 42.296875 
Q 4.203125 43.296875 1.59375 43.703125 
L 1.59375 46.09375 
L 26.5 46.09375 
L 26.5 43.703125 
L 24.90625 43.59375 
Q 21.296875 43.296875 21.296875 41.09375 
Q 21.296875 40.40625 23.296875 35.296875 
L 30.5 16.703125 
L 37.296875 35.5 
Q 38.40625 38.703125 38.40625 40.40625 
Q 38.40625 42.203125 37.296875 42.890625 
Q 36.203125 43.59375 33 43.703125 
L 33 46.09375 
z
" id="STIXGeneral-Bold-121"/>
     </defs>
     <use xlink:href="#STIXGeneral-Bold-83"/>
     <use x="55.599991" xlink:href="#STIXGeneral-Bold-111"/>
     <use x="105.599976" xlink:href="#STIXGeneral-Bold-117"/>
     <use x="161.199966" xlink:href="#STIXGeneral-Bold-116"/>
     <use x="194.499954" xlink:href="#STIXGeneral-Bold-104"/>
     <use x="250.099945" xlink:href="#STIXGeneral-Bold-32"/>
     <use x="275.09993" xlink:href="#STIXGeneral-Bold-68"/>
     <use x="347.299911" xlink:href="#STIXGeneral-Bold-101"/>
     <use x="391.699905" xlink:href="#STIXGeneral-Bold-114"/>
     <use x="436.099899" xlink:href="#STIXGeneral-Bold-98"/>
     <use x="491.69989" xlink:href="#STIXGeneral-Bold-121"/>
     <use x="541.699875" xlink:href="#STIXGeneral-Bold-115"/>
     <use x="580.599869" xlink:href="#STIXGeneral-Bold-104"/>
     <use x="636.19986" xlink:href="#STIXGeneral-Bold-105"/>
     <use x="663.999847" xlink:href="#STIXGeneral-Bold-114"/>
     <use x="708.399841" xlink:href="#STIXGeneral-Bold-101"/>
    </g>
   </g>
   <g id="text_4">
    <!-- North West Leicestershire -->
    <g transform="translate(176.078664 487.625769)scale(0.1 -0.1)">
     <defs>
      <path d="M 98.09375 67.59375 
L 98.09375 65.09375 
Q 93.09375 64.59375 91.203125 58.703125 
L 71.203125 -1.5 
L 68.5 -1.5 
L 51.40625 46.203125 
L 32.796875 -1.5 
L 30 -1.5 
L 8.796875 58.703125 
Q 7.5 62.40625 6.296875 63.5 
Q 5.09375 64.59375 1.90625 65.09375 
L 1.90625 67.59375 
L 31.296875 67.59375 
L 31.296875 65.09375 
Q 27.40625 64.796875 26.15625 63.9375 
Q 24.90625 63.09375 24.90625 60.90625 
Q 24.90625 59.59375 25.59375 57.59375 
L 37.59375 21.203125 
L 49.40625 52 
L 45.90625 61.59375 
Q 44.703125 64.796875 38.703125 65.09375 
L 38.703125 67.59375 
L 69.90625 67.59375 
L 69.90625 65.09375 
L 68.59375 65 
Q 65.296875 64.796875 64 64 
Q 62.703125 63.203125 62.703125 61.40625 
Q 62.703125 60.09375 64.09375 55.796875 
L 74.90625 22.203125 
L 86.09375 56.5 
Q 86.796875 58.5 86.796875 60.703125 
Q 86.796875 63 85.34375 63.953125 
Q 83.90625 64.90625 79.90625 65.09375 
L 79.90625 67.59375 
z
" id="STIXGeneral-Bold-87"/>
     </defs>
     <use xlink:href="#STIXGeneral-Bold-78"/>
     <use x="72.199982" xlink:href="#STIXGeneral-Bold-111"/>
     <use x="122.199966" xlink:href="#STIXGeneral-Bold-114"/>
     <use x="166.59996" xlink:href="#STIXGeneral-Bold-116"/>
     <use x="199.899948" xlink:href="#STIXGeneral-Bold-104"/>
     <use x="255.499939" xlink:href="#STIXGeneral-Bold-32"/>
     <use x="280.499924" xlink:href="#STIXGeneral-Bold-87"/>
     <use x="380.499908" xlink:href="#STIXGeneral-Bold-101"/>
     <use x="424.899902" xlink:href="#STIXGeneral-Bold-115"/>
     <use x="463.799896" xlink:href="#STIXGeneral-Bold-116"/>
     <use x="497.099884" xlink:href="#STIXGeneral-Bold-32"/>
     <use x="522.099869" xlink:href="#STIXGeneral-Bold-76"/>
     <use x="588.799866" xlink:href="#STIXGeneral-Bold-101"/>
     <use x="633.19986" xlink:href="#STIXGeneral-Bold-105"/>
     <use x="660.999847" xlink:href="#STIXGeneral-Bold-99"/>
     <use x="705.399841" xlink:href="#STIXGeneral-Bold-101"/>
     <use x="749.799835" xlink:href="#STIXGeneral-Bold-115"/>
     <use x="788.699829" xlink:href="#STIXGeneral-Bold-116"/>
     <use x="821.999817" xlink:href="#STIXGeneral-Bold-101"/>
     <use x="866.399811" xlink:href="#STIXGeneral-Bold-114"/>
     <use x="910.799805" xlink:href="#STIXGeneral-Bold-115"/>
     <use x="949.699799" xlink:href="#STIXGeneral-Bold-104"/>
     <use x="1005.299789" xlink:href="#STIXGeneral-Bold-105"/>
     <use x="1033.099777" xlink:href="#STIXGeneral-Bold-114"/>
     <use x="1077.499771" xlink:href="#STIXGeneral-Bold-101"/>
    </g>
   </g>
   <g id="text_5">
    <!-- West Lindsey -->
    <g transform="translate(366.073402 292.189136)scale(0.1 -0.1)">
     <use xlink:href="#STIXGeneral-Bold-87"/>
     <use x="99.999985" xlink:href="#STIXGeneral-Bold-101"/>
     <use x="144.399979" xlink:href="#STIXGeneral-Bold-115"/>
     <use x="183.299973" xlink:href="#STIXGeneral-Bold-116"/>
     <use x="216.59996" xlink:href="#STIXGeneral-Bold-32"/>
     <use x="241.599945" xlink:href="#STIXGeneral-Bold-76"/>
     <use x="308.299942" xlink:href="#STIXGeneral-Bold-105"/>
     <use x="336.09993" xlink:href="#STIXGeneral-Bold-110"/>
     <use x="391.699921" xlink:href="#STIXGeneral-Bold-100"/>
     <use x="447.299911" xlink:href="#STIXGeneral-Bold-115"/>
     <use x="486.199905" xlink:href="#STIXGeneral-Bold-101"/>
     <use x="530.599899" xlink:href="#STIXGeneral-Bold-121"/>
    </g>
   </g>
   <g id="text_6">
    <!-- Bassetlaw -->
    <g transform="translate(289.84483 308.458509)scale(0.1 -0.1)">
     <defs>
      <path d="M 42.59375 36.5 
L 42.59375 36.40625 
Q 51.09375 35.296875 56.5 30.546875 
Q 61.90625 25.796875 61.90625 18.796875 
Q 61.90625 10.5 54.703125 5.25 
Q 47.5 0 34.5 0 
L 1.59375 0 
L 1.59375 2.5 
Q 7.09375 3.09375 8.75 4.59375 
Q 10.40625 6.09375 10.40625 10.296875 
L 10.40625 57 
Q 10.40625 61.40625 8.546875 63.046875 
Q 6.703125 64.703125 1.59375 65.09375 
L 1.59375 67.59375 
L 33.296875 67.59375 
Q 45.40625 67.59375 51.953125 63.4375 
Q 58.5 59.296875 58.5 51.59375 
Q 58.5 45.703125 54.796875 41.953125 
Q 51.09375 38.203125 42.59375 36.5 
z
M 26.40625 59.203125 
L 26.40625 37.296875 
Q 35.5 37.296875 38.75 40.296875 
Q 42 43.296875 42 50.90625 
Q 42 64.59375 32.09375 64.59375 
Q 29.09375 64.59375 27.75 63.34375 
Q 26.40625 62.09375 26.40625 59.203125 
z
M 26.40625 34.296875 
L 26.40625 9.796875 
Q 26.40625 6.203125 27.90625 4.703125 
Q 29.40625 3.203125 32.703125 3.203125 
Q 38.5 3.203125 41.59375 7.203125 
Q 44.703125 11.203125 44.703125 18.796875 
Q 44.703125 34.296875 29 34.296875 
z
" id="STIXGeneral-Bold-66"/>
      <path d="M 70.703125 46.09375 
L 70.703125 43.703125 
Q 68.796875 43.296875 67.75 42.296875 
Q 66.703125 41.296875 65.703125 38.703125 
L 50.203125 -1.40625 
L 47.90625 -1.40625 
L 37.703125 29.59375 
L 25.203125 -1.40625 
L 22.796875 -1.40625 
L 8 36 
Q 6.09375 40.703125 5.140625 42 
Q 4.203125 43.296875 2.296875 43.703125 
L 2.296875 46.09375 
L 24.5 46.09375 
L 24.5 43.703125 
Q 20.703125 43.203125 20.703125 40.90625 
Q 20.703125 39.703125 24.59375 29.40625 
L 29.09375 17.59375 
L 35.90625 34.703125 
Q 35.5 35.90625 35.296875 36.59375 
Q 33.90625 41.5 33.09375 42.453125 
Q 32.296875 43.40625 29.40625 43.703125 
L 29.40625 46.09375 
L 52.796875 46.09375 
L 52.796875 43.703125 
Q 50 43.5 49 43 
Q 48 42.5 48 41.296875 
Q 48 39.90625 50.703125 30.703125 
Q 53 22.796875 54.09375 18 
L 57.59375 27.40625 
Q 62 39.203125 62 40.203125 
Q 62 41.90625 61 42.65625 
Q 60 43.40625 57.203125 43.703125 
L 57.203125 46.09375 
z
" id="STIXGeneral-Bold-119"/>
     </defs>
     <use xlink:href="#STIXGeneral-Bold-66"/>
     <use x="66.699997" xlink:href="#STIXGeneral-Bold-97"/>
     <use x="116.699982" xlink:href="#STIXGeneral-Bold-115"/>
     <use x="155.599976" xlink:href="#STIXGeneral-Bold-115"/>
     <use x="194.499969" xlink:href="#STIXGeneral-Bold-101"/>
     <use x="238.899963" xlink:href="#STIXGeneral-Bold-116"/>
     <use x="272.199951" xlink:href="#STIXGeneral-Bold-108"/>
     <use x="299.999939" xlink:href="#STIXGeneral-Bold-97"/>
     <use x="349.999924" xlink:href="#STIXGeneral-Bold-119"/>
    </g>
   </g>
   <g id="text_7">
    <!-- Newark and Sherwood -->
    <g transform="translate(265.466339 383.250917)scale(0.1 -0.1)">
     <use xlink:href="#STIXGeneral-Bold-78"/>
     <use x="72.199982" xlink:href="#STIXGeneral-Bold-101"/>
     <use x="116.599976" xlink:href="#STIXGeneral-Bold-119"/>
     <use x="188.799957" xlink:href="#STIXGeneral-Bold-97"/>
     <use x="238.799942" xlink:href="#STIXGeneral-Bold-114"/>
     <use x="283.199936" xlink:href="#STIXGeneral-Bold-107"/>
     <use x="338.799927" xlink:href="#STIXGeneral-Bold-32"/>
     <use x="363.799911" xlink:href="#STIXGeneral-Bold-97"/>
     <use x="413.799896" xlink:href="#STIXGeneral-Bold-110"/>
     <use x="469.399887" xlink:href="#STIXGeneral-Bold-100"/>
     <use x="524.999878" xlink:href="#STIXGeneral-Bold-32"/>
     <use x="549.999863" xlink:href="#STIXGeneral-Bold-83"/>
     <use x="605.599854" xlink:href="#STIXGeneral-Bold-104"/>
     <use x="661.199844" xlink:href="#STIXGeneral-Bold-101"/>
     <use x="705.599838" xlink:href="#STIXGeneral-Bold-114"/>
     <use x="749.999832" xlink:href="#STIXGeneral-Bold-119"/>
     <use x="822.199814" xlink:href="#STIXGeneral-Bold-111"/>
     <use x="872.199799" xlink:href="#STIXGeneral-Bold-111"/>
     <use x="922.199783" xlink:href="#STIXGeneral-Bold-100"/>
    </g>
   </g>
   <g id="text_8">
    <!-- Rushcliffe -->
    <g transform="translate(282.278457 444.033709)scale(0.1 -0.1)">
     <use xlink:href="#STIXGeneral-Bold-82"/>
     <use x="72.199982" xlink:href="#STIXGeneral-Bold-117"/>
     <use x="127.799973" xlink:href="#STIXGeneral-Bold-115"/>
     <use x="166.699966" xlink:href="#STIXGeneral-Bold-104"/>
     <use x="222.299957" xlink:href="#STIXGeneral-Bold-99"/>
     <use x="266.699951" xlink:href="#STIXGeneral-Bold-108"/>
     <use x="294.499939" xlink:href="#STIXGeneral-Bold-105"/>
     <use x="322.299927" xlink:href="#STIXGeneral-Bold-102"/>
     <use x="355.599915" xlink:href="#STIXGeneral-Bold-102"/>
     <use x="388.899902" xlink:href="#STIXGeneral-Bold-101"/>
    </g>
   </g>
   <g id="text_9">
    <!-- East Staffordshire -->
    <g transform="translate(98.083761 452.184394)scale(0.1 -0.1)">
     <use xlink:href="#STIXGeneral-Bold-69"/>
     <use x="66.699997" xlink:href="#STIXGeneral-Bold-97"/>
     <use x="116.699982" xlink:href="#STIXGeneral-Bold-115"/>
     <use x="155.599976" xlink:href="#STIXGeneral-Bold-116"/>
     <use x="188.899963" xlink:href="#STIXGeneral-Bold-32"/>
     <use x="213.899948" xlink:href="#STIXGeneral-Bold-83"/>
     <use x="269.499939" xlink:href="#STIXGeneral-Bold-116"/>
     <use x="302.799927" xlink:href="#STIXGeneral-Bold-97"/>
     <use x="352.799911" xlink:href="#STIXGeneral-Bold-102"/>
     <use x="386.099899" xlink:href="#STIXGeneral-Bold-102"/>
     <use x="419.399887" xlink:href="#STIXGeneral-Bold-111"/>
     <use x="469.399872" xlink:href="#STIXGeneral-Bold-114"/>
     <use x="513.799866" xlink:href="#STIXGeneral-Bold-100"/>
     <use x="569.399857" xlink:href="#STIXGeneral-Bold-115"/>
     <use x="608.29985" xlink:href="#STIXGeneral-Bold-104"/>
     <use x="663.899841" xlink:href="#STIXGeneral-Bold-105"/>
     <use x="691.699829" xlink:href="#STIXGeneral-Bold-114"/>
     <use x="736.099823" xlink:href="#STIXGeneral-Bold-101"/>
    </g>
   </g>
   <g id="text_10">
    <!-- Lichfield -->
    <g transform="translate(143.311876 512.25275)scale(0.1 -0.1)">
     <use xlink:href="#STIXGeneral-Bold-76"/>
     <use x="66.699997" xlink:href="#STIXGeneral-Bold-105"/>
     <use x="94.499985" xlink:href="#STIXGeneral-Bold-99"/>
     <use x="138.899979" xlink:href="#STIXGeneral-Bold-104"/>
     <use x="194.499969" xlink:href="#STIXGeneral-Bold-102"/>
     <use x="227.799957" xlink:href="#STIXGeneral-Bold-105"/>
     <use x="255.599945" xlink:href="#STIXGeneral-Bold-101"/>
     <use x="299.999939" xlink:href="#STIXGeneral-Bold-108"/>
     <use x="327.799927" xlink:href="#STIXGeneral-Bold-100"/>
    </g>
   </g>
   <g id="text_11">
    <!-- Stafford -->
    <g transform="translate(69.91118 466.283573)scale(0.1 -0.1)">
     <use xlink:href="#STIXGeneral-Bold-83"/>
     <use x="55.599991" xlink:href="#STIXGeneral-Bold-116"/>
     <use x="88.899979" xlink:href="#STIXGeneral-Bold-97"/>
     <use x="138.899963" xlink:href="#STIXGeneral-Bold-102"/>
     <use x="172.199951" xlink:href="#STIXGeneral-Bold-102"/>
     <use x="205.499939" xlink:href="#STIXGeneral-Bold-111"/>
     <use x="255.499924" xlink:href="#STIXGeneral-Bold-114"/>
     <use x="299.899918" xlink:href="#STIXGeneral-Bold-100"/>
    </g>
   </g>
   <g id="text_12">
    <!-- Local Authority Districts that are intersected by the Trent -->
    <g style="fill:#323034;" transform="translate(7.2 20.859375)scale(0.2 -0.2)">
     <defs>
      <path d="M 59.796875 17.40625 
L 55 0 
L 1.203125 0 
L 1.203125 1.90625 
Q 6.703125 2.203125 8.296875 4 
Q 9.90625 5.796875 9.90625 11.5 
L 9.90625 54.59375 
Q 9.90625 60.5 8.453125 62.203125 
Q 7 63.90625 1.203125 64.296875 
L 1.203125 66.203125 
L 29.5 66.203125 
L 29.5 64.296875 
Q 23.40625 63.90625 21.75 62.25 
Q 20.09375 60.59375 20.09375 54.796875 
L 20.09375 8.40625 
Q 20.09375 5.59375 21.84375 4.75 
Q 23.59375 3.90625 29.09375 3.90625 
L 36.09375 3.90625 
Q 48.203125 3.90625 53 10 
Q 55 12.703125 57.203125 17.40625 
z
" id="STIXGeneral-Regular-76"/>
      <path d="M 47 23.09375 
Q 47 12.59375 40.75 5.796875 
Q 34.5 -1 24.5 -1 
Q 15.296875 -1 9.09375 5.75 
Q 2.90625 12.5 2.90625 22.796875 
Q 2.90625 33.203125 9.09375 39.59375 
Q 15.296875 46 25.40625 46 
Q 34.703125 46 40.84375 39.640625 
Q 47 33.296875 47 23.09375 
z
M 38 20.40625 
Q 38 31.796875 33 38.203125 
Q 29 43.203125 23.5 43.203125 
Q 18.296875 43.203125 15.09375 38.953125 
Q 11.90625 34.703125 11.90625 27.296875 
Q 11.90625 14.5 17.203125 6.796875 
Q 20.59375 1.796875 26.203125 1.796875 
Q 31.703125 1.796875 34.84375 6.75 
Q 38 11.703125 38 20.40625 
z
" id="STIXGeneral-Regular-111"/>
      <path d="M 39.796875 15.59375 
L 41.203125 14.703125 
Q 36.90625 6.296875 33 3.203125 
Q 27.90625 -1 21.5 -1 
Q 13.203125 -1 7.84375 5.25 
Q 2.5 11.5 2.5 21.203125 
Q 2.5 33.90625 10.90625 40.90625 
Q 17.09375 46 24.40625 46 
Q 30.703125 46 35.25 42.953125 
Q 39.796875 39.90625 39.796875 35.703125 
Q 39.796875 34 38.390625 32.75 
Q 37 31.5 35.09375 31.5 
Q 31.59375 31.5 30.296875 36.09375 
L 29.703125 38.296875 
Q 28.90625 41.09375 27.703125 42.09375 
Q 26.5 43.09375 23.796875 43.09375 
Q 17.703125 43.09375 13.953125 38.296875 
Q 10.203125 33.5 10.203125 25.703125 
Q 10.203125 17.09375 14.5 11.640625 
Q 18.796875 6.203125 25.703125 6.203125 
Q 30 6.203125 33.09375 8.25 
Q 36.203125 10.296875 39.796875 15.59375 
z
" id="STIXGeneral-Regular-99"/>
      <path d="M 44.203125 6.59375 
L 44.203125 3.796875 
Q 40.40625 -1 35.203125 -1 
Q 29.5 -1 28.796875 6.296875 
L 28.703125 6.296875 
Q 22.296875 -1 14.203125 -1 
Q 9.5 -1 6.59375 1.75 
Q 3.703125 4.5 3.703125 9.40625 
Q 3.703125 16.40625 10.703125 21.09375 
Q 15.5 24.296875 28.703125 29.203125 
L 28.703125 34.59375 
Q 28.703125 39.09375 26.546875 41.34375 
Q 24.40625 43.59375 20.90625 43.59375 
Q 17.90625 43.59375 15.90625 42.140625 
Q 13.90625 40.703125 13.90625 38.703125 
Q 13.90625 37.796875 14.203125 36.6875 
Q 14.5 35.59375 14.5 34.5 
Q 14.5 33 13.140625 31.703125 
Q 11.796875 30.40625 9.90625 30.40625 
Q 8.203125 30.40625 6.890625 31.703125 
Q 5.59375 33 5.59375 35 
Q 5.59375 39.796875 10.703125 43 
Q 15.40625 46 22.203125 46 
Q 30.296875 46 34 41.5 
Q 35.796875 39.40625 36.296875 37.25 
Q 36.796875 35.09375 36.796875 30.40625 
L 36.796875 11.296875 
Q 36.796875 4.703125 39.90625 4.703125 
Q 41.90625 4.703125 44.203125 6.59375 
z
M 28.703125 12.703125 
L 28.703125 26.796875 
Q 19.5 23.59375 15.90625 20.203125 
Q 12.5 17.09375 12.5 12.5 
Q 12.5 8.703125 14.390625 6.75 
Q 16.296875 4.796875 19.40625 4.796875 
Q 22.703125 4.796875 25.203125 6.40625 
Q 27.296875 7.90625 28 9.203125 
Q 28.703125 10.5 28.703125 12.703125 
z
" id="STIXGeneral-Regular-97"/>
      <path d="M 25.703125 0 
L 2.09375 0 
L 2.09375 1.5 
Q 6.796875 1.90625 8.296875 3.453125 
Q 9.796875 5 9.796875 9.203125 
L 9.796875 56.09375 
Q 9.796875 59.703125 8.890625 61.09375 
Q 8 62.5 5.59375 62.5 
Q 3.5 62.5 1.90625 62.296875 
L 1.90625 63.90625 
Q 11.40625 66.203125 17.703125 68.296875 
L 18.203125 67.90625 
L 18.203125 8.703125 
Q 18.203125 4.5 19.59375 3.140625 
Q 21 1.796875 25.703125 1.5 
z
" id="STIXGeneral-Regular-108"/>
      <path id="STIXGeneral-Regular-32"/>
      <path d="M 70.703125 0 
L 45.203125 0 
L 45.203125 1.90625 
Q 49.203125 1.90625 50.703125 2.796875 
Q 52.09375 3.5 52.09375 5.203125 
Q 52.09375 7.796875 50.203125 12.203125 
L 46.09375 21.59375 
L 19.90625 21.59375 
L 15.296875 10.203125 
Q 14.40625 7.90625 14.40625 6 
Q 14.40625 3.703125 16.046875 2.796875 
Q 17.703125 1.90625 21.40625 1.90625 
L 21.40625 0 
L 1.5 0 
L 1.5 1.90625 
Q 5.703125 2.296875 7.59375 4.9375 
Q 9.5 7.59375 14.09375 18.59375 
L 34.703125 67.40625 
L 36.703125 67.40625 
L 61.296875 11.09375 
Q 63.5 5.90625 65.25 4.09375 
Q 67 2.296875 70.703125 1.90625 
z
M 44.703125 25.703125 
L 33.09375 53.203125 
L 21.59375 25.703125 
z
" id="STIXGeneral-Regular-65"/>
      <path d="M 48 5 
L 48 3.59375 
Q 40.203125 1.5 34.296875 -0.90625 
L 33.796875 -0.59375 
L 33.796875 7.59375 
L 33.59375 7.59375 
Q 27.296875 -1 19.296875 -1 
Q 13.59375 -1 10.34375 2.5 
Q 7.09375 6 7.09375 11.796875 
L 7.09375 36.90625 
Q 7.09375 40.59375 5.796875 42 
Q 4.5 43.40625 0.90625 43.59375 
L 0.90625 45 
L 15.5 45 
L 15.5 12.703125 
Q 15.5 9.296875 17.546875 7.046875 
Q 19.59375 4.796875 22.59375 4.796875 
Q 27.5 4.796875 31 7.90625 
Q 32.296875 9.09375 32.796875 10.140625 
Q 33.296875 11.203125 33.296875 13.703125 
L 33.296875 36.796875 
Q 33.296875 40.703125 31.890625 41.84375 
Q 30.5 43 25.90625 43.296875 
L 25.90625 45 
L 41.703125 45 
L 41.703125 10.703125 
Q 41.703125 7.203125 42.84375 6.09375 
Q 44 5 47.40625 5 
z
" id="STIXGeneral-Regular-117"/>
      <path d="M 26.59375 7.703125 
L 27.90625 6.59375 
Q 23.09375 -1 15.796875 -1 
Q 7 -1 7 11.703125 
L 7 41.796875 
L 1.703125 41.796875 
Q 1.296875 42.09375 1.296875 42.5 
Q 1.296875 43.296875 3 44.40625 
Q 6.796875 46.59375 12.703125 55.09375 
Q 12.90625 55.40625 13.65625 56.34375 
Q 14.40625 57.296875 14.703125 57.90625 
Q 15.40625 57.90625 15.40625 56.59375 
L 15.40625 45 
L 25.5 45 
L 25.5 41.796875 
L 15.40625 41.796875 
L 15.40625 13.203125 
Q 15.40625 8.40625 16.59375 6.296875 
Q 17.796875 4.203125 20.59375 4.203125 
Q 23.59375 4.203125 26.59375 7.703125 
z
" id="STIXGeneral-Regular-116"/>
      <path d="M 48.703125 0 
L 27.5 0 
L 27.5 1.5 
Q 31.90625 2 33.09375 3.5 
Q 34.296875 5 34.296875 10.203125 
L 34.296875 30 
Q 34.296875 40.59375 26.90625 40.59375 
Q 23.90625 40.59375 21.40625 39.1875 
Q 18.90625 37.796875 15.703125 34.296875 
L 15.703125 10.203125 
Q 15.703125 5 16.890625 3.5 
Q 18.09375 2 22.5 1.5 
L 22.5 0 
L 0.90625 0 
L 0.90625 1.5 
Q 5.203125 2.09375 6.25 3.5 
Q 7.296875 4.90625 7.296875 10.203125 
L 7.296875 57.296875 
Q 7.296875 60.5 6.34375 61.453125 
Q 5.40625 62.40625 2.203125 62.40625 
Q 1.296875 62.40625 1 62.296875 
L 1 63.90625 
L 3.703125 64.703125 
Q 11.40625 67 15.203125 68.296875 
L 15.703125 68 
L 15.703125 37.59375 
Q 19.203125 42.09375 22.59375 44.046875 
Q 26 46 30.40625 46 
Q 42.703125 46 42.703125 30.09375 
L 42.703125 10.203125 
Q 42.703125 5 43.640625 3.640625 
Q 44.59375 2.296875 48.703125 1.5 
z
" id="STIXGeneral-Regular-104"/>
      <path d="M 16 45.796875 
L 16 36.59375 
Q 19.796875 42 22.34375 44 
Q 24.90625 46 28 46 
Q 30.59375 46 32.046875 44.59375 
Q 33.5 43.203125 33.5 40.703125 
Q 33.5 38.59375 32.453125 37.390625 
Q 31.40625 36.203125 29.59375 36.203125 
Q 27.703125 36.203125 25.59375 38.203125 
Q 24 39.703125 23 39.703125 
Q 20.90625 39.703125 18.453125 36.796875 
Q 16 33.90625 16 31.5 
L 16 9 
Q 16 4.703125 17.703125 3.203125 
Q 19.40625 1.703125 24.5 1.5 
L 24.5 0 
L 0.5 0 
L 0.5 1.5 
Q 5.296875 2.40625 6.4375 3.5 
Q 7.59375 4.59375 7.59375 8.40625 
L 7.59375 33.40625 
Q 7.59375 36.703125 6.84375 38.046875 
Q 6.09375 39.40625 4.203125 39.40625 
Q 2.59375 39.40625 0.703125 39 
L 0.703125 40.59375 
Q 7 42.59375 15.5 46 
z
" id="STIXGeneral-Regular-114"/>
      <path d="M 18 63.203125 
Q 18 61 16.5 59.546875 
Q 15 58.09375 12.796875 58.09375 
Q 10.703125 58.09375 9.25 59.546875 
Q 7.796875 61 7.796875 63.203125 
Q 7.796875 65.296875 9.296875 66.796875 
Q 10.796875 68.296875 12.90625 68.296875 
Q 15.09375 68.296875 16.546875 66.796875 
Q 18 65.296875 18 63.203125 
z
M 25.296875 0 
L 1.59375 0 
L 1.59375 1.5 
Q 6.796875 1.796875 8.140625 3.296875 
Q 9.5 4.796875 9.5 10.40625 
L 9.5 33.09375 
Q 9.5 36.59375 8.796875 38 
Q 8.09375 39.40625 6.203125 39.40625 
Q 3.796875 39.40625 2 38.90625 
L 2 40.5 
L 17.5 46 
L 17.90625 45.59375 
L 17.90625 10.5 
Q 17.90625 4.90625 19.15625 3.40625 
Q 20.40625 1.90625 25.296875 1.5 
z
" id="STIXGeneral-Regular-105"/>
      <path d="M 47.5 45 
L 47.5 43.5 
Q 45.703125 43.296875 44.59375 42.1875 
Q 43.5 41.09375 42.5 38.40625 
L 27.5 -2.5 
Q 23.59375 -13.09375 19.640625 -17.4375 
Q 15.703125 -21.796875 10 -21.796875 
Q 6.796875 -21.796875 4.890625 -20.140625 
Q 3 -18.5 3 -16 
Q 3 -14.09375 4.25 -12.75 
Q 5.5 -11.40625 7.296875 -11.40625 
Q 10.203125 -11.40625 12.5 -12.703125 
Q 13.796875 -13.40625 15.09375 -13.40625 
Q 17.203125 -13.40625 20.09375 -9 
Q 21.5 -7 22.796875 -3.296875 
Q 24.09375 0.40625 24.09375 1.796875 
Q 24.09375 3.09375 19.90625 11.90625 
L 6.703125 40.09375 
Q 5.40625 43 1.40625 43.59375 
L 1.40625 45 
L 21.90625 45 
L 21.90625 43.5 
Q 18.703125 43.40625 17.453125 42.796875 
Q 16.203125 42.203125 16.203125 40.796875 
Q 16.203125 39.703125 17.5 36.703125 
L 28.703125 11.703125 
L 38.40625 39.296875 
Q 38.796875 40.203125 38.796875 41.09375 
Q 38.796875 43.5 34.203125 43.5 
L 34.203125 45 
z
" id="STIXGeneral-Regular-121"/>
      <path d="M 1.59375 66.203125 
L 28.59375 66.203125 
Q 48.09375 66.203125 58.59375 57.09375 
Q 68.5 48.59375 68.5 33.40625 
Q 68.5 15.09375 54.90625 6.40625 
Q 45 0 29.703125 0 
L 1.59375 0 
L 1.59375 1.90625 
Q 7.40625 2.296875 8.90625 3.9375 
Q 10.40625 5.59375 10.40625 11.5 
L 10.40625 55 
Q 10.40625 60.796875 8.90625 62.34375 
Q 7.40625 63.90625 1.59375 64.296875 
z
M 20.59375 58.296875 
L 20.59375 8.40625 
Q 20.59375 5.703125 21.546875 4.703125 
Q 22.5 3.703125 25.40625 3.703125 
Q 33.203125 3.703125 38 4.796875 
Q 42.796875 5.90625 47.203125 8.90625 
Q 57.59375 15.90625 57.59375 32.796875 
Q 57.59375 47.296875 48.09375 55.59375 
Q 43.796875 59.40625 38.6875 60.953125 
Q 33.59375 62.5 25.90625 62.5 
Q 23 62.5 21.796875 61.59375 
Q 20.59375 60.703125 20.59375 58.296875 
z
" id="STIXGeneral-Regular-68"/>
      <path d="M 15.59375 30.09375 
L 26 23.796875 
Q 31 20.796875 32.890625 18.1875 
Q 34.796875 15.59375 34.796875 11.5 
Q 34.796875 6.5 30.640625 2.75 
Q 26.5 -1 20.796875 -1 
Q 16.09375 -1 13.5 -0.09375 
Q 10.796875 0.796875 8.90625 0.796875 
Q 7.203125 0.796875 6.5 -0.40625 
L 5.203125 -0.40625 
L 5.203125 15.296875 
L 6.796875 15.296875 
Q 8.40625 8 11.40625 4.59375 
Q 14.40625 1.203125 19.5 1.203125 
Q 23.203125 1.203125 25.5 3.296875 
Q 27.796875 5.40625 27.796875 8.59375 
Q 27.796875 13.203125 22.5 16.09375 
L 17.09375 19.09375 
Q 5.09375 25.796875 5.09375 33.59375 
Q 5.09375 39.40625 8.84375 42.65625 
Q 12.59375 45.90625 18.90625 45.90625 
Q 23.296875 45.90625 25.59375 44.796875 
Q 27.40625 44 28.40625 44 
Q 29.09375 44 30 45 
L 31.09375 45 
L 31.59375 31.40625 
L 30.09375 31.40625 
Q 28.40625 38.203125 25.84375 40.953125 
Q 23.296875 43.703125 18.796875 43.703125 
Q 15.40625 43.703125 13.34375 42 
Q 11.296875 40.296875 11.296875 36.90625 
Q 11.296875 35.203125 12.4375 33.25 
Q 13.59375 31.296875 15.59375 30.09375 
z
" id="STIXGeneral-Regular-115"/>
      <path d="M 40.796875 16.40625 
L 42.40625 15.703125 
Q 36.40625 -1 21.5 -1 
Q 12.703125 -1 7.59375 5.140625 
Q 2.5 11.296875 2.5 21.703125 
Q 2.5 32.40625 8.203125 39.203125 
Q 13.90625 46 23.203125 46 
Q 32.203125 46 37.09375 39.09375 
Q 40 35.09375 40.5 27.703125 
L 9.703125 27.703125 
Q 10.09375 21.40625 10.9375 18.09375 
Q 11.796875 14.796875 14.296875 11.40625 
Q 18.5 5.90625 25.40625 5.90625 
Q 30.296875 5.90625 33.640625 8.296875 
Q 37 10.703125 40.796875 16.40625 
z
M 9.90625 30.90625 
L 30.296875 30.90625 
Q 29.40625 37.203125 27.34375 39.796875 
Q 25.296875 42.40625 20.5 42.40625 
Q 16.296875 42.40625 13.5 39.453125 
Q 10.703125 36.5 9.90625 30.90625 
z
" id="STIXGeneral-Regular-101"/>
      <path d="M 48.5 0 
L 27.703125 0 
L 27.796875 1.5 
Q 31.5 1.796875 32.75 3.640625 
Q 34 5.5 34 10.5 
L 34 30.40625 
Q 34 40.5 26.703125 40.5 
Q 24.203125 40.5 22 39.296875 
Q 19.796875 38.09375 16.40625 34.796875 
L 16.40625 7.203125 
Q 16.40625 4.203125 17.75 3 
Q 19.09375 1.796875 22.90625 1.5 
L 22.90625 0 
L 1.796875 0 
L 1.796875 1.5 
Q 5.59375 1.796875 6.796875 3.34375 
Q 8 4.90625 8 9.40625 
L 8 33.703125 
Q 8 37.40625 7.296875 38.796875 
Q 6.59375 40.203125 4.5 40.203125 
Q 2.5 40.203125 1.59375 39.796875 
L 1.59375 41.5 
Q 8.59375 43.5 15.296875 46 
L 16.09375 45.703125 
L 16.09375 37.90625 
L 16.203125 37.90625 
Q 23.296875 46 30.59375 46 
Q 36.296875 46 39.34375 42 
Q 42.40625 38 42.40625 30.59375 
L 42.40625 8.5 
Q 42.40625 4.5 43.59375 3.203125 
Q 44.796875 1.90625 48.5 1.5 
z
" id="STIXGeneral-Regular-110"/>
      <path d="M 49.09375 4.203125 
L 34.40625 -1 
L 34 -0.703125 
L 34 5.703125 
Q 29.203125 -1 21.203125 -1 
Q 12.90625 -1 7.796875 4.953125 
Q 2.703125 10.90625 2.703125 20.5 
Q 2.703125 31.09375 8.796875 38.546875 
Q 14.90625 46 23.5 46 
Q 28.90625 46 34 41.703125 
L 34 57.296875 
Q 34 60.40625 33.09375 61.40625 
Q 32.203125 62.40625 29.40625 62.40625 
Q 28 62.40625 27.203125 62.296875 
L 27.203125 63.90625 
Q 36.296875 66.296875 41.90625 68.296875 
L 42.40625 68.09375 
L 42.40625 11.40625 
Q 42.40625 7.90625 43.25 6.796875 
Q 44.09375 5.703125 46.796875 5.703125 
Q 47.40625 5.703125 49.09375 5.796875 
z
M 34 10.203125 
L 34 33.203125 
Q 34 37.203125 30.953125 40.203125 
Q 27.90625 43.203125 23.796875 43.203125 
Q 18.09375 43.203125 14.6875 38.09375 
Q 11.296875 33 11.296875 24.5 
Q 11.296875 15.296875 15.046875 9.75 
Q 18.796875 4.203125 25.09375 4.203125 
Q 29.796875 4.203125 32.5 7.40625 
Q 34 9.09375 34 10.203125 
z
" id="STIXGeneral-Regular-100"/>
      <path d="M 15.296875 68.09375 
L 15.296875 37.59375 
Q 16.90625 41.40625 20.546875 43.703125 
Q 24.203125 46 28.796875 46 
Q 36.703125 46 41.75 39.703125 
Q 46.796875 33.40625 46.796875 24 
Q 46.796875 13 40.09375 6 
Q 33.40625 -1 23.40625 -1 
Q 17.296875 -1 12.09375 1.046875 
Q 6.90625 3.09375 6.90625 5.59375 
L 6.90625 56.59375 
Q 6.90625 60.296875 6 61.34375 
Q 5.09375 62.40625 2 62.40625 
Q 1.296875 62.40625 0.296875 62.203125 
L 0.296875 63.90625 
L 3.296875 64.796875 
Q 13.5 67.90625 14.796875 68.296875 
z
M 15.296875 31.796875 
L 15.296875 7.40625 
Q 15.296875 5.09375 18.140625 3.640625 
Q 21 2.203125 25 2.203125 
Q 30.90625 2.203125 34.296875 6.5 
Q 38 11.09375 38 19.703125 
Q 38 29.5 34.09375 35 
Q 30.796875 39.703125 25.203125 39.703125 
Q 21.203125 39.703125 18.25 37.34375 
Q 15.296875 35 15.296875 31.796875 
z
" id="STIXGeneral-Regular-98"/>
      <path d="M 59.296875 49.203125 
L 56.90625 49.203125 
Q 55.296875 57.40625 52.390625 59.703125 
Q 49.5 62 41.5 62 
L 35.59375 62 
L 35.59375 11.09375 
Q 35.59375 5.40625 37.296875 3.796875 
Q 39 2.203125 45.203125 1.90625 
L 45.203125 0 
L 16 0 
L 16 1.90625 
Q 22.296875 2.296875 23.84375 4 
Q 25.40625 5.703125 25.40625 12.296875 
L 25.40625 62 
L 19.40625 62 
Q 11.296875 62 8.4375 59.640625 
Q 5.59375 57.296875 4.09375 49.203125 
L 1.703125 49.203125 
L 2.40625 66.203125 
L 58.59375 66.203125 
z
" id="STIXGeneral-Regular-84"/>
     </defs>
     <use xlink:href="#STIXGeneral-Regular-76"/>
     <use x="61.099991" xlink:href="#STIXGeneral-Regular-111"/>
     <use x="111.099976" xlink:href="#STIXGeneral-Regular-99"/>
     <use x="155.499969" xlink:href="#STIXGeneral-Regular-97"/>
     <use x="199.899963" xlink:href="#STIXGeneral-Regular-108"/>
     <use x="227.699951" xlink:href="#STIXGeneral-Regular-32"/>
     <use x="252.699936" xlink:href="#STIXGeneral-Regular-65"/>
     <use x="324.899918" xlink:href="#STIXGeneral-Regular-117"/>
     <use x="374.899902" xlink:href="#STIXGeneral-Regular-116"/>
     <use x="402.69989" xlink:href="#STIXGeneral-Regular-104"/>
     <use x="452.699875" xlink:href="#STIXGeneral-Regular-111"/>
     <use x="502.69986" xlink:href="#STIXGeneral-Regular-114"/>
     <use x="535.999847" xlink:href="#STIXGeneral-Regular-105"/>
     <use x="563.799835" xlink:href="#STIXGeneral-Regular-116"/>
     <use x="591.599823" xlink:href="#STIXGeneral-Regular-121"/>
     <use x="641.599808" xlink:href="#STIXGeneral-Regular-32"/>
     <use x="666.599792" xlink:href="#STIXGeneral-Regular-68"/>
     <use x="738.799774" xlink:href="#STIXGeneral-Regular-105"/>
     <use x="766.599762" xlink:href="#STIXGeneral-Regular-115"/>
     <use x="805.499756" xlink:href="#STIXGeneral-Regular-116"/>
     <use x="833.299744" xlink:href="#STIXGeneral-Regular-114"/>
     <use x="866.599731" xlink:href="#STIXGeneral-Regular-105"/>
     <use x="894.399719" xlink:href="#STIXGeneral-Regular-99"/>
     <use x="938.799713" xlink:href="#STIXGeneral-Regular-116"/>
     <use x="966.599701" xlink:href="#STIXGeneral-Regular-115"/>
     <use x="1005.499695" xlink:href="#STIXGeneral-Regular-32"/>
     <use x="1030.49968" xlink:href="#STIXGeneral-Regular-116"/>
     <use x="1058.299667" xlink:href="#STIXGeneral-Regular-104"/>
     <use x="1108.299652" xlink:href="#STIXGeneral-Regular-97"/>
     <use x="1152.699646" xlink:href="#STIXGeneral-Regular-116"/>
     <use x="1180.499634" xlink:href="#STIXGeneral-Regular-32"/>
     <use x="1205.499619" xlink:href="#STIXGeneral-Regular-97"/>
     <use x="1249.899612" xlink:href="#STIXGeneral-Regular-114"/>
     <use x="1283.1996" xlink:href="#STIXGeneral-Regular-101"/>
     <use x="1327.599594" xlink:href="#STIXGeneral-Regular-32"/>
     <use x="1352.599579" xlink:href="#STIXGeneral-Regular-105"/>
     <use x="1380.399567" xlink:href="#STIXGeneral-Regular-110"/>
     <use x="1430.399551" xlink:href="#STIXGeneral-Regular-116"/>
     <use x="1458.199539" xlink:href="#STIXGeneral-Regular-101"/>
     <use x="1502.599533" xlink:href="#STIXGeneral-Regular-114"/>
     <use x="1535.899521" xlink:href="#STIXGeneral-Regular-115"/>
     <use x="1574.799515" xlink:href="#STIXGeneral-Regular-101"/>
     <use x="1619.199509" xlink:href="#STIXGeneral-Regular-99"/>
     <use x="1663.599503" xlink:href="#STIXGeneral-Regular-116"/>
     <use x="1691.39949" xlink:href="#STIXGeneral-Regular-101"/>
     <use x="1735.799484" xlink:href="#STIXGeneral-Regular-100"/>
     <use x="1785.799469" xlink:href="#STIXGeneral-Regular-32"/>
     <use x="1810.799454" xlink:href="#STIXGeneral-Regular-98"/>
     <use x="1860.799438" xlink:href="#STIXGeneral-Regular-121"/>
     <use x="1910.799423" xlink:href="#STIXGeneral-Regular-32"/>
     <use x="1935.799408" xlink:href="#STIXGeneral-Regular-116"/>
     <use x="1963.599396" xlink:href="#STIXGeneral-Regular-104"/>
     <use x="2013.59938" xlink:href="#STIXGeneral-Regular-101"/>
     <use x="2057.999374" xlink:href="#STIXGeneral-Regular-32"/>
     <use x="2082.999359" xlink:href="#STIXGeneral-Regular-84"/>
     <use x="2144.09935" xlink:href="#STIXGeneral-Regular-114"/>
     <use x="2177.399338" xlink:href="#STIXGeneral-Regular-101"/>
     <use x="2221.799332" xlink:href="#STIXGeneral-Regular-110"/>
     <use x="2271.799316" xlink:href="#STIXGeneral-Regular-116"/>
    </g>
   </g>
  </g>
 </g>
 <defs>
  <clipPath id="pb0f21b7eb1">
   <rect height="543.6" width="529.764807" x="7.2" y="26.859375"/>
  </clipPath>
 </defs>
</svg>
