<?xml version="1.0" encoding="utf-8" standalone="no"?>
<!DOCTYPE svg PUBLIC "-//W3C//DTD SVG 1.1//EN"
  "http://www.w3.org/Graphics/SVG/1.1/DTD/svg11.dtd">
<!-- Created with matplotlib (https://matplotlib.org/) -->
<svg height="574.945pt" version="1.1" viewBox="0 0 544.164807 574.945" width="544.164807pt" xmlns="http://www.w3.org/2000/svg" xmlns:xlink="http://www.w3.org/1999/xlink">
 <metadata>
  <rdf:RDF xmlns:cc="http://creativecommons.org/ns#" xmlns:dc="http://purl.org/dc/elements/1.1/" xmlns:rdf="http://www.w3.org/1999/02/22-rdf-syntax-ns#">
   <cc:Work>
    <dc:type rdf:resource="http://purl.org/dc/dcmitype/StillImage"/>
    <dc:date>2021-07-03T19:07:59.001463</dc:date>
    <dc:format>image/svg+xml</dc:format>
    <dc:creator>
     <cc:Agent>
      <dc:title>Matplotlib v3.3.4, https://matplotlib.org/</dc:title>
     </cc:Agent>
    </dc:creator>
   </cc:Work>
  </rdf:RDF>
 </metadata>
 <defs>
  <style type="text/css">*{stroke-linecap:butt;stroke-linejoin:round;}</style>
 </defs>
 <g id="figure_1">
  <g id="patch_1">
   <path d="M 0 574.945 
L 544.164807 574.945 
L 544.164807 0 
L 0 0 
z
" style="fill:none;"/>
  </g>
  <g id="axes_1">
   <g id="PatchCollection_1">
    <path clip-path="url(#pb6ce04c8fa)" d="M 506.933066 231.927014 
L 506.661464 232.270921 
L 506.676711 232.206633 
L 506.933064 231.865275 
L 512.145512 224.924417 
L 510.187702 227.805935 
L 506.933066 231.927014 
" style="fill:#808080;stroke:#999999;stroke-width:0.2;"/>
    <path clip-path="url(#pb6ce04c8fa)" d="M 413.300809 55.699819 
L 418.518088 57.813182 
L 422.577076 56.660993 
L 426.23047 60.905178 
L 433.228123 59.409511 
L 439.750899 61.753245 
L 442.647607 53.874365 
L 442.676102 53.886559 
L 451.486194 57.313778 
L 463.816899 62.110552 
L 467.042882 65.277286 
L 467.677793 65.986682 
L 462.673273 69.891693 
L 451.486169 71.806837 
L 451.417814 71.818539 
L 443.5054 85.073112 
L 443.668312 95.515173 
L 443.741778 100.224006 
L 451.486205 122.577159 
L 454.959422 132.60209 
L 467.10543 150.961958 
L 477.574105 166.786374 
L 506.790239 204.769007 
L 506.933026 205.181969 
L 507.357217 206.408795 
L 512.635606 221.674715 
L 512.884589 223.83664 
L 512.152757 224.913755 
L 512.489566 222.654376 
L 512.019062 221.17786 
L 506.933146 217.079267 
L 500.564748 211.947158 
L 491.513602 209.461753 
L 475.860675 216.154467 
L 466.729131 214.485516 
L 459.136774 206.408798 
L 451.486199 198.270148 
L 445.890036 192.316972 
L 443.491072 192.491685 
L 442.735331 184.777917 
L 440.416682 186.097137 
L 440.127765 183.724472 
L 440.178449 183.613449 
L 439.553933 182.505783 
L 439.986094 183.918484 
L 439.092093 184.943195 
L 438.874045 184.856309 
L 440.527984 178.242402 
L 438.123811 175.650255 
L 438.331454 170.143546 
L 433.590471 170.033487 
L 426.442547 160.573689 
L 418.068674 163.343825 
L 418.686095 166.885755 
L 412.709743 167.72329 
L 413.612708 174.425978 
L 408.173911 177.236856 
L 407.495801 180.230158 
L 411.220169 180.453351 
L 407.624447 186.236439 
L 408.289841 189.894094 
L 408.271933 189.900988 
L 396.039435 192.031433 
L 385.776706 193.818818 
L 378.20433 188.369757 
L 369.585942 186.257808 
L 368.330345 187.855495 
L 371.743385 187.290764 
L 362.08621 190.149064 
L 357.727528 195.623041 
L 349.181784 194.968761 
L 354.717042 196.303374 
L 357.298915 197.675956 
L 355.213293 198.290603 
L 357.090998 198.309172 
L 357.228892 199.943527 
L 356.693723 203.932314 
L 353.14678 203.419716 
L 343.61409 210.730095 
L 344.005261 208.296535 
L 340.988673 209.849324 
L 330.21506 218.102861 
L 327.062077 216.712263 
L 312.024346 210.331158 
L 293.383374 211.54518 
L 283.270704 207.511965 
L 287.336344 202.815047 
L 288.377624 196.822651 
L 290.795947 195.936587 
L 295.009639 199.854755 
L 305.722792 198.761627 
L 305.657921 196.264572 
L 308.941218 197.526265 
L 309.780957 193.18283 
L 319.639696 191.947467 
L 318.252687 187.553868 
L 309.132495 186.65813 
L 306.71751 182.417271 
L 314.935308 177.445914 
L 313.626748 166.304395 
L 316.187568 161.849239 
L 312.410809 159.615286 
L 310.846924 147.887168 
L 315.262431 141.910847 
L 315.703524 138.864304 
L 310.463776 137.926412 
L 315.421295 129.367367 
L 315.309015 117.335126 
L 312.926466 114.892421 
L 314.421023 107.754737 
L 320.088241 105.194213 
L 322.81124 99.706073 
L 336.896128 97.335982 
L 337.19749 98.893205 
L 348.930047 95.232071 
L 349.711293 100.635346 
L 358.269518 101.682188 
L 357.501301 94.919052 
L 362.467392 92.850617 
L 365.053996 87.264891 
L 362.164933 84.855471 
L 370.247708 82.418558 
L 379.603796 74.978998 
L 386.643349 77.464662 
L 397.134435 70.404055 
L 399.17377 67.542458 
L 398.352888 64.717999 
L 403.971031 61.055174 
L 402.688826 52.865937 
L 405.320072 49.72433 
L 410.279511 48.854091 
L 413.300809 55.699819 
" style="fill:#808080;stroke:#999999;stroke-width:0.2;"/>
    <path clip-path="url(#pb6ce04c8fa)" d="M 389.913595 200.899102 
L 387.196699 202.177979 
L 383.84965 199.446117 
L 389.913595 200.899102 
" style="fill:#808080;stroke:#999999;stroke-width:0.2;"/>
    <path clip-path="url(#pb6ce04c8fa)" d="M 431.189159 191.050399 
L 439.088885 201.088618 
L 441.87463 206.395347 
L 448.365796 212.876833 
L 448.847065 213.488385 
L 443.13731 218.57444 
L 432.308266 222.151597 
L 429.285574 221.896254 
L 430.858329 227.73566 
L 424.66519 239.193192 
L 409.755534 238.117248 
L 407.468348 234.678143 
L 400.65948 242.714335 
L 396.288318 243.759791 
L 394.450547 246.394621 
L 407.354401 243.378038 
L 411.588894 247.674356 
L 412.253129 252.131175 
L 397.023825 256.399195 
L 397.505948 263.914447 
L 400.280492 265.58231 
L 385.650003 270.624647 
L 371.307572 271.309413 
L 371.951028 254.445253 
L 350.753144 252.647653 
L 348.55634 258.673058 
L 345.62348 259.21922 
L 345.092303 265.313387 
L 342.746898 266.134819 
L 342.821187 270.23347 
L 340.449998 272.838893 
L 326.692529 269.594157 
L 318.562346 271.575815 
L 317.802176 269.979513 
L 321.395955 266.948241 
L 314.812765 258.60765 
L 315.413249 256.082851 
L 312.10611 255.210949 
L 313.185403 249.955148 
L 322.601654 247.707061 
L 320.903865 244.512212 
L 322.700904 238.730759 
L 320.832068 238.09175 
L 321.348548 233.594162 
L 327.062077 216.712263 
L 330.21506 218.102861 
L 340.988673 209.849324 
L 344.005261 208.296535 
L 343.61409 210.730095 
L 353.14678 203.419716 
L 356.693723 203.932314 
L 357.228892 199.943527 
L 357.379033 201.723029 
L 358.648975 203.507072 
L 359.932081 205.309608 
L 357.979242 198.654036 
L 368.028435 193.638334 
L 373.281212 192.213342 
L 377.874967 198.638792 
L 389.464203 203.446323 
L 396.039376 198.798034 
L 399.016931 196.693066 
L 403.993672 196.85387 
L 404.152824 199.341452 
L 404.148544 196.85753 
L 412.846643 195.826176 
L 413.736149 199.139127 
L 414.174928 195.135669 
L 431.189159 191.050399 
" style="fill:#808080;stroke:#999999;stroke-width:0.2;"/>
    <path clip-path="url(#pb6ce04c8fa)" d="M 233.150896 444.957908 
L 230.447852 445.290854 
L 227.477574 450.223964 
L 226.657241 456.234957 
L 222.437171 457.430382 
L 219.077916 453.986038 
L 213.405715 454.792227 
L 211.769483 450.249462 
L 204.563318 448.849441 
L 201.687284 441.114323 
L 204.051821 438.160654 
L 210.74121 434.031821 
L 213.03171 425.248474 
L 216.89997 425.205792 
L 218.066581 429.905454 
L 229.107977 429.924024 
L 226.409116 434.470945 
L 234.053838 437.405213 
L 233.150896 444.957908 
" style="fill:#808080;stroke:#999999;stroke-width:0.2;"/>
    <path clip-path="url(#pb6ce04c8fa)" d="M 289.309985 429.834475 
L 286.809327 431.900166 
L 280.829089 431.714417 
L 278.982997 435.075891 
L 277.025723 433.545552 
L 275.982478 444.959017 
L 272.697809 448.388117 
L 265.652176 443.733354 
L 266.189182 441.340814 
L 268.415108 442.140932 
L 271.502648 439.682678 
L 259.346758 428.755206 
L 262.076683 424.270394 
L 259.25528 419.087485 
L 263.111882 420.095525 
L 267.338604 418.079195 
L 264.393264 416.887096 
L 263.213898 411.780709 
L 266.019232 408.651297 
L 271.064343 408.463331 
L 278.405235 412.100075 
L 276.552194 414.995513 
L 279.426559 415.683606 
L 278.670275 418.33149 
L 282.347784 419.157356 
L 282.905591 423.975141 
L 289.309985 429.834475 
" style="fill:#808080;stroke:#999999;stroke-width:0.2;"/>
    <path clip-path="url(#pb6ce04c8fa)" d="M 85.429642 387.317818 
L 87.194497 387.430121 
L 89.14041 393.395356 
L 95.777682 395.117542 
L 97.407262 400.223374 
L 94.582796 400.434067 
L 96.063501 408.361587 
L 99.82835 411.692269 
L 99.546967 415.751814 
L 102.593774 415.927308 
L 101.972215 419.48257 
L 104.322603 422.911393 
L 102.667514 423.109337 
L 103.951387 425.253186 
L 96.416156 428.57888 
L 94.795719 423.922177 
L 91.948807 422.394914 
L 88.789721 429.402834 
L 86.125764 429.291113 
L 85.242503 431.602141 
L 79.516768 420.98572 
L 81.0388 420.73761 
L 78.995579 410.274483 
L 81.411959 408.845915 
L 74.726456 392.362122 
L 82.199856 386.407946 
L 85.429642 387.317818 
" style="fill:#808080;stroke:#999999;stroke-width:0.2;"/>
    <path clip-path="url(#pb6ce04c8fa)" d="M 260.883465 447.524529 
L 260.857978 451.281615 
L 255.686164 453.414101 
L 246.093014 453.66221 
L 240.36065 451.297136 
L 242.315158 448.510093 
L 233.150896 444.957908 
L 234.053838 437.405213 
L 226.409116 434.470945 
L 229.107977 429.924024 
L 218.066581 429.905454 
L 216.89997 425.205792 
L 216.098495 420.084439 
L 229.036179 421.692105 
L 233.469149 420.025655 
L 236.171073 422.843185 
L 243.275497 421.219721 
L 247.918328 413.306891 
L 251.686218 423.75447 
L 250.844261 428.108159 
L 253.00031 430.065428 
L 252.976469 442.052769 
L 259.634816 444.238469 
L 260.883465 447.524529 
" style="fill:#808080;stroke:#999999;stroke-width:0.2;"/>
    <path clip-path="url(#pb6ce04c8fa)" d="M 204.051821 438.160654 
L 201.687284 441.114323 
L 204.563318 448.849441 
L 211.769483 450.249462 
L 213.405715 454.792227 
L 219.077916 453.986038 
L 222.437171 457.430382 
L 226.657241 456.234957 
L 227.477574 450.223964 
L 230.447852 445.290854 
L 233.150896 444.957908 
L 242.315158 448.510093 
L 240.36065 451.297136 
L 246.093014 453.66221 
L 244.988532 455.796941 
L 241.339276 455.352246 
L 240.201238 459.755546 
L 238.322138 459.187516 
L 232.188614 464.919331 
L 233.390975 466.042668 
L 227.909501 475.79772 
L 223.073976 475.487778 
L 223.315998 478.496323 
L 219.518736 480.412572 
L 220.830884 483.415575 
L 218.504611 486.584066 
L 213.744495 489.033173 
L 211.669113 486.407213 
L 202.734964 487.78423 
L 200.943205 491.726206 
L 204.320747 497.531771 
L 203.331561 501.046845 
L 194.471152 507.234995 
L 183.701151 507.791384 
L 183.374028 500.715257 
L 174.457068 497.568938 
L 181.425074 481.303044 
L 191.790852 482.274749 
L 191.178162 480.15917 
L 195.920815 476.557901 
L 195.351373 473.592869 
L 191.851289 471.480061 
L 196.52187 466.732146 
L 188.752365 459.766937 
L 176.88147 456.729263 
L 174.957181 457.935802 
L 174.25219 456.058353 
L 170.345391 458.237984 
L 166.475211 455.467293 
L 168.207355 447.280023 
L 165.877219 441.961281 
L 172.310437 442.833737 
L 173.45819 438.99902 
L 179.054983 439.104644 
L 182.679003 444.947348 
L 184.233723 431.992764 
L 192.258278 431.147746 
L 192.850167 434.339546 
L 199.178329 434.617061 
L 204.051821 438.160654 
" style="fill:#808080;stroke:#999999;stroke-width:0.2;"/>
    <path clip-path="url(#pb6ce04c8fa)" d="M 256.997764 472.805527 
L 254.315247 475.955477 
L 253.953174 481.248971 
L 246.412685 480.640172 
L 243.516125 487.541359 
L 243.996306 490.646382 
L 249.178909 492.001781 
L 252.454435 496.439475 
L 256.272521 492.244097 
L 259.240582 494.242385 
L 259.999381 495.623587 
L 253.407299 502.391712 
L 240.65728 508.830466 
L 242.260253 510.035618 
L 238.927353 514.298927 
L 231.191953 515.721121 
L 226.984638 512.078279 
L 222.995527 518.291373 
L 217.100687 514.092641 
L 213.933852 516.788195 
L 212.350834 514.151426 
L 205.914554 517.863584 
L 203.108946 517.350986 
L 195.973503 511.285366 
L 194.471152 507.234995 
L 203.331561 501.046845 
L 204.320747 497.531771 
L 200.943205 491.726206 
L 202.734964 487.78423 
L 211.669113 486.407213 
L 213.744495 489.033173 
L 218.504611 486.584066 
L 220.830884 483.415575 
L 219.518736 480.412572 
L 223.315998 478.496323 
L 223.073976 475.487778 
L 227.909501 475.79772 
L 233.390975 466.042668 
L 232.188614 464.919331 
L 238.322138 459.187516 
L 240.201238 459.755546 
L 241.339276 455.352246 
L 244.988532 455.796941 
L 246.093014 453.66221 
L 255.686164 453.414101 
L 254.593865 464.910739 
L 256.997764 472.805527 
" style="fill:#808080;stroke:#999999;stroke-width:0.2;"/>
    <path clip-path="url(#pb6ce04c8fa)" d="M 432.308266 222.151597 
L 440.459799 228.00292 
L 439.992373 230.794924 
L 443.049717 230.22659 
L 445.412312 235.794579 
L 450.409444 234.557276 
L 451.526979 236.286945 
L 446.176642 246.702928 
L 447.891048 246.937734 
L 449.240913 253.056845 
L 448.239818 260.944454 
L 452.307401 261.381916 
L 453.675827 266.250143 
L 458.874796 267.033633 
L 459.845947 272.864974 
L 463.126753 276.10001 
L 454.131321 274.862707 
L 447.974229 278.741214 
L 449.686144 284.932413 
L 445.458874 288.240091 
L 450.181846 296.198126 
L 440.979616 304.987542 
L 441.205271 309.333471 
L 437.524996 311.957214 
L 434.14606 308.134997 
L 431.123094 312.67305 
L 433.96059 317.857594 
L 429.9515 319.412323 
L 430.275857 325.199319 
L 432.99497 326.409738 
L 433.276102 329.910372 
L 435.311277 329.857131 
L 433.362323 330.49007 
L 437.187039 334.201119 
L 438.086667 338.987004 
L 433.401959 346.429918 
L 435.96582 355.952382 
L 430.413098 354.361318 
L 423.989846 341.251471 
L 418.51475 340.130878 
L 397.60241 342.653986 
L 397.294968 335.894204 
L 393.869721 333.870945 
L 378.975883 336.889745 
L 373.835956 332.991282 
L 369.07584 334.613082 
L 369.116596 337.621628 
L 365.787011 338.828998 
L 361.712776 333.138757 
L 353.206942 334.645537 
L 353.08968 337.772733 
L 345.305478 336.972087 
L 347.534718 328.964996 
L 344.916524 325.581072 
L 347.536112 320.728643 
L 349.88346 322.487967 
L 350.53302 319.166154 
L 349.905359 313.042608 
L 346.823898 311.279376 
L 348.147408 303.935739 
L 345.167986 300.71869 
L 342.096766 301.042795 
L 344.95424 296.611198 
L 342.107578 294.162395 
L 344.50206 290.709431 
L 342.289186 285.087121 
L 336.799667 281.564314 
L 336.283164 277.325118 
L 340.449998 272.838893 
L 342.821187 270.23347 
L 342.746898 266.134819 
L 345.092303 265.313387 
L 345.62348 259.21922 
L 348.55634 258.673058 
L 350.753144 252.647653 
L 371.951028 254.445253 
L 371.307572 271.309413 
L 385.650003 270.624647 
L 400.280492 265.58231 
L 397.505948 263.914447 
L 397.023825 256.399195 
L 412.253129 252.131175 
L 411.588894 247.674356 
L 407.354401 243.378038 
L 394.450547 246.394621 
L 396.288318 243.759791 
L 400.65948 242.714335 
L 407.468348 234.678143 
L 409.755534 238.117248 
L 424.66519 239.193192 
L 430.858329 227.73566 
L 429.285574 221.896254 
L 432.308266 222.151597 
" style="fill:#808080;stroke:#999999;stroke-width:0.2;"/>
    <path clip-path="url(#pb6ce04c8fa)" d="M 340.449998 272.838893 
L 336.283164 277.325118 
L 336.799667 281.564314 
L 342.289186 285.087121 
L 344.50206 290.709431 
L 342.107578 294.162395 
L 344.95424 296.611198 
L 342.096766 301.042795 
L 345.167986 300.71869 
L 348.147408 303.935739 
L 346.823898 311.279376 
L 349.905359 313.042608 
L 350.53302 319.166154 
L 349.88346 322.487967 
L 347.536112 320.728643 
L 344.916524 325.581072 
L 347.534718 328.964996 
L 345.305478 336.972087 
L 344.962537 352.559866 
L 343.636536 350.06281 
L 337.305609 351.160372 
L 333.838509 345.797007 
L 330.536102 347.921178 
L 323.740812 344.491219 
L 313.665012 347.58959 
L 313.918669 343.973355 
L 310.123052 341.09704 
L 302.815716 340.896879 
L 298.89646 333.326169 
L 285.002574 341.350998 
L 281.248559 344.778989 
L 265.425674 347.10637 
L 266.739218 341.583586 
L 264.657184 337.86921 
L 266.56705 333.669675 
L 271.686748 332.394651 
L 270.4026 330.90813 
L 273.158583 328.524736 
L 270.605535 325.630434 
L 271.186612 320.072423 
L 266.89447 318.175325 
L 278.055368 308.808955 
L 277.612903 307.159412 
L 274.696684 307.742712 
L 273.588842 304.092913 
L 278.034293 304.328855 
L 276.603213 300.294809 
L 279.437097 298.246329 
L 278.632285 293.795608 
L 282.113236 291.546134 
L 281.989323 288.412537 
L 288.473011 282.309778 
L 297.572379 280.921121 
L 297.676635 282.704003 
L 300.650525 282.323913 
L 304.044981 278.997111 
L 305.677601 268.255387 
L 311.640924 264.236058 
L 314.812765 258.60765 
L 321.395955 266.948241 
L 317.802176 269.979513 
L 318.562346 271.575815 
L 326.692529 269.594157 
L 340.449998 272.838893 
" style="fill:#808080;stroke:#999999;stroke-width:0.2;"/>
    <path clip-path="url(#pb6ce04c8fa)" d="M 263.213898 411.780709 
L 264.393264 416.887096 
L 267.338604 418.079195 
L 263.111882 420.095525 
L 259.25528 419.087485 
L 262.076683 424.270394 
L 259.346758 428.755206 
L 271.502648 439.682678 
L 268.415108 442.140932 
L 266.189182 441.340814 
L 265.652176 443.733354 
L 264.456192 446.476302 
L 260.883465 447.524529 
L 259.634816 444.238469 
L 252.976469 442.052769 
L 253.00031 430.065428 
L 250.844261 428.108159 
L 251.686218 423.75447 
L 247.918328 413.306891 
L 243.273554 404.872039 
L 242.489543 398.149091 
L 248.532961 401.509733 
L 251.989249 399.519178 
L 257.850533 402.060884 
L 262.436813 407.270927 
L 263.213898 411.780709 
" style="fill:#808080;stroke:#999999;stroke-width:0.2;"/>
    <path clip-path="url(#pb6ce04c8fa)" d="M 303.873637 418.263004 
L 302.133721 419.895087 
L 298.209184 418.917838 
L 297.616472 428.883029 
L 291.660921 427.5462 
L 289.309985 429.834475 
L 282.905591 423.975141 
L 282.347784 419.157356 
L 278.670275 418.33149 
L 279.426559 415.683606 
L 276.552194 414.995513 
L 278.405235 412.100075 
L 271.064343 408.463331 
L 271.08791 399.26026 
L 264.512743 399.141056 
L 261.893155 395.148583 
L 262.835207 389.144242 
L 274.199589 382.301562 
L 278.846603 383.364479 
L 278.713797 385.615615 
L 282.356104 387.299526 
L 280.595387 391.374314 
L 288.342148 390.054696 
L 287.484396 393.218476 
L 289.914903 397.778146 
L 299.497515 406.354957 
L 295.329013 410.649584 
L 298.767814 412.341837 
L 298.056172 415.204266 
L 303.873637 418.263004 
" style="fill:#808080;stroke:#999999;stroke-width:0.2;"/>
    <path clip-path="url(#pb6ce04c8fa)" d="M 365.787011 338.828998 
L 364.193182 345.66364 
L 360.1536 344.937854 
L 357.051636 348.890112 
L 354.106022 347.971343 
L 348.063129 356.770765 
L 356.588096 358.25202 
L 357.327465 370.703457 
L 354.218301 373.560343 
L 357.185813 377.091214 
L 354.899176 382.772033 
L 361.477955 392.405913 
L 358.073509 392.542578 
L 357.603591 394.706687 
L 351.429036 396.032125 
L 349.47094 403.99598 
L 344.360385 405.180596 
L 343.061266 409.908555 
L 341.514867 409.346041 
L 346.501759 420.238288 
L 343.176059 420.35364 
L 340.165551 426.347144 
L 338.814886 425.443924 
L 335.788857 423.193065 
L 339.592246 417.65864 
L 338.070785 412.956456 
L 330.274125 409.886632 
L 327.466003 411.47049 
L 321.683465 402.436263 
L 309.662301 417.913678 
L 303.873637 418.263004 
L 298.056172 415.204266 
L 298.767814 412.341837 
L 295.329013 410.649584 
L 299.497515 406.354957 
L 289.914903 397.778146 
L 287.484396 393.218476 
L 288.342148 390.054696 
L 280.595387 391.374314 
L 282.356104 387.299526 
L 278.713797 385.615615 
L 278.846603 383.364479 
L 274.199589 382.301562 
L 271.627134 378.771522 
L 277.31017 376.501263 
L 282.312857 377.327406 
L 280.387195 370.399335 
L 283.881176 366.713783 
L 276.022137 360.112561 
L 283.675453 352.682119 
L 286.60861 343.487918 
L 285.002574 341.350998 
L 298.89646 333.326169 
L 302.815716 340.896879 
L 310.123052 341.09704 
L 313.918669 343.973355 
L 313.665012 347.58959 
L 323.740812 344.491219 
L 330.536102 347.921178 
L 333.838509 345.797007 
L 337.305609 351.160372 
L 343.636536 350.06281 
L 344.962537 352.559866 
L 345.305478 336.972087 
L 353.08968 337.772733 
L 353.206942 334.645537 
L 361.712776 333.138757 
L 365.787011 338.828998 
" style="fill:#808080;stroke:#999999;stroke-width:0.2;"/>
    <path clip-path="url(#pb6ce04c8fa)" d="M 338.814886 425.443924 
L 336.302022 429.98364 
L 338.101278 431.216231 
L 331.062845 440.175044 
L 332.080032 442.463624 
L 321.14895 450.872146 
L 316.746198 451.577977 
L 319.119033 454.8657 
L 313.361708 461.829275 
L 310.094228 462.815115 
L 309.129455 469.017123 
L 301.795786 468.694155 
L 299.139328 470.634517 
L 292.523405 471.297111 
L 291.976958 467.999133 
L 284.05611 469.686924 
L 281.500844 473.959102 
L 275.446591 473.816339 
L 269.06661 479.1664 
L 263.794998 478.525147 
L 256.997764 472.805527 
L 254.593865 464.910739 
L 255.686164 453.414101 
L 260.857978 451.281615 
L 260.883465 447.524529 
L 264.456192 446.476302 
L 265.652176 443.733354 
L 272.697809 448.388117 
L 275.982478 444.959017 
L 277.025723 433.545552 
L 278.982997 435.075891 
L 280.829089 431.714417 
L 286.809327 431.900166 
L 289.309985 429.834475 
L 291.660921 427.5462 
L 297.616472 428.883029 
L 298.209184 418.917838 
L 302.133721 419.895087 
L 303.873637 418.263004 
L 309.662301 417.913678 
L 321.683465 402.436263 
L 327.466003 411.47049 
L 330.274125 409.886632 
L 338.070785 412.956456 
L 339.592246 417.65864 
L 335.788857 423.193065 
L 338.814886 425.443924 
" style="fill:#808080;stroke:#999999;stroke-width:0.2;"/>
    <path clip-path="url(#pb6ce04c8fa)" d="M 166.475211 455.467293 
L 170.345391 458.237984 
L 174.25219 456.058353 
L 174.957181 457.935802 
L 176.88147 456.729263 
L 188.752365 459.766937 
L 196.52187 466.732146 
L 191.851289 471.480061 
L 195.351373 473.592869 
L 195.920815 476.557901 
L 191.178162 480.15917 
L 191.790852 482.274749 
L 181.425074 481.303044 
L 174.457068 497.568938 
L 165.754677 495.421762 
L 162.64661 491.836569 
L 159.4659 493.389357 
L 158.26795 490.931103 
L 153.215913 490.511657 
L 151.167435 486.245022 
L 154.694126 481.887453 
L 153.126652 478.812917 
L 148.542589 477.958199 
L 146.423959 482.159979 
L 139.656944 476.60474 
L 137.404138 478.165843 
L 128.169746 474.441767 
L 125.075532 469.221442 
L 130.876653 461.898591 
L 131.019996 454.954417 
L 126.438128 455.075839 
L 122.867641 447.967839 
L 119.129124 448.279999 
L 116.696675 443.865585 
L 111.333012 440.503307 
L 124.455641 433.314322 
L 130.160279 436.183708 
L 132.694766 433.152713 
L 135.808091 433.607912 
L 137.042065 431.693076 
L 132.953406 426.400109 
L 145.152567 421.885891 
L 141.293176 416.701347 
L 140.613946 408.852567 
L 142.95382 408.855616 
L 145.839271 404.512458 
L 150.590244 404.849008 
L 153.817516 405.946597 
L 157.018181 410.927654 
L 159.078866 407.41344 
L 157.244409 402.869013 
L 160.153701 401.161516 
L 163.888058 403.471437 
L 163.280626 415.026028 
L 151.319922 422.083281 
L 150.780972 431.762365 
L 145.806561 438.655265 
L 151.122244 450.660039 
L 160.634979 450.823062 
L 166.475211 455.467293 
" style="fill:#808080;stroke:#999999;stroke-width:0.2;"/>
    <path clip-path="url(#pb6ce04c8fa)" d="M 174.457068 497.568938 
L 183.374028 500.715257 
L 183.701151 507.791384 
L 194.471152 507.234995 
L 195.973503 511.285366 
L 185.655659 520.51313 
L 178.287338 523.714631 
L 171.130523 522.467905 
L 168.882425 524.570735 
L 169.483754 528.209697 
L 174.970507 533.411453 
L 176.975738 532.891648 
L 175.34282 541.100259 
L 169.915132 542.040368 
L 167.44803 540.078111 
L 158.87648 542.098876 
L 157.280182 538.630946 
L 151.339328 535.686147 
L 146.495208 537.792857 
L 143.010096 543.035909 
L 139.302917 538.660602 
L 140.455105 533.644595 
L 134.836117 527.523267 
L 136.878217 525.07779 
L 134.450203 523.018501 
L 135.786193 520.979721 
L 131.52955 519.408612 
L 129.311945 521.048455 
L 127.591435 519.093681 
L 126.710094 512.461418 
L 134.897948 504.285207 
L 130.740258 502.551935 
L 135.763746 491.778061 
L 135.60543 489.286271 
L 129.557578 484.824187 
L 126.899725 477.19885 
L 128.169746 474.441767 
L 137.404138 478.165843 
L 139.656944 476.60474 
L 146.423959 482.159979 
L 148.542589 477.958199 
L 153.126652 478.812917 
L 154.694126 481.887453 
L 151.167435 486.245022 
L 153.215913 490.511657 
L 158.26795 490.931103 
L 159.4659 493.389357 
L 162.64661 491.836569 
L 165.754677 495.421762 
L 174.457068 497.568938 
" style="fill:#808080;stroke:#999999;stroke-width:0.2;"/>
    <path clip-path="url(#pb6ce04c8fa)" d="M 85.429642 387.317818 
L 82.199856 386.407946 
L 74.726456 392.362122 
L 81.411959 408.845915 
L 78.995579 410.274483 
L 81.0388 420.73761 
L 79.516768 420.98572 
L 68.768962 426.223506 
L 67.288257 429.990014 
L 69.847409 438.4964 
L 59.459162 435.759827 
L 54.315074 441.386572 
L 52.355857 439.993175 
L 48.384461 441.733653 
L 48.393628 448.261706 
L 36.907527 451.432415 
L 35.824645 453.652233 
L 31.280219 443.79685 
L 37.638324 432.200685 
L 39.858398 430.240368 
L 43.517072 431.095613 
L 42.183574 426.632697 
L 47.139698 429.288895 
L 48.385856 422.249075 
L 50.436551 421.243834 
L 48.222283 415.35648 
L 47.818905 412.462705 
L 50.169316 410.381243 
L 47.629297 406.792723 
L 48.226443 398.658668 
L 54.487516 397.574382 
L 60.01002 389.831503 
L 64.588551 390.786302 
L 72.058065 385.987945 
L 73.138181 387.264604 
L 79.863046 379.275251 
L 85.429642 387.317818 
" style="fill:#808080;stroke:#999999;stroke-width:0.2;"/>
    <path clip-path="url(#pb6ce04c8fa)" d="M 102.667514 423.109337 
L 111.058829 430.055728 
L 107.323375 438.969919 
L 111.333012 440.503307 
L 116.696675 443.865585 
L 119.129124 448.279999 
L 122.867641 447.967839 
L 126.438128 455.075839 
L 131.019996 454.954417 
L 130.876653 461.898591 
L 125.075532 469.221442 
L 128.169746 474.441767 
L 126.899725 477.19885 
L 129.557578 484.824187 
L 124.10022 488.590141 
L 115.783743 489.297912 
L 114.056285 496.374039 
L 110.953773 488.652806 
L 104.826328 486.9151 
L 106.736194 484.88796 
L 101.280231 480.90771 
L 100.56468 484.977509 
L 97.640964 486.338451 
L 91.577865 482.078191 
L 88.990163 494.359122 
L 85.778389 493.96074 
L 83.93008 497.355196 
L 78.487397 497.361293 
L 73.125152 502.81975 
L 67.612614 494.280383 
L 60.637956 494.844559 
L 47.088131 479.763836 
L 49.643122 478.009777 
L 48.503118 472.958849 
L 41.300312 468.180974 
L 45.536451 465.239805 
L 48.393628 448.261706 
L 48.384461 441.733653 
L 52.355857 439.993175 
L 54.315074 441.386572 
L 59.459162 435.759827 
L 69.847409 438.4964 
L 67.288257 429.990014 
L 68.768962 426.223506 
L 79.516768 420.98572 
L 85.242503 431.602141 
L 86.125764 429.291113 
L 88.789721 429.402834 
L 91.948807 422.394914 
L 94.795719 423.922177 
L 96.416156 428.57888 
L 103.951387 425.253186 
L 102.667514 423.109337 
" style="fill:#808080;stroke:#999999;stroke-width:0.2;"/>
   </g>
   <g id="PatchCollection_2">
    <path clip-path="url(#pb6ce04c8fa)" d="M 506.933066 231.927014 
L 506.661464 232.270921 
L 506.676711 232.206633 
L 506.933064 231.865275 
L 512.145512 224.924417 
L 510.187702 227.805935 
L 506.933066 231.927014 
" style="fill:#ff0000;stroke:#000000;stroke-width:0.2;"/>
    <path clip-path="url(#pb6ce04c8fa)" d="M 413.300809 55.699819 
L 418.518088 57.813182 
L 422.577076 56.660993 
L 426.23047 60.905178 
L 433.228123 59.409511 
L 439.750899 61.753245 
L 442.647607 53.874365 
L 442.676102 53.886559 
L 451.486194 57.313778 
L 463.816899 62.110552 
L 467.042882 65.277286 
L 467.677793 65.986682 
L 462.673273 69.891693 
L 451.486169 71.806837 
L 451.417814 71.818539 
L 443.5054 85.073112 
L 443.668312 95.515173 
L 443.741778 100.224006 
L 451.486205 122.577159 
L 454.959422 132.60209 
L 467.10543 150.961958 
L 477.574105 166.786374 
L 506.790239 204.769007 
L 506.933026 205.181969 
L 507.357217 206.408795 
L 512.635606 221.674715 
L 512.884589 223.83664 
L 512.152757 224.913755 
L 512.489566 222.654376 
L 512.019062 221.17786 
L 506.933146 217.079267 
L 500.564748 211.947158 
L 491.513602 209.461753 
L 475.860675 216.154467 
L 466.729131 214.485516 
L 459.136774 206.408798 
L 451.486199 198.270148 
L 445.890036 192.316972 
L 443.491072 192.491685 
L 442.735331 184.777917 
L 440.416682 186.097137 
L 440.127765 183.724472 
L 440.178449 183.613449 
L 439.553933 182.505783 
L 439.986094 183.918484 
L 439.092093 184.943195 
L 438.874045 184.856309 
L 440.527984 178.242402 
L 438.123811 175.650255 
L 438.331454 170.143546 
L 433.590471 170.033487 
L 426.442547 160.573689 
L 418.068674 163.343825 
L 418.686095 166.885755 
L 412.709743 167.72329 
L 413.612708 174.425978 
L 408.173911 177.236856 
L 407.495801 180.230158 
L 411.220169 180.453351 
L 407.624447 186.236439 
L 408.289841 189.894094 
L 408.271933 189.900988 
L 396.039435 192.031433 
L 385.776706 193.818818 
L 378.20433 188.369757 
L 369.585942 186.257808 
L 368.330345 187.855495 
L 371.743385 187.290764 
L 362.08621 190.149064 
L 357.727528 195.623041 
L 349.181784 194.968761 
L 354.717042 196.303374 
L 357.298915 197.675956 
L 355.213293 198.290603 
L 357.090998 198.309172 
L 357.228892 199.943527 
L 356.693723 203.932314 
L 353.14678 203.419716 
L 343.61409 210.730095 
L 344.005261 208.296535 
L 340.988673 209.849324 
L 330.21506 218.102861 
L 327.062077 216.712263 
L 312.024346 210.331158 
L 293.383374 211.54518 
L 283.270704 207.511965 
L 287.336344 202.815047 
L 288.377624 196.822651 
L 290.795947 195.936587 
L 295.009639 199.854755 
L 305.722792 198.761627 
L 305.657921 196.264572 
L 308.941218 197.526265 
L 309.780957 193.18283 
L 319.639696 191.947467 
L 318.252687 187.553868 
L 309.132495 186.65813 
L 306.71751 182.417271 
L 314.935308 177.445914 
L 313.626748 166.304395 
L 316.187568 161.849239 
L 312.410809 159.615286 
L 310.846924 147.887168 
L 315.262431 141.910847 
L 315.703524 138.864304 
L 310.463776 137.926412 
L 315.421295 129.367367 
L 315.309015 117.335126 
L 312.926466 114.892421 
L 314.421023 107.754737 
L 320.088241 105.194213 
L 322.81124 99.706073 
L 336.896128 97.335982 
L 337.19749 98.893205 
L 348.930047 95.232071 
L 349.711293 100.635346 
L 358.269518 101.682188 
L 357.501301 94.919052 
L 362.467392 92.850617 
L 365.053996 87.264891 
L 362.164933 84.855471 
L 370.247708 82.418558 
L 379.603796 74.978998 
L 386.643349 77.464662 
L 397.134435 70.404055 
L 399.17377 67.542458 
L 398.352888 64.717999 
L 403.971031 61.055174 
L 402.688826 52.865937 
L 405.320072 49.72433 
L 410.279511 48.854091 
L 413.300809 55.699819 
" style="fill:#ff0000;stroke:#000000;stroke-width:0.2;"/>
   </g>
   <g id="PatchCollection_3">
    <defs>
     <path d="M 102.667514 -151.835663 
L 111.058829 -144.889272 
L 107.323375 -135.975081 
L 111.333012 -134.441693 
L 116.696675 -131.079415 
L 119.129124 -126.665001 
L 122.867641 -126.977161 
L 126.438128 -119.869161 
L 131.019996 -119.990583 
L 130.876653 -113.046409 
L 125.075532 -105.723558 
L 128.169746 -100.503233 
L 126.899725 -97.74615 
L 129.557578 -90.120813 
L 124.10022 -86.354859 
L 115.783743 -85.647088 
L 114.056285 -78.570961 
L 110.953773 -86.292194 
L 104.826328 -88.0299 
L 106.736194 -90.05704 
L 101.280231 -94.03729 
L 100.56468 -89.967491 
L 97.640964 -88.606549 
L 91.577865 -92.866809 
L 88.990163 -80.585878 
L 85.778389 -80.98426 
L 83.93008 -77.589804 
L 78.487397 -77.583707 
L 73.125152 -72.12525 
L 67.612614 -80.664617 
L 60.637956 -80.100441 
L 47.088131 -95.181164 
L 49.643122 -96.935223 
L 48.503118 -101.986151 
L 41.300312 -106.764026 
L 45.536451 -109.705195 
L 48.393628 -126.683294 
L 48.384461 -133.211347 
L 52.355857 -134.951825 
L 54.315074 -133.558428 
L 59.459162 -139.185173 
L 69.847409 -136.4486 
L 67.288257 -144.954986 
L 68.768962 -148.721494 
L 79.516768 -153.95928 
L 85.242503 -143.342859 
L 86.125764 -145.653887 
L 88.789721 -145.542166 
L 91.948807 -152.550086 
L 94.795719 -151.022823 
L 96.416156 -146.36612 
L 103.951387 -149.691814 
L 102.667514 -151.835663 
" id="me0fdb2f5d8" style="stroke:#000000;stroke-width:0.2;"/>
    </defs>
    <g clip-path="url(#pb6ce04c8fa)">
     <use style="fill:#008000;stroke:#000000;stroke-width:0.2;" x="0" xlink:href="#me0fdb2f5d8" y="574.945"/>
    </g>
   </g>
   <g id="matplotlib.axis_1"/>
   <g id="matplotlib.axis_2"/>
   <g id="LineCollection_1">
    <path clip-path="url(#pb6ce04c8fa)" d="M 88.579685 402.638136 
L 82.932231 415.587522 
L 82.522656 421.384065 
L 85.046484 429.673002 
L 88.056037 435.867001 
L 91.547933 441.29583 
L 99.568006 450.194667 
L 109.627773 457.571929 
L 112.496906 460.886595 
L 119.318689 472.320283 
L 122.467115 475.344157 
L 137.630958 486.02342 
L 141.453833 487.360346 
L 150.069886 487.192731 
L 157.606229 487.487033 
L 169.509358 491.099488 
L 172.775813 489.204552 
L 178.893214 481.574204 
L 183.861953 476.883045 
L 196.315772 460.126971 
L 201.283559 456.332682 
L 206.643858 454.943459 
L 229.493912 457.761817 
L 234.634054 456.639333 
L 250.443669 446.981205 
L 256.556002 446.480734 
L 264.078742 440.2896 
L 278.373906 425.192327 
L 286.526568 422.080511 
L 293.357595 423.612216 
L 295.614275 423.507246 
L 298.104294 421.591406 
L 299.797485 415.707248 
L 308.078974 411.199803 
L 321.240829 395.506 
L 336.164707 383.221186 
L 341.156094 374.465275 
L 343.269168 364.563748 
L 346.744982 327.148207 
L 350.267164 316.894157 
L 350.838547 313.469752 
L 350.390353 311.054912 
L 347.289801 301.242389 
L 346.411306 299.939531 
L 345.181127 299.132211 
L 344.187401 298.094787 
L 344.016962 296.026475 
L 344.785388 292.686806 
L 344.995983 290.96344 
L 344.78825 289.347672 
L 342.233284 283.780086 
L 340.368614 280.811453 
L 339.788736 277.532339 
L 341.056681 270.958324 
L 343.45974 264.289446 
L 349.021388 252.66922 
L 350.69068 245.534611 
L 352.738304 207.887546 
L 356.044767 199.479483 
" style="fill:none;stroke:#add8e6;stroke-width:2;"/>
   </g>
   <g id="text_1">
    <!-- East Riding of Yorkshire -->
    <g transform="translate(304.150658 135.264251)scale(0.15 -0.15)">
     <defs>
      <path d="M 64.09375 20.796875 
L 60.09375 0 
L 1.59375 0 
L 1.59375 2.5 
Q 7 3.09375 8.703125 4.59375 
Q 10.40625 6.09375 10.40625 10.09375 
L 10.40625 58 
Q 10.40625 61.796875 8.59375 63.296875 
Q 6.796875 64.796875 1.59375 65.09375 
L 1.59375 67.59375 
L 59.296875 67.59375 
L 59.296875 47.5 
L 56.796875 47.5 
Q 55.09375 57.5 50.25 60.84375 
Q 45.40625 64.203125 33.09375 64.203125 
Q 29.296875 64.203125 27.9375 63 
Q 26.59375 61.796875 26.59375 58.796875 
L 26.59375 36.296875 
Q 34.703125 36.40625 38.296875 39.546875 
Q 41.90625 42.703125 42.796875 51.203125 
L 45.40625 51.203125 
L 45.40625 17.40625 
L 42.796875 17.40625 
Q 42.09375 26.203125 38.5 29.546875 
Q 34.90625 32.90625 26.59375 32.90625 
L 26.59375 8.703125 
Q 26.59375 5.5 28.34375 4.296875 
Q 30.09375 3.09375 34.90625 3.09375 
Q 46.59375 3.09375 53.09375 8.5 
Q 55.59375 10.5 57.296875 13.09375 
Q 59 15.703125 61.296875 20.796875 
z
" id="STIXGeneral-Bold-69"/>
      <path d="M 47.296875 6.40625 
L 48.796875 4.296875 
Q 43.5 -1.40625 37.59375 -1.40625 
Q 33.90625 -1.40625 32.046875 0.140625 
Q 30.203125 1.703125 29.40625 5.5 
Q 21.796875 -1.40625 13.5 -1.40625 
Q 8.5 -1.40625 5.5 1.25 
Q 2.5 3.90625 2.5 9.203125 
Q 2.5 15.90625 9.203125 20.40625 
Q 14.203125 23.703125 29.296875 28 
L 29.296875 34.796875 
Q 29.296875 39.703125 27.4375 41.890625 
Q 25.59375 44.09375 21.203125 44.09375 
Q 18.40625 44.09375 16.546875 43.09375 
Q 14.703125 42.09375 14.703125 40.40625 
Q 14.703125 39.296875 15.796875 38.09375 
Q 17.703125 35.796875 17.703125 33.90625 
Q 17.703125 31.296875 15.796875 29.59375 
Q 13.90625 27.90625 10.90625 27.90625 
Q 7.796875 27.90625 6.09375 29.703125 
Q 4.40625 31.5 4.40625 34.703125 
Q 4.40625 40.59375 9.65625 43.9375 
Q 14.90625 47.296875 23.5 47.296875 
Q 32.703125 47.296875 37.890625 43.796875 
Q 43.09375 40.296875 43.09375 33.90625 
L 43.09375 7.796875 
Q 43.09375 5 45.203125 5 
Q 45.90625 5 46.296875 5.40625 
z
M 29.296875 9.703125 
L 29.296875 24.5 
Q 17.09375 21.09375 17.09375 12.40625 
Q 17.09375 9.203125 18.546875 7.453125 
Q 20 5.703125 22.296875 5.703125 
Q 26.5 5.703125 29.296875 9.703125 
z
" id="STIXGeneral-Bold-97"/>
      <path d="M 34 32.59375 
L 31.5 32.59375 
Q 29.59375 38.203125 26.796875 40.796875 
Q 23.40625 44 19.296875 44 
Q 16.5 44 14.59375 42.34375 
Q 12.703125 40.703125 12.703125 38.203125 
Q 12.703125 35.59375 14.953125 33.546875 
Q 17.203125 31.5 22.296875 29.40625 
Q 29.796875 26.296875 32.9375 22.6875 
Q 36.09375 19.09375 36.09375 13.796875 
Q 36.09375 7.09375 31.796875 2.84375 
Q 27.5 -1.40625 20.703125 -1.40625 
Q 15.5 -1.40625 9.90625 0.90625 
Q 8.40625 1.5 7.59375 1.5 
Q 6.5 1.5 5 -1.296875 
L 2.5 -1.296875 
L 2.5 15.203125 
L 5.296875 15.203125 
Q 8.5 2 19 2 
Q 22.40625 2 24.453125 3.796875 
Q 26.5 5.59375 26.5 8.5 
Q 26.5 10.90625 24.296875 12.953125 
Q 22.09375 15 16.90625 17.203125 
Q 9.40625 20.40625 6.046875 24.046875 
Q 2.703125 27.703125 2.703125 32.703125 
Q 2.703125 39 7.140625 43.140625 
Q 11.59375 47.296875 18.40625 47.296875 
Q 21.796875 47.296875 26.203125 45.796875 
Q 28.40625 45.09375 29.296875 45.09375 
Q 31 45.09375 31.796875 47.09375 
L 34 47.09375 
z
" id="STIXGeneral-Bold-115"/>
      <path d="M 30.703125 11.203125 
L 33.203125 10.09375 
Q 30.09375 3.90625 26.75 1.34375 
Q 23.40625 -1.203125 18.40625 -1.203125 
Q 13.203125 -1.203125 10.203125 1.640625 
Q 7.203125 4.5 7.203125 9.5 
L 7.203125 41.703125 
L 1.90625 41.703125 
L 1.90625 44.40625 
Q 6.796875 47.703125 10.09375 51.546875 
Q 13.40625 55.40625 18.59375 63 
L 21.09375 63 
L 21.09375 46.09375 
L 30.59375 46.09375 
L 30.59375 41.703125 
L 21.09375 41.703125 
L 21.09375 11.90625 
Q 21.09375 5.90625 25 5.90625 
Q 27.90625 5.90625 30.703125 11.203125 
z
" id="STIXGeneral-Bold-116"/>
      <path id="STIXGeneral-Bold-32"/>
      <path d="M 71.59375 0 
L 51.09375 0 
L 30.40625 31.296875 
L 27.59375 31.296875 
L 27.59375 11.703125 
Q 27.59375 6.296875 29.046875 4.796875 
Q 30.5 3.296875 36.40625 2.5 
L 36.40625 0 
L 2.59375 0 
L 2.59375 2.5 
Q 8.5 3.203125 9.953125 4.703125 
Q 11.40625 6.203125 11.40625 12 
L 11.40625 55.09375 
Q 11.40625 61 9.75 62.84375 
Q 8.09375 64.703125 2.59375 65.09375 
L 2.59375 67.59375 
L 33.40625 67.59375 
Q 63 67.59375 63 50.40625 
Q 63 42.796875 58.5 38.59375 
Q 54.296875 34.796875 47.296875 32.90625 
L 67.203125 4.703125 
Q 68.703125 2.5 71.59375 2.5 
z
M 27.59375 59.703125 
L 27.59375 34.5 
Q 37.90625 34.59375 41.90625 37.59375 
Q 45.90625 40.59375 45.90625 49.40625 
Q 45.90625 57.296875 42.90625 60.75 
Q 39.90625 64.203125 32.90625 64.203125 
Q 30 64.203125 28.796875 63.203125 
Q 27.59375 62.203125 27.59375 59.703125 
z
" id="STIXGeneral-Bold-82"/>
      <path d="M 21.5 61.296875 
Q 21.5 58 19.25 55.796875 
Q 17 53.59375 13.703125 53.59375 
Q 10.40625 53.59375 8.203125 55.796875 
Q 6 58 6 61.296875 
Q 6 64.59375 8.25 66.84375 
Q 10.5 69.09375 13.90625 69.09375 
Q 17 69.09375 19.25 66.796875 
Q 21.5 64.5 21.5 61.296875 
z
M 25.59375 0 
L 1.59375 0 
L 1.59375 2.40625 
Q 5.09375 3.203125 6 4.296875 
Q 6.90625 5.40625 6.90625 8.796875 
L 6.90625 37.296875 
Q 6.90625 40.59375 5.84375 41.796875 
Q 4.796875 43 1.5 43.703125 
L 1.5 46.09375 
L 20.796875 46.09375 
L 20.796875 8.5 
Q 20.796875 5.296875 21.84375 4.046875 
Q 22.90625 2.796875 25.59375 2.40625 
z
" id="STIXGeneral-Bold-105"/>
      <path d="M 53.40625 2 
L 47.203125 1.203125 
Q 39 0.09375 33.90625 -1.296875 
L 33.90625 5.203125 
Q 30.40625 1.5 27.5 0.046875 
Q 24.59375 -1.40625 20.59375 -1.40625 
Q 12.703125 -1.40625 7.59375 5.1875 
Q 2.5 11.796875 2.5 22.09375 
Q 2.5 33 7.953125 40.140625 
Q 13.40625 47.296875 21.703125 47.296875 
Q 25.09375 47.296875 27.75 45.9375 
Q 30.40625 44.59375 33.59375 41.09375 
L 33.59375 59.40625 
Q 33.59375 62.90625 32.296875 63.84375 
Q 31 64.796875 26 65.203125 
L 26 67.59375 
L 47.5 67.59375 
L 47.5 10.09375 
Q 47.5 6.90625 48.75 5.703125 
Q 50 4.5 53.40625 4.296875 
z
M 33.59375 11.203125 
L 33.59375 35.5 
Q 32.5 38.40625 30.390625 40.046875 
Q 28.296875 41.703125 25.796875 41.703125 
Q 17.296875 41.703125 17.296875 22.90625 
Q 17.296875 4.203125 25.09375 4.203125 
Q 28.703125 4.203125 31.703125 7.90625 
Q 33.59375 10.40625 33.59375 11.203125 
z
" id="STIXGeneral-Bold-100"/>
      <path d="M 53.90625 0 
L 30.5 0 
L 30.5 2.40625 
Q 33 2.703125 34.046875 4.046875 
Q 35.09375 5.40625 35.09375 8.40625 
L 35.09375 32.09375 
Q 35.09375 40.59375 30 40.59375 
Q 26.40625 40.59375 23 37.203125 
Q 21.296875 35.5 21.296875 34.796875 
L 21.296875 8.40625 
Q 21.296875 5.5 22.34375 4.140625 
Q 23.40625 2.796875 26.09375 2.40625 
L 26.09375 0 
L 2.09375 0 
L 2.09375 2.40625 
Q 5.40625 3.09375 6.40625 4.296875 
Q 7.40625 5.5 7.40625 8.703125 
L 7.40625 37.59375 
Q 7.40625 40.796875 6.40625 42 
Q 5.40625 43.203125 2.09375 43.703125 
L 2.09375 46.09375 
L 21.203125 46.09375 
L 21.203125 38.59375 
L 21.296875 38.59375 
Q 26.203125 47.296875 35.5 47.296875 
Q 41.703125 47.296875 45.34375 43.4375 
Q 49 39.59375 49 33.09375 
L 49 8.40625 
Q 49 5 50 3.796875 
Q 51 2.59375 53.90625 2.40625 
z
" id="STIXGeneral-Bold-110"/>
      <path d="M 25.40625 6.796875 
L 30.59375 6.796875 
Q 38.703125 6.796875 43.5 3.546875 
Q 48.296875 0.296875 48.296875 -5.203125 
Q 48.296875 -12.296875 41.4375 -16.4375 
Q 34.59375 -20.59375 22.203125 -20.59375 
Q 2.796875 -20.59375 2.796875 -11.40625 
Q 2.796875 -5.296875 12.40625 -3.90625 
Q 7.703125 -2.203125 5.953125 -0.390625 
Q 4.203125 1.40625 4.203125 4.296875 
Q 4.203125 8.703125 7.09375 11.453125 
Q 10 14.203125 16.09375 16 
Q 10.59375 17.5 7.140625 21.59375 
Q 3.703125 25.703125 3.703125 31.203125 
Q 3.703125 38.5 9.34375 42.890625 
Q 15 47.296875 24 47.296875 
Q 29.203125 47.296875 35.203125 45.09375 
L 48.09375 45.09375 
L 48.09375 39.796875 
L 40.09375 39.796875 
Q 44.09375 36.203125 44.09375 30 
Q 44.09375 20.59375 34.90625 16.796875 
Q 32.5 15.796875 30.796875 15.59375 
Q 29.09375 15.40625 22.203125 15.40625 
Q 19.203125 15.40625 17.25 14.046875 
Q 15.296875 12.703125 15.296875 10.5 
Q 15.296875 8.40625 17.390625 7.59375 
Q 19.5 6.796875 25.40625 6.796875 
z
M 30.59375 31.203125 
Q 30.59375 38.203125 29.046875 41.203125 
Q 27.5 44.203125 23.890625 44.203125 
Q 20.296875 44.203125 18.84375 41.296875 
Q 17.40625 38.40625 17.40625 31.09375 
Q 17.40625 24.09375 18.90625 21.140625 
Q 20.40625 18.203125 24 18.203125 
Q 27.59375 18.203125 29.09375 21.140625 
Q 30.59375 24.09375 30.59375 31.203125 
z
M 31.5 -5.203125 
L 15.09375 -5.203125 
Q 13 -6.90625 12.296875 -8 
Q 11.59375 -9.09375 11.59375 -10.703125 
Q 11.59375 -17.40625 25 -17.40625 
Q 32.203125 -17.40625 36.296875 -15.546875 
Q 40.40625 -13.703125 40.40625 -10.796875 
Q 40.40625 -5.203125 31.5 -5.203125 
z
" id="STIXGeneral-Bold-103"/>
      <path d="M 47.59375 22.90625 
Q 47.59375 12.40625 41.140625 5.5 
Q 34.703125 -1.40625 25 -1.40625 
Q 15.5 -1.40625 9 5.4375 
Q 2.5 12.296875 2.5 22.796875 
Q 2.5 33.703125 8.953125 40.5 
Q 15.40625 47.296875 25.40625 47.296875 
Q 34.90625 47.296875 41.25 40.390625 
Q 47.59375 33.5 47.59375 22.90625 
z
M 32.90625 21.796875 
Q 32.90625 34.59375 31.203125 39.390625 
Q 29.5 44.203125 25.09375 44.203125 
Q 20.5 44.203125 18.84375 39.453125 
Q 17.203125 34.703125 17.203125 21.796875 
Q 17.203125 10.90625 19 6.296875 
Q 20.796875 1.703125 25.09375 1.703125 
Q 29.40625 1.703125 31.15625 6.140625 
Q 32.90625 10.59375 32.90625 21.796875 
z
" id="STIXGeneral-Bold-111"/>
      <path d="M 1.40625 46.09375 
L 7.09375 46.09375 
Q 7.09375 59.203125 11.09375 64 
Q 15.296875 69.09375 24.59375 69.09375 
Q 31 69.09375 34.953125 66.296875 
Q 38.90625 63.5 38.90625 59.09375 
Q 38.90625 56.296875 37.203125 54.5 
Q 35.5 52.703125 32.703125 52.703125 
Q 30.203125 52.703125 28.453125 54.390625 
Q 26.703125 56.09375 26.703125 58.40625 
Q 26.703125 60.40625 27.796875 62.046875 
Q 28.90625 63.703125 28.90625 64.09375 
Q 28.90625 66 26 66 
Q 23.296875 66 22.140625 64.25 
Q 21 62.5 21 58.09375 
L 21 46.09375 
L 29.59375 46.09375 
L 29.59375 41.703125 
L 21 41.703125 
L 21 10.703125 
Q 21 5.703125 22.5 4.09375 
Q 24 2.5 29.203125 2.40625 
L 29.203125 0 
L 1.40625 0 
L 1.40625 2.40625 
Q 4.796875 2.796875 5.9375 4.046875 
Q 7.09375 5.296875 7.09375 8.703125 
L 7.09375 41.703125 
L 1.40625 41.703125 
z
" id="STIXGeneral-Bold-102"/>
      <path d="M 69.90625 67.59375 
L 69.90625 65.09375 
Q 65 64.40625 63.09375 61.203125 
L 44 30.09375 
L 44 12.296875 
Q 44 6.5 45.640625 4.75 
Q 47.296875 3 53.203125 2.5 
L 53.203125 0 
L 18.5 0 
L 18.5 2.5 
Q 24.5 3 26.140625 5 
Q 27.796875 7 27.796875 12.796875 
L 27.796875 26.40625 
L 9.796875 59.203125 
Q 6.703125 64.796875 1.5 65.09375 
L 1.5 67.59375 
L 35 67.59375 
L 35 65.09375 
L 32.296875 64.90625 
Q 29.09375 64.703125 28 64.140625 
Q 26.90625 63.59375 26.90625 62 
Q 26.90625 60.703125 29.296875 56.09375 
L 41.296875 32.90625 
L 52.203125 50.703125 
Q 56.296875 57.5 56.296875 60.90625 
Q 56.296875 63.09375 54.640625 63.890625 
Q 53 64.703125 47.90625 65.09375 
L 47.90625 67.59375 
z
" id="STIXGeneral-Bold-89"/>
      <path d="M 21.796875 46.09375 
L 21.796875 37.90625 
Q 25.296875 43 28.390625 45.140625 
Q 31.5 47.296875 35.296875 47.296875 
Q 38.796875 47.296875 41.09375 45.046875 
Q 43.40625 42.796875 43.40625 39.40625 
Q 43.40625 36.40625 41.65625 34.5 
Q 39.90625 32.59375 37.09375 32.59375 
Q 33.40625 32.59375 31.09375 36.40625 
Q 29.703125 38.703125 28.296875 38.703125 
Q 25.703125 38.703125 23.953125 35.703125 
Q 22.203125 32.703125 22.203125 28.296875 
L 22.203125 10.59375 
Q 22.203125 5.796875 23.546875 4.25 
Q 24.90625 2.703125 29.40625 2.40625 
L 29.40625 0 
L 2.90625 0 
L 2.90625 2.40625 
Q 6.203125 3 7.25 4.140625 
Q 8.296875 5.296875 8.296875 8.40625 
L 8.296875 37.296875 
Q 8.296875 40.796875 7.1875 42 
Q 6.09375 43.203125 2.796875 43.703125 
L 2.796875 46.09375 
z
" id="STIXGeneral-Bold-114"/>
      <path d="M 54.296875 0 
L 30.90625 0 
L 30.90625 2.40625 
Q 35.09375 2.59375 35.09375 4.296875 
Q 35.09375 5.5 32.703125 8.796875 
L 23.203125 22.203125 
L 20.90625 19.796875 
L 20.90625 8.40625 
Q 20.90625 4.90625 21.75 3.90625 
Q 22.59375 2.90625 26.09375 2.40625 
L 26.09375 0 
L 2.203125 0 
L 2.203125 2.40625 
Q 7 2.796875 7 8.40625 
L 7 59.40625 
Q 7 64.796875 2.203125 65.203125 
L 2.203125 67.59375 
L 20.90625 67.59375 
L 20.90625 24.5 
L 33.703125 37.296875 
Q 35.796875 39.40625 35.796875 41.09375 
Q 35.796875 42.90625 32.296875 43.40625 
L 29.90625 43.796875 
L 29.90625 46.09375 
L 51.296875 46.09375 
L 51.296875 43.796875 
Q 46.59375 43.203125 43.25 40.890625 
Q 39.90625 38.59375 32.40625 30.703125 
L 51.796875 3.90625 
Q 52.90625 2.40625 54.296875 2.40625 
z
" id="STIXGeneral-Bold-107"/>
      <path d="M 53.40625 0 
L 30 0 
L 30 2.40625 
Q 32.5 2.703125 33.546875 4.046875 
Q 34.59375 5.40625 34.59375 8.5 
L 34.59375 30.90625 
Q 34.59375 36.296875 33.5 38.4375 
Q 32.40625 40.59375 29.5 40.59375 
Q 25.90625 40.59375 22.5 37.203125 
Q 20.796875 35.5 20.796875 34.796875 
L 20.796875 8.5 
Q 20.796875 5.40625 21.796875 4.09375 
Q 22.796875 2.796875 25.59375 2.40625 
L 25.59375 0 
L 1.59375 0 
L 1.59375 2.40625 
Q 5.203125 3.09375 6.046875 4 
Q 6.90625 4.90625 6.90625 8.90625 
L 6.90625 59.09375 
Q 6.90625 62.59375 6 63.546875 
Q 5.09375 64.5 1.5 65.203125 
L 1.5 67.59375 
L 20.796875 67.59375 
L 20.796875 39.59375 
Q 27.296875 47.296875 35.5 47.296875 
Q 41.5 47.296875 45 43.5 
Q 48.5 39.703125 48.5 33.703125 
L 48.5 8.703125 
Q 48.5 5.296875 49.640625 3.84375 
Q 50.796875 2.40625 53.40625 2.40625 
z
" id="STIXGeneral-Bold-104"/>
      <path d="M 40.296875 12.59375 
L 42.703125 11.203125 
Q 38.296875 4.203125 33.84375 1.390625 
Q 29.40625 -1.40625 22.90625 -1.40625 
Q 13.90625 -1.40625 8.203125 5.34375 
Q 2.5 12.09375 2.5 22.40625 
Q 2.5 33.59375 8.25 40.4375 
Q 14 47.296875 23.40625 47.296875 
Q 31.703125 47.296875 36.203125 42.296875 
Q 41.5 36.5 42.09375 24.5 
L 16.90625 24.5 
Q 17.203125 20.296875 17.703125 17.4375 
Q 18.203125 14.59375 19.390625 11.6875 
Q 20.59375 8.796875 22.9375 7.296875 
Q 25.296875 5.796875 28.796875 5.796875 
Q 32 5.796875 34.59375 7.34375 
Q 37.203125 8.90625 40.296875 12.59375 
z
M 29.796875 28.203125 
L 29.796875 30.296875 
Q 29.796875 37.59375 28.90625 39.5 
Q 27.703125 42 26.546875 43.09375 
Q 25.40625 44.203125 23.40625 44.203125 
Q 19.796875 44.203125 18.09375 40.546875 
Q 16.40625 36.90625 16.40625 28.203125 
z
" id="STIXGeneral-Bold-101"/>
     </defs>
     <use xlink:href="#STIXGeneral-Bold-69"/>
     <use x="66.699997" xlink:href="#STIXGeneral-Bold-97"/>
     <use x="116.699982" xlink:href="#STIXGeneral-Bold-115"/>
     <use x="155.599976" xlink:href="#STIXGeneral-Bold-116"/>
     <use x="188.899963" xlink:href="#STIXGeneral-Bold-32"/>
     <use x="213.899948" xlink:href="#STIXGeneral-Bold-82"/>
     <use x="286.09993" xlink:href="#STIXGeneral-Bold-105"/>
     <use x="313.899918" xlink:href="#STIXGeneral-Bold-100"/>
     <use x="369.499908" xlink:href="#STIXGeneral-Bold-105"/>
     <use x="397.299896" xlink:href="#STIXGeneral-Bold-110"/>
     <use x="452.899887" xlink:href="#STIXGeneral-Bold-103"/>
     <use x="502.899872" xlink:href="#STIXGeneral-Bold-32"/>
     <use x="527.899857" xlink:href="#STIXGeneral-Bold-111"/>
     <use x="577.899841" xlink:href="#STIXGeneral-Bold-102"/>
     <use x="611.199829" xlink:href="#STIXGeneral-Bold-32"/>
     <use x="636.199814" xlink:href="#STIXGeneral-Bold-89"/>
     <use x="708.399796" xlink:href="#STIXGeneral-Bold-111"/>
     <use x="758.39978" xlink:href="#STIXGeneral-Bold-114"/>
     <use x="802.799774" xlink:href="#STIXGeneral-Bold-107"/>
     <use x="858.399765" xlink:href="#STIXGeneral-Bold-115"/>
     <use x="897.299759" xlink:href="#STIXGeneral-Bold-104"/>
     <use x="952.89975" xlink:href="#STIXGeneral-Bold-105"/>
     <use x="980.699738" xlink:href="#STIXGeneral-Bold-114"/>
     <use x="1025.099731" xlink:href="#STIXGeneral-Bold-101"/>
    </g>
   </g>
   <g id="text_2">
    <!-- Stafford -->
    <g transform="translate(61.024071 463.569198)scale(0.15 -0.15)">
     <defs>
      <path d="M 48.40625 47.40625 
L 45.59375 47.40625 
Q 43 55.90625 38.59375 60.40625 
Q 33.203125 66 26.296875 66 
Q 21.203125 66 18.25 63.25 
Q 15.296875 60.5 15.296875 56.09375 
Q 15.296875 52.5 17.390625 50.203125 
Q 19.5 47.90625 25.59375 44.703125 
Q 27.40625 43.703125 32.453125 41.140625 
Q 37.5 38.59375 40.40625 37 
Q 45.296875 34.296875 48.296875 29.640625 
Q 51.296875 25 51.296875 19.40625 
Q 51.296875 9.90625 44.4375 4 
Q 37.59375 -1.90625 26.5 -1.90625 
Q 20.40625 -1.90625 13.5 0.5 
Q 10.40625 1.5 9.40625 1.5 
Q 8.203125 1.5 7.5 0.75 
Q 6.796875 0 6.40625 -1.90625 
L 3.5 -1.90625 
L 3.5 22.90625 
L 6.40625 22.90625 
Q 8.703125 13.296875 12.40625 8.59375 
Q 18.09375 1.40625 26.796875 1.40625 
Q 32.59375 1.40625 36 4.453125 
Q 39.40625 7.5 39.40625 12.703125 
Q 39.40625 17.5 33.703125 21.5 
Q 31.203125 23.296875 21.5 28 
Q 12.59375 32.296875 8.5 37 
Q 4.40625 41.703125 4.40625 49 
Q 4.40625 58.5 10.25 63.796875 
Q 16.09375 69.09375 26.296875 69.09375 
Q 31.796875 69.09375 38 66.796875 
Q 41 65.796875 42.203125 65.796875 
Q 43.59375 65.796875 44.25 66.5 
Q 44.90625 67.203125 45.40625 69.203125 
L 48.40625 69.203125 
z
" id="STIXGeneral-Bold-83"/>
     </defs>
     <use xlink:href="#STIXGeneral-Bold-83"/>
     <use x="55.599991" xlink:href="#STIXGeneral-Bold-116"/>
     <use x="88.899979" xlink:href="#STIXGeneral-Bold-97"/>
     <use x="138.899963" xlink:href="#STIXGeneral-Bold-102"/>
     <use x="172.199951" xlink:href="#STIXGeneral-Bold-102"/>
     <use x="205.499939" xlink:href="#STIXGeneral-Bold-111"/>
     <use x="255.499924" xlink:href="#STIXGeneral-Bold-114"/>
     <use x="299.899918" xlink:href="#STIXGeneral-Bold-100"/>
    </g>
   </g>
   <g id="text_3">
    <!-- Distance between East Riding of Yorkshire and Stafford is 160 km. -->
    <g style="fill:#323034;" transform="translate(7.2 18.145)scale(0.16 -0.16)">
     <defs>
      <path d="M 1.59375 66.203125 
L 28.59375 66.203125 
Q 48.09375 66.203125 58.59375 57.09375 
Q 68.5 48.59375 68.5 33.40625 
Q 68.5 15.09375 54.90625 6.40625 
Q 45 0 29.703125 0 
L 1.59375 0 
L 1.59375 1.90625 
Q 7.40625 2.296875 8.90625 3.9375 
Q 10.40625 5.59375 10.40625 11.5 
L 10.40625 55 
Q 10.40625 60.796875 8.90625 62.34375 
Q 7.40625 63.90625 1.59375 64.296875 
z
M 20.59375 58.296875 
L 20.59375 8.40625 
Q 20.59375 5.703125 21.546875 4.703125 
Q 22.5 3.703125 25.40625 3.703125 
Q 33.203125 3.703125 38 4.796875 
Q 42.796875 5.90625 47.203125 8.90625 
Q 57.59375 15.90625 57.59375 32.796875 
Q 57.59375 47.296875 48.09375 55.59375 
Q 43.796875 59.40625 38.6875 60.953125 
Q 33.59375 62.5 25.90625 62.5 
Q 23 62.5 21.796875 61.59375 
Q 20.59375 60.703125 20.59375 58.296875 
z
" id="STIXGeneral-Regular-68"/>
      <path d="M 18 63.203125 
Q 18 61 16.5 59.546875 
Q 15 58.09375 12.796875 58.09375 
Q 10.703125 58.09375 9.25 59.546875 
Q 7.796875 61 7.796875 63.203125 
Q 7.796875 65.296875 9.296875 66.796875 
Q 10.796875 68.296875 12.90625 68.296875 
Q 15.09375 68.296875 16.546875 66.796875 
Q 18 65.296875 18 63.203125 
z
M 25.296875 0 
L 1.59375 0 
L 1.59375 1.5 
Q 6.796875 1.796875 8.140625 3.296875 
Q 9.5 4.796875 9.5 10.40625 
L 9.5 33.09375 
Q 9.5 36.59375 8.796875 38 
Q 8.09375 39.40625 6.203125 39.40625 
Q 3.796875 39.40625 2 38.90625 
L 2 40.5 
L 17.5 46 
L 17.90625 45.59375 
L 17.90625 10.5 
Q 17.90625 4.90625 19.15625 3.40625 
Q 20.40625 1.90625 25.296875 1.5 
z
" id="STIXGeneral-Regular-105"/>
      <path d="M 15.59375 30.09375 
L 26 23.796875 
Q 31 20.796875 32.890625 18.1875 
Q 34.796875 15.59375 34.796875 11.5 
Q 34.796875 6.5 30.640625 2.75 
Q 26.5 -1 20.796875 -1 
Q 16.09375 -1 13.5 -0.09375 
Q 10.796875 0.796875 8.90625 0.796875 
Q 7.203125 0.796875 6.5 -0.40625 
L 5.203125 -0.40625 
L 5.203125 15.296875 
L 6.796875 15.296875 
Q 8.40625 8 11.40625 4.59375 
Q 14.40625 1.203125 19.5 1.203125 
Q 23.203125 1.203125 25.5 3.296875 
Q 27.796875 5.40625 27.796875 8.59375 
Q 27.796875 13.203125 22.5 16.09375 
L 17.09375 19.09375 
Q 5.09375 25.796875 5.09375 33.59375 
Q 5.09375 39.40625 8.84375 42.65625 
Q 12.59375 45.90625 18.90625 45.90625 
Q 23.296875 45.90625 25.59375 44.796875 
Q 27.40625 44 28.40625 44 
Q 29.09375 44 30 45 
L 31.09375 45 
L 31.59375 31.40625 
L 30.09375 31.40625 
Q 28.40625 38.203125 25.84375 40.953125 
Q 23.296875 43.703125 18.796875 43.703125 
Q 15.40625 43.703125 13.34375 42 
Q 11.296875 40.296875 11.296875 36.90625 
Q 11.296875 35.203125 12.4375 33.25 
Q 13.59375 31.296875 15.59375 30.09375 
z
" id="STIXGeneral-Regular-115"/>
      <path d="M 26.59375 7.703125 
L 27.90625 6.59375 
Q 23.09375 -1 15.796875 -1 
Q 7 -1 7 11.703125 
L 7 41.796875 
L 1.703125 41.796875 
Q 1.296875 42.09375 1.296875 42.5 
Q 1.296875 43.296875 3 44.40625 
Q 6.796875 46.59375 12.703125 55.09375 
Q 12.90625 55.40625 13.65625 56.34375 
Q 14.40625 57.296875 14.703125 57.90625 
Q 15.40625 57.90625 15.40625 56.59375 
L 15.40625 45 
L 25.5 45 
L 25.5 41.796875 
L 15.40625 41.796875 
L 15.40625 13.203125 
Q 15.40625 8.40625 16.59375 6.296875 
Q 17.796875 4.203125 20.59375 4.203125 
Q 23.59375 4.203125 26.59375 7.703125 
z
" id="STIXGeneral-Regular-116"/>
      <path d="M 44.203125 6.59375 
L 44.203125 3.796875 
Q 40.40625 -1 35.203125 -1 
Q 29.5 -1 28.796875 6.296875 
L 28.703125 6.296875 
Q 22.296875 -1 14.203125 -1 
Q 9.5 -1 6.59375 1.75 
Q 3.703125 4.5 3.703125 9.40625 
Q 3.703125 16.40625 10.703125 21.09375 
Q 15.5 24.296875 28.703125 29.203125 
L 28.703125 34.59375 
Q 28.703125 39.09375 26.546875 41.34375 
Q 24.40625 43.59375 20.90625 43.59375 
Q 17.90625 43.59375 15.90625 42.140625 
Q 13.90625 40.703125 13.90625 38.703125 
Q 13.90625 37.796875 14.203125 36.6875 
Q 14.5 35.59375 14.5 34.5 
Q 14.5 33 13.140625 31.703125 
Q 11.796875 30.40625 9.90625 30.40625 
Q 8.203125 30.40625 6.890625 31.703125 
Q 5.59375 33 5.59375 35 
Q 5.59375 39.796875 10.703125 43 
Q 15.40625 46 22.203125 46 
Q 30.296875 46 34 41.5 
Q 35.796875 39.40625 36.296875 37.25 
Q 36.796875 35.09375 36.796875 30.40625 
L 36.796875 11.296875 
Q 36.796875 4.703125 39.90625 4.703125 
Q 41.90625 4.703125 44.203125 6.59375 
z
M 28.703125 12.703125 
L 28.703125 26.796875 
Q 19.5 23.59375 15.90625 20.203125 
Q 12.5 17.09375 12.5 12.5 
Q 12.5 8.703125 14.390625 6.75 
Q 16.296875 4.796875 19.40625 4.796875 
Q 22.703125 4.796875 25.203125 6.40625 
Q 27.296875 7.90625 28 9.203125 
Q 28.703125 10.5 28.703125 12.703125 
z
" id="STIXGeneral-Regular-97"/>
      <path d="M 48.5 0 
L 27.703125 0 
L 27.796875 1.5 
Q 31.5 1.796875 32.75 3.640625 
Q 34 5.5 34 10.5 
L 34 30.40625 
Q 34 40.5 26.703125 40.5 
Q 24.203125 40.5 22 39.296875 
Q 19.796875 38.09375 16.40625 34.796875 
L 16.40625 7.203125 
Q 16.40625 4.203125 17.75 3 
Q 19.09375 1.796875 22.90625 1.5 
L 22.90625 0 
L 1.796875 0 
L 1.796875 1.5 
Q 5.59375 1.796875 6.796875 3.34375 
Q 8 4.90625 8 9.40625 
L 8 33.703125 
Q 8 37.40625 7.296875 38.796875 
Q 6.59375 40.203125 4.5 40.203125 
Q 2.5 40.203125 1.59375 39.796875 
L 1.59375 41.5 
Q 8.59375 43.5 15.296875 46 
L 16.09375 45.703125 
L 16.09375 37.90625 
L 16.203125 37.90625 
Q 23.296875 46 30.59375 46 
Q 36.296875 46 39.34375 42 
Q 42.40625 38 42.40625 30.59375 
L 42.40625 8.5 
Q 42.40625 4.5 43.59375 3.203125 
Q 44.796875 1.90625 48.5 1.5 
z
" id="STIXGeneral-Regular-110"/>
      <path d="M 39.796875 15.59375 
L 41.203125 14.703125 
Q 36.90625 6.296875 33 3.203125 
Q 27.90625 -1 21.5 -1 
Q 13.203125 -1 7.84375 5.25 
Q 2.5 11.5 2.5 21.203125 
Q 2.5 33.90625 10.90625 40.90625 
Q 17.09375 46 24.40625 46 
Q 30.703125 46 35.25 42.953125 
Q 39.796875 39.90625 39.796875 35.703125 
Q 39.796875 34 38.390625 32.75 
Q 37 31.5 35.09375 31.5 
Q 31.59375 31.5 30.296875 36.09375 
L 29.703125 38.296875 
Q 28.90625 41.09375 27.703125 42.09375 
Q 26.5 43.09375 23.796875 43.09375 
Q 17.703125 43.09375 13.953125 38.296875 
Q 10.203125 33.5 10.203125 25.703125 
Q 10.203125 17.09375 14.5 11.640625 
Q 18.796875 6.203125 25.703125 6.203125 
Q 30 6.203125 33.09375 8.25 
Q 36.203125 10.296875 39.796875 15.59375 
z
" id="STIXGeneral-Regular-99"/>
      <path d="M 40.796875 16.40625 
L 42.40625 15.703125 
Q 36.40625 -1 21.5 -1 
Q 12.703125 -1 7.59375 5.140625 
Q 2.5 11.296875 2.5 21.703125 
Q 2.5 32.40625 8.203125 39.203125 
Q 13.90625 46 23.203125 46 
Q 32.203125 46 37.09375 39.09375 
Q 40 35.09375 40.5 27.703125 
L 9.703125 27.703125 
Q 10.09375 21.40625 10.9375 18.09375 
Q 11.796875 14.796875 14.296875 11.40625 
Q 18.5 5.90625 25.40625 5.90625 
Q 30.296875 5.90625 33.640625 8.296875 
Q 37 10.703125 40.796875 16.40625 
z
M 9.90625 30.90625 
L 30.296875 30.90625 
Q 29.40625 37.203125 27.34375 39.796875 
Q 25.296875 42.40625 20.5 42.40625 
Q 16.296875 42.40625 13.5 39.453125 
Q 10.703125 36.5 9.90625 30.90625 
z
" id="STIXGeneral-Regular-101"/>
      <path id="STIXGeneral-Regular-32"/>
      <path d="M 15.296875 68.09375 
L 15.296875 37.59375 
Q 16.90625 41.40625 20.546875 43.703125 
Q 24.203125 46 28.796875 46 
Q 36.703125 46 41.75 39.703125 
Q 46.796875 33.40625 46.796875 24 
Q 46.796875 13 40.09375 6 
Q 33.40625 -1 23.40625 -1 
Q 17.296875 -1 12.09375 1.046875 
Q 6.90625 3.09375 6.90625 5.59375 
L 6.90625 56.59375 
Q 6.90625 60.296875 6 61.34375 
Q 5.09375 62.40625 2 62.40625 
Q 1.296875 62.40625 0.296875 62.203125 
L 0.296875 63.90625 
L 3.296875 64.796875 
Q 13.5 67.90625 14.796875 68.296875 
z
M 15.296875 31.796875 
L 15.296875 7.40625 
Q 15.296875 5.09375 18.140625 3.640625 
Q 21 2.203125 25 2.203125 
Q 30.90625 2.203125 34.296875 6.5 
Q 38 11.09375 38 19.703125 
Q 38 29.5 34.09375 35 
Q 30.796875 39.703125 25.203125 39.703125 
Q 21.203125 39.703125 18.25 37.34375 
Q 15.296875 35 15.296875 31.796875 
z
" id="STIXGeneral-Regular-98"/>
      <path d="M 69.40625 45 
L 69.40625 43.5 
Q 67.90625 43 67.203125 42.046875 
Q 66.5 41.09375 65.296875 38.09375 
L 51.5 3.5 
Q 49.5 -1.40625 48.703125 -1.40625 
Q 48.203125 -1.40625 47.84375 -0.75 
Q 47.5 -0.09375 46.296875 2.90625 
L 37.203125 26.5 
L 26 2.5 
Q 24.203125 -1.40625 23.5 -1.40625 
Q 22.59375 -1.40625 20.90625 3 
L 7.40625 37.203125 
Q 5.90625 41.09375 4.90625 42.1875 
Q 3.90625 43.296875 2.09375 43.5 
L 2.09375 45 
L 20.09375 45 
L 20.09375 43.5 
Q 17.5 43.203125 16.5 42.5 
Q 15.5 41.796875 15.5 40.203125 
Q 15.5 38.703125 16.09375 37.203125 
L 26 11.09375 
L 35.09375 31 
L 33.09375 36.59375 
Q 31.703125 40.59375 30.34375 41.890625 
Q 29 43.203125 26.203125 43.5 
L 26.203125 45 
L 46.5 45 
L 46.5 43.5 
Q 43 43 41.84375 42.296875 
Q 40.703125 41.59375 40.703125 40 
Q 40.703125 38.40625 42.40625 34 
L 50.796875 11.59375 
L 59.796875 33.796875 
Q 61.5 38 61.5 40.5 
Q 61.5 41.703125 60.546875 42.34375 
Q 59.59375 43 57.09375 43.5 
L 57.09375 45 
z
" id="STIXGeneral-Regular-119"/>
      <path d="M 59.703125 16.90625 
L 55.09375 0 
L 1.203125 0 
L 1.203125 1.90625 
Q 6.90625 2.296875 8.40625 3.9375 
Q 9.90625 5.59375 9.90625 11.40625 
L 9.90625 55 
Q 9.90625 60.59375 8.34375 62.296875 
Q 6.796875 64 1.203125 64.296875 
L 1.203125 66.203125 
L 54.203125 66.203125 
L 54.59375 51.90625 
L 52.09375 51.90625 
Q 51 58.59375 48.203125 60.5 
Q 45.40625 62.40625 36.703125 62.40625 
L 23.59375 62.40625 
Q 21.40625 62.40625 20.75 61.75 
Q 20.09375 61.09375 20.09375 58.796875 
L 20.09375 36.796875 
L 35.203125 36.796875 
Q 41.5 36.796875 43.546875 38.59375 
Q 45.59375 40.40625 46.5 46.40625 
L 48.796875 46.40625 
L 48.796875 23 
L 46.5 23 
Q 45.59375 29.296875 43.59375 31 
Q 41.59375 32.703125 35.203125 32.703125 
L 20.09375 32.703125 
L 20.09375 8.40625 
Q 20.09375 5.40625 22.1875 4.546875 
Q 24.296875 3.703125 30.203125 3.703125 
L 33.796875 3.703125 
Q 44.5 3.703125 49 6.296875 
Q 53.5 8.90625 56.90625 16.90625 
z
" id="STIXGeneral-Regular-69"/>
      <path d="M 66 0 
L 49.796875 0 
L 26 30.796875 
L 20.40625 30.59375 
L 20.40625 11.203125 
Q 20.40625 5.5 21.953125 3.890625 
Q 23.5 2.296875 29.296875 1.90625 
L 29.296875 0 
L 1.703125 0 
L 1.703125 1.90625 
Q 7.40625 2.40625 8.796875 4.09375 
Q 10.203125 5.796875 10.203125 12.40625 
L 10.203125 55.09375 
Q 10.203125 60.703125 8.796875 62.296875 
Q 7.40625 63.90625 1.703125 64.296875 
L 1.703125 66.203125 
L 28.90625 66.203125 
Q 42.59375 66.203125 49.796875 60.296875 
Q 54.703125 56.296875 54.703125 48.296875 
Q 54.703125 34.703125 36.59375 31.90625 
L 56.59375 6.59375 
Q 58.703125 4 60.59375 3.09375 
Q 62.5 2.203125 66 1.90625 
z
M 20.40625 58.296875 
L 20.40625 34.296875 
Q 27.59375 34.40625 31.09375 35.09375 
Q 34.59375 35.796875 38.09375 37.703125 
Q 43.796875 40.90625 43.796875 49.09375 
Q 43.796875 62.5 25.5 62.5 
Q 22.796875 62.5 21.59375 61.640625 
Q 20.40625 60.796875 20.40625 58.296875 
z
" id="STIXGeneral-Regular-82"/>
      <path d="M 49.09375 4.203125 
L 34.40625 -1 
L 34 -0.703125 
L 34 5.703125 
Q 29.203125 -1 21.203125 -1 
Q 12.90625 -1 7.796875 4.953125 
Q 2.703125 10.90625 2.703125 20.5 
Q 2.703125 31.09375 8.796875 38.546875 
Q 14.90625 46 23.5 46 
Q 28.90625 46 34 41.703125 
L 34 57.296875 
Q 34 60.40625 33.09375 61.40625 
Q 32.203125 62.40625 29.40625 62.40625 
Q 28 62.40625 27.203125 62.296875 
L 27.203125 63.90625 
Q 36.296875 66.296875 41.90625 68.296875 
L 42.40625 68.09375 
L 42.40625 11.40625 
Q 42.40625 7.90625 43.25 6.796875 
Q 44.09375 5.703125 46.796875 5.703125 
Q 47.40625 5.703125 49.09375 5.796875 
z
M 34 10.203125 
L 34 33.203125 
Q 34 37.203125 30.953125 40.203125 
Q 27.90625 43.203125 23.796875 43.203125 
Q 18.09375 43.203125 14.6875 38.09375 
Q 11.296875 33 11.296875 24.5 
Q 11.296875 15.296875 15.046875 9.75 
Q 18.796875 4.203125 25.09375 4.203125 
Q 29.796875 4.203125 32.5 7.40625 
Q 34 9.09375 34 10.203125 
z
" id="STIXGeneral-Regular-100"/>
      <path d="M 47 38.796875 
L 38.703125 38.796875 
Q 40.59375 34.5 40.59375 30.40625 
Q 40.59375 22.703125 35.390625 18.796875 
Q 30.203125 14.90625 25 14.90625 
Q 23.90625 14.90625 21.203125 15.203125 
L 19.296875 15.40625 
Q 17.296875 14.796875 15.296875 12.6875 
Q 13.296875 10.59375 13.296875 9.09375 
Q 13.296875 6.796875 21.09375 6.40625 
L 34 5.796875 
Q 39.5 5.59375 42.796875 2.6875 
Q 46.09375 -0.203125 46.09375 -4.90625 
Q 46.09375 -10.703125 40.09375 -15.40625 
Q 31.796875 -21.796875 20.09375 -21.796875 
Q 12.90625 -21.796875 7.84375 -18.9375 
Q 2.796875 -16.09375 2.796875 -12.09375 
Q 2.796875 -9.296875 5 -6.546875 
Q 7.203125 -3.796875 12.59375 0.09375 
Q 9.40625 1.59375 8.34375 2.6875 
Q 7.296875 3.796875 7.296875 5.40625 
Q 7.296875 8.296875 11.90625 12.296875 
Q 14.203125 14.296875 16.203125 16.296875 
Q 11.203125 18.796875 9.046875 21.890625 
Q 6.90625 25 6.90625 29.703125 
Q 6.90625 36.5 11.75 41.25 
Q 16.59375 46 23.59375 46 
Q 27.59375 46 31.59375 44.5 
L 33.796875 43.703125 
Q 36.703125 42.703125 39.296875 42.703125 
L 47 42.703125 
z
M 15.203125 33.796875 
L 15.203125 33.5 
Q 15.203125 26.296875 18.046875 21.84375 
Q 20.90625 17.40625 25.5 17.40625 
Q 28.90625 17.40625 30.90625 19.84375 
Q 32.90625 22.296875 32.90625 26.40625 
Q 32.90625 33 29.90625 38.5 
Q 27.40625 43.203125 22.59375 43.203125 
Q 19.09375 43.203125 17.140625 40.703125 
Q 15.203125 38.203125 15.203125 33.796875 
z
M 43.296875 -6.40625 
Q 43.296875 -3.59375 40.546875 -2.546875 
Q 37.796875 -1.5 30.90625 -1.5 
Q 21 -1.5 14.703125 -0.203125 
Q 11.703125 -3.796875 10.75 -5.4375 
Q 9.796875 -7.09375 9.796875 -8.796875 
Q 9.796875 -12.09375 13.75 -14.09375 
Q 17.703125 -16.09375 24.296875 -16.09375 
Q 32.796875 -16.09375 38.046875 -13.4375 
Q 43.296875 -10.796875 43.296875 -6.40625 
z
" id="STIXGeneral-Regular-103"/>
      <path d="M 47 23.09375 
Q 47 12.59375 40.75 5.796875 
Q 34.5 -1 24.5 -1 
Q 15.296875 -1 9.09375 5.75 
Q 2.90625 12.5 2.90625 22.796875 
Q 2.90625 33.203125 9.09375 39.59375 
Q 15.296875 46 25.40625 46 
Q 34.703125 46 40.84375 39.640625 
Q 47 33.296875 47 23.09375 
z
M 38 20.40625 
Q 38 31.796875 33 38.203125 
Q 29 43.203125 23.5 43.203125 
Q 18.296875 43.203125 15.09375 38.953125 
Q 11.90625 34.703125 11.90625 27.296875 
Q 11.90625 14.5 17.203125 6.796875 
Q 20.59375 1.796875 26.203125 1.796875 
Q 31.703125 1.796875 34.84375 6.75 
Q 38 11.703125 38 20.40625 
z
" id="STIXGeneral-Regular-111"/>
      <path d="M 2.09375 45 
L 10.296875 45 
Q 10.40625 51 11.09375 54.34375 
Q 11.796875 57.703125 13.796875 61.09375 
Q 18 68.296875 27.90625 68.296875 
Q 32.40625 68.296875 35.34375 66.546875 
Q 38.296875 64.796875 38.296875 62.09375 
Q 38.296875 60.40625 37.09375 59.203125 
Q 35.90625 58 34.09375 58 
Q 31.703125 58 29.59375 61.59375 
Q 27.203125 65.5 24.296875 65.5 
Q 18.703125 65.5 18.703125 56.59375 
L 18.703125 45 
L 30.90625 45 
L 30.90625 41.796875 
L 18.703125 41.796875 
L 18.703125 10.40625 
Q 18.703125 4.796875 20.296875 3.25 
Q 21.90625 1.703125 28 1.5 
L 28 0 
L 2 0 
L 2 1.5 
Q 7.40625 1.796875 8.84375 3.34375 
Q 10.296875 4.90625 10.296875 10.40625 
L 10.296875 41.796875 
L 2.09375 41.796875 
z
" id="STIXGeneral-Regular-102"/>
      <path d="M 70.296875 66.203125 
L 70.296875 64.296875 
Q 65.90625 63.90625 63.34375 61.796875 
Q 60.796875 59.703125 56.5 53.09375 
L 41.703125 30.296875 
L 41.703125 11.09375 
Q 41.703125 5.40625 43.59375 3.796875 
Q 45.5 2.203125 52 1.90625 
L 52 0 
L 21.40625 0 
L 21.40625 1.90625 
Q 28.203125 2.40625 29.84375 4.046875 
Q 31.5 5.703125 31.5 12.296875 
L 31.5 29.40625 
L 18.40625 48.59375 
Q 11.59375 58.59375 8.6875 61.34375 
Q 5.796875 64.09375 2.203125 64.296875 
L 2.203125 66.203125 
L 30.09375 66.203125 
L 30.09375 64.296875 
L 27.703125 64.203125 
Q 23 64.09375 23 61.59375 
Q 23 59.5 24.796875 56.90625 
L 39.40625 34.796875 
L 53.90625 57 
Q 55.296875 59.09375 55.296875 61.203125 
Q 55.203125 62.90625 53.75 63.546875 
Q 52.296875 64.203125 48.5 64.296875 
L 48.5 66.203125 
z
" id="STIXGeneral-Regular-89"/>
      <path d="M 16 45.796875 
L 16 36.59375 
Q 19.796875 42 22.34375 44 
Q 24.90625 46 28 46 
Q 30.59375 46 32.046875 44.59375 
Q 33.5 43.203125 33.5 40.703125 
Q 33.5 38.59375 32.453125 37.390625 
Q 31.40625 36.203125 29.59375 36.203125 
Q 27.703125 36.203125 25.59375 38.203125 
Q 24 39.703125 23 39.703125 
Q 20.90625 39.703125 18.453125 36.796875 
Q 16 33.90625 16 31.5 
L 16 9 
Q 16 4.703125 17.703125 3.203125 
Q 19.40625 1.703125 24.5 1.5 
L 24.5 0 
L 0.5 0 
L 0.5 1.5 
Q 5.296875 2.40625 6.4375 3.5 
Q 7.59375 4.59375 7.59375 8.40625 
L 7.59375 33.40625 
Q 7.59375 36.703125 6.84375 38.046875 
Q 6.09375 39.40625 4.203125 39.40625 
Q 2.59375 39.40625 0.703125 39 
L 0.703125 40.59375 
Q 7 42.59375 15.5 46 
z
" id="STIXGeneral-Regular-114"/>
      <path d="M 50.5 0 
L 28.703125 0 
L 28.703125 1.5 
L 30.59375 1.5 
Q 32.703125 1.5 32.703125 3 
Q 32.703125 3.90625 31.59375 5.296875 
L 16.59375 25.09375 
L 16.59375 6.703125 
Q 16.59375 4.09375 17.84375 2.890625 
Q 19.09375 1.703125 22.09375 1.59375 
L 24.09375 1.5 
L 24.09375 0 
L 0.703125 0 
L 0.703125 1.5 
Q 6.09375 2.40625 7.140625 3.34375 
Q 8.203125 4.296875 8.203125 8.203125 
L 8.203125 56.40625 
Q 8.203125 60 7.296875 61.25 
Q 6.40625 62.5 3.90625 62.5 
Q 3.296875 62.5 0.703125 62.296875 
L 0.703125 63.90625 
L 3.703125 64.703125 
Q 9.703125 66.296875 16.203125 68.296875 
L 16.59375 68.09375 
L 16.59375 26.09375 
L 30.296875 38.296875 
Q 32.59375 40.40625 32.59375 41.796875 
Q 32.59375 42.796875 31.546875 43.140625 
Q 30.5 43.5 27.59375 43.59375 
L 27.59375 45 
L 48 45 
L 48 43.5 
Q 43 43.5 39.140625 41.34375 
Q 35.296875 39.203125 26.40625 30.90625 
L 23.5 28.203125 
L 38.796875 8.796875 
Q 44.203125 1.90625 50.5 1.5 
z
" id="STIXGeneral-Regular-107"/>
      <path d="M 48.703125 0 
L 27.5 0 
L 27.5 1.5 
Q 31.90625 2 33.09375 3.5 
Q 34.296875 5 34.296875 10.203125 
L 34.296875 30 
Q 34.296875 40.59375 26.90625 40.59375 
Q 23.90625 40.59375 21.40625 39.1875 
Q 18.90625 37.796875 15.703125 34.296875 
L 15.703125 10.203125 
Q 15.703125 5 16.890625 3.5 
Q 18.09375 2 22.5 1.5 
L 22.5 0 
L 0.90625 0 
L 0.90625 1.5 
Q 5.203125 2.09375 6.25 3.5 
Q 7.296875 4.90625 7.296875 10.203125 
L 7.296875 57.296875 
Q 7.296875 60.5 6.34375 61.453125 
Q 5.40625 62.40625 2.203125 62.40625 
Q 1.296875 62.40625 1 62.296875 
L 1 63.90625 
L 3.703125 64.703125 
Q 11.40625 67 15.203125 68.296875 
L 15.703125 68 
L 15.703125 37.59375 
Q 19.203125 42.09375 22.59375 44.046875 
Q 26 46 30.40625 46 
Q 42.703125 46 42.703125 30.09375 
L 42.703125 10.203125 
Q 42.703125 5 43.640625 3.640625 
Q 44.59375 2.296875 48.703125 1.5 
z
" id="STIXGeneral-Regular-104"/>
      <path d="M 46.90625 46.296875 
L 44.40625 46.296875 
Q 42.703125 52.5 40.296875 55.703125 
Q 34.203125 63.5 25.796875 63.5 
Q 21.203125 63.5 18.453125 60.84375 
Q 15.703125 58.203125 15.703125 54 
Q 15.703125 52 16.703125 50.09375 
Q 17.703125 48.203125 18.84375 46.84375 
Q 20 45.5 22.890625 43.5 
Q 25.796875 41.5 27.59375 40.453125 
Q 29.40625 39.40625 33.59375 36.90625 
Q 41.703125 32.203125 45.390625 27.546875 
Q 49.09375 22.90625 49.09375 17.296875 
Q 49.09375 9 43.296875 3.796875 
Q 37.5 -1.40625 28.703125 -1.40625 
Q 22.203125 -1.40625 16.90625 0.90625 
Q 14.296875 2 12.203125 2 
Q 11 2 10.203125 1.09375 
Q 9.40625 0.203125 9.40625 -1.296875 
L 7.203125 -1.296875 
L 4.296875 19.90625 
L 6.5 19.90625 
Q 13.203125 2.203125 27.09375 2.203125 
Q 32.40625 2.203125 35.703125 5.34375 
Q 39 8.5 39 13.40625 
Q 39 18.09375 36.09375 21.296875 
Q 31.296875 26.5 19.296875 32.90625 
Q 7.09375 39.40625 7.09375 50.09375 
Q 7.09375 58.09375 12 62.84375 
Q 16.90625 67.59375 24.5 67.59375 
Q 29.796875 67.59375 35 65.40625 
Q 37.703125 64.203125 39.40625 64.203125 
Q 42 64.203125 42.59375 67.59375 
L 44.703125 67.59375 
z
" id="STIXGeneral-Regular-83"/>
      <path d="M 39.40625 0 
L 11.796875 0 
L 11.796875 1.5 
Q 17.296875 1.796875 19.296875 3.546875 
Q 21.296875 5.296875 21.296875 9.5 
L 21.296875 54.40625 
Q 21.296875 59.296875 18.296875 59.296875 
Q 16.90625 59.296875 13.796875 58.09375 
L 11.09375 57.09375 
L 11.09375 58.5 
L 29 67.59375 
L 29.90625 67.296875 
L 29.90625 7.59375 
Q 29.90625 4.296875 31.90625 2.890625 
Q 33.90625 1.5 39.40625 1.5 
z
" id="STIXGeneral-Regular-49"/>
      <path d="M 44.59375 68.40625 
L 44.796875 66.796875 
Q 33 64.90625 25.09375 57.25 
Q 17.203125 49.59375 15.203125 38.296875 
Q 21 42.796875 27.90625 42.796875 
Q 36.703125 42.796875 41.75 37.1875 
Q 46.796875 31.59375 46.796875 21.90625 
Q 46.796875 12.09375 41.703125 5.90625 
Q 35.796875 -1.40625 25.796875 -1.40625 
Q 13.59375 -1.40625 8.09375 8.703125 
Q 3.40625 17.296875 3.40625 27.90625 
Q 3.40625 44.296875 14.296875 55.5 
Q 20.5 61.90625 27.046875 64.546875 
Q 33.59375 67.203125 44.59375 68.40625 
z
M 37.796875 18.796875 
Q 37.796875 38.203125 24.296875 38.203125 
Q 19.296875 38.203125 16 35.546875 
Q 12.703125 32.90625 12.703125 26.59375 
Q 12.703125 14.90625 16.34375 8.15625 
Q 20 1.40625 26.90625 1.40625 
Q 32.203125 1.40625 35 6.15625 
Q 37.796875 10.90625 37.796875 18.796875 
z
" id="STIXGeneral-Regular-54"/>
      <path d="M 47.59375 33 
Q 47.59375 26.296875 46.296875 20.34375 
Q 45 14.40625 42.453125 9.40625 
Q 39.90625 4.40625 35.40625 1.5 
Q 30.90625 -1.40625 25 -1.40625 
Q 18.90625 -1.40625 14.296875 1.6875 
Q 9.703125 4.796875 7.203125 10 
Q 4.703125 15.203125 3.546875 21.09375 
Q 2.40625 27 2.40625 33.59375 
Q 2.40625 42.90625 4.703125 50.34375 
Q 7 57.796875 12.34375 62.6875 
Q 17.703125 67.59375 25.40625 67.59375 
Q 35.203125 67.59375 41.390625 58 
Q 47.59375 48.40625 47.59375 33 
z
M 38 32.5 
Q 38 48.296875 34.640625 56.640625 
Q 31.296875 65 24.796875 65 
Q 18.59375 65 15.296875 56.59375 
Q 12 48.203125 12 32.90625 
Q 12 17.5 15.296875 9.34375 
Q 18.59375 1.203125 25 1.203125 
Q 31.296875 1.203125 34.640625 9.34375 
Q 38 17.5 38 32.5 
z
" id="STIXGeneral-Regular-48"/>
      <path d="M 77.5 0 
L 55.703125 0 
L 55.703125 1.5 
Q 59.90625 1.90625 61.046875 3.25 
Q 62.203125 4.59375 62.203125 9 
L 62.203125 29.59375 
Q 62.203125 35.59375 60.453125 38.1875 
Q 58.703125 40.796875 54.5 40.796875 
Q 51 40.796875 48.546875 39.390625 
Q 46.09375 38 43.796875 34.703125 
L 43.796875 9.5 
Q 43.796875 4.703125 45.25 3.140625 
Q 46.703125 1.59375 51 1.5 
L 51 0 
L 28.59375 0 
L 28.59375 1.5 
Q 33 1.796875 34.203125 2.9375 
Q 35.40625 4.09375 35.40625 8.59375 
L 35.40625 29.703125 
Q 35.40625 40.796875 28.90625 40.796875 
Q 26.09375 40.796875 22.9375 39.546875 
Q 19.796875 38.296875 18.296875 36.5 
Q 17 35 17 34.796875 
L 17 7 
Q 17 3.796875 18.390625 2.75 
Q 19.796875 1.703125 23.796875 1.5 
L 23.796875 0 
L 1.59375 0 
L 1.59375 1.5 
Q 5.796875 1.59375 7.1875 3.046875 
Q 8.59375 4.5 8.59375 8.796875 
L 8.59375 33.59375 
Q 8.59375 37.296875 7.796875 38.75 
Q 7 40.203125 5.09375 40.203125 
Q 3.59375 40.203125 1.90625 39.796875 
L 1.90625 41.5 
Q 8.703125 43.40625 15.796875 46 
L 16.59375 45.703125 
L 16.59375 38.296875 
L 16.796875 38.296875 
Q 21.296875 43 24.75 44.5 
Q 28.203125 46 32.09375 46 
Q 40 46 42.703125 37.59375 
Q 50.5 46 59 46 
Q 70.59375 46 70.59375 28 
L 70.59375 7.703125 
Q 70.59375 4.40625 71.59375 3.15625 
Q 72.59375 1.90625 74.90625 1.703125 
L 77.5 1.5 
z
" id="STIXGeneral-Regular-109"/>
      <path d="M 18.09375 4.296875 
Q 18.09375 2.09375 16.4375 0.5 
Q 14.796875 -1.09375 12.5 -1.09375 
Q 10.203125 -1.09375 8.59375 0.5 
Q 7 2.09375 7 4.390625 
Q 7 6.703125 8.640625 8.34375 
Q 10.296875 10 12.59375 10 
Q 14.796875 10 16.4375 8.296875 
Q 18.09375 6.59375 18.09375 4.296875 
z
" id="STIXGeneral-Regular-46"/>
     </defs>
     <use xlink:href="#STIXGeneral-Regular-68"/>
     <use x="72.199982" xlink:href="#STIXGeneral-Regular-105"/>
     <use x="99.999969" xlink:href="#STIXGeneral-Regular-115"/>
     <use x="138.899963" xlink:href="#STIXGeneral-Regular-116"/>
     <use x="166.699951" xlink:href="#STIXGeneral-Regular-97"/>
     <use x="211.099945" xlink:href="#STIXGeneral-Regular-110"/>
     <use x="261.09993" xlink:href="#STIXGeneral-Regular-99"/>
     <use x="305.499924" xlink:href="#STIXGeneral-Regular-101"/>
     <use x="349.899918" xlink:href="#STIXGeneral-Regular-32"/>
     <use x="374.899902" xlink:href="#STIXGeneral-Regular-98"/>
     <use x="424.899887" xlink:href="#STIXGeneral-Regular-101"/>
     <use x="469.299881" xlink:href="#STIXGeneral-Regular-116"/>
     <use x="497.099869" xlink:href="#STIXGeneral-Regular-119"/>
     <use x="569.29985" xlink:href="#STIXGeneral-Regular-101"/>
     <use x="613.699844" xlink:href="#STIXGeneral-Regular-101"/>
     <use x="658.099838" xlink:href="#STIXGeneral-Regular-110"/>
     <use x="708.099823" xlink:href="#STIXGeneral-Regular-32"/>
     <use x="733.099808" xlink:href="#STIXGeneral-Regular-69"/>
     <use x="794.199799" xlink:href="#STIXGeneral-Regular-97"/>
     <use x="838.599792" xlink:href="#STIXGeneral-Regular-115"/>
     <use x="877.499786" xlink:href="#STIXGeneral-Regular-116"/>
     <use x="905.299774" xlink:href="#STIXGeneral-Regular-32"/>
     <use x="930.299759" xlink:href="#STIXGeneral-Regular-82"/>
     <use x="996.999756" xlink:href="#STIXGeneral-Regular-105"/>
     <use x="1024.799744" xlink:href="#STIXGeneral-Regular-100"/>
     <use x="1074.799728" xlink:href="#STIXGeneral-Regular-105"/>
     <use x="1102.599716" xlink:href="#STIXGeneral-Regular-110"/>
     <use x="1152.599701" xlink:href="#STIXGeneral-Regular-103"/>
     <use x="1202.599686" xlink:href="#STIXGeneral-Regular-32"/>
     <use x="1227.59967" xlink:href="#STIXGeneral-Regular-111"/>
     <use x="1277.599655" xlink:href="#STIXGeneral-Regular-102"/>
     <use x="1310.899643" xlink:href="#STIXGeneral-Regular-32"/>
     <use x="1335.899628" xlink:href="#STIXGeneral-Regular-89"/>
     <use x="1408.099609" xlink:href="#STIXGeneral-Regular-111"/>
     <use x="1458.099594" xlink:href="#STIXGeneral-Regular-114"/>
     <use x="1491.399582" xlink:href="#STIXGeneral-Regular-107"/>
     <use x="1541.399567" xlink:href="#STIXGeneral-Regular-115"/>
     <use x="1580.299561" xlink:href="#STIXGeneral-Regular-104"/>
     <use x="1630.299545" xlink:href="#STIXGeneral-Regular-105"/>
     <use x="1658.099533" xlink:href="#STIXGeneral-Regular-114"/>
     <use x="1691.399521" xlink:href="#STIXGeneral-Regular-101"/>
     <use x="1735.799515" xlink:href="#STIXGeneral-Regular-32"/>
     <use x="1760.7995" xlink:href="#STIXGeneral-Regular-97"/>
     <use x="1805.199493" xlink:href="#STIXGeneral-Regular-110"/>
     <use x="1855.199478" xlink:href="#STIXGeneral-Regular-100"/>
     <use x="1905.199463" xlink:href="#STIXGeneral-Regular-32"/>
     <use x="1930.199448" xlink:href="#STIXGeneral-Regular-83"/>
     <use x="1985.799438" xlink:href="#STIXGeneral-Regular-116"/>
     <use x="2013.599426" xlink:href="#STIXGeneral-Regular-97"/>
     <use x="2057.99942" xlink:href="#STIXGeneral-Regular-102"/>
     <use x="2091.299408" xlink:href="#STIXGeneral-Regular-102"/>
     <use x="2124.599396" xlink:href="#STIXGeneral-Regular-111"/>
     <use x="2174.59938" xlink:href="#STIXGeneral-Regular-114"/>
     <use x="2207.899368" xlink:href="#STIXGeneral-Regular-100"/>
     <use x="2257.899353" xlink:href="#STIXGeneral-Regular-32"/>
     <use x="2282.899338" xlink:href="#STIXGeneral-Regular-105"/>
     <use x="2310.699326" xlink:href="#STIXGeneral-Regular-115"/>
     <use x="2349.599319" xlink:href="#STIXGeneral-Regular-32"/>
     <use x="2374.599304" xlink:href="#STIXGeneral-Regular-49"/>
     <use x="2424.599289" xlink:href="#STIXGeneral-Regular-54"/>
     <use x="2474.599274" xlink:href="#STIXGeneral-Regular-48"/>
     <use x="2524.599258" xlink:href="#STIXGeneral-Regular-32"/>
     <use x="2549.599243" xlink:href="#STIXGeneral-Regular-107"/>
     <use x="2599.599228" xlink:href="#STIXGeneral-Regular-109"/>
     <use x="2677.399216" xlink:href="#STIXGeneral-Regular-46"/>
    </g>
   </g>
  </g>
 </g>
 <defs>
  <clipPath id="pb6ce04c8fa">
   <rect height="543.6" width="529.764807" x="7.2" y="24.145"/>
  </clipPath>
 </defs>
</svg>
