<?xml version="1.0" encoding="utf-8" standalone="no"?>
<!DOCTYPE svg PUBLIC "-//W3C//DTD SVG 1.1//EN"
  "http://www.w3.org/Graphics/SVG/1.1/DTD/svg11.dtd">
<!-- Created with matplotlib (https://matplotlib.org/) -->
<svg height="558pt" version="1.1" viewBox="0 0 552.642725 558" width="552.642725pt" xmlns="http://www.w3.org/2000/svg" xmlns:xlink="http://www.w3.org/1999/xlink">
 <metadata>
  <rdf:RDF xmlns:cc="http://creativecommons.org/ns#" xmlns:dc="http://purl.org/dc/elements/1.1/" xmlns:rdf="http://www.w3.org/1999/02/22-rdf-syntax-ns#">
   <cc:Work>
    <dc:type rdf:resource="http://purl.org/dc/dcmitype/StillImage"/>
    <dc:date>2021-07-03T19:08:02.789573</dc:date>
    <dc:format>image/svg+xml</dc:format>
    <dc:creator>
     <cc:Agent>
      <dc:title>Matplotlib v3.3.4, https://matplotlib.org/</dc:title>
     </cc:Agent>
    </dc:creator>
   </cc:Work>
  </rdf:RDF>
 </metadata>
 <defs>
  <style type="text/css">*{stroke-linecap:butt;stroke-linejoin:round;}</style>
 </defs>
 <g id="figure_1">
  <g id="patch_1">
   <path d="M 0 558 
L 552.642725 558 
L 552.642725 0 
L 0 0 
z
" style="fill:none;"/>
  </g>
  <g id="axes_1">
   <g id="PatchCollection_1">
    <path clip-path="url(#p6208f9fdb0)" d="M 178.523019 255.81187 
L 184.148151 260.723901 
L 182.663217 265.396861 
L 197.565214 254.089885 
L 202.741588 254.71757 
L 221.038325 258.595366 
L 222.502854 263.362771 
L 218.132049 266.333122 
L 229.208414 272.628157 
L 234.703328 264.039145 
L 232.363122 261.124936 
L 236.408421 250.526676 
L 241.63798 253.505473 
L 250.906856 251.233853 
L 259.864649 256.046966 
L 268.970527 246.823812 
L 272.112327 248.940373 
L 280.137816 257.617372 
L 279.238292 309.543681 
L 290.721662 325.903238 
L 285.611382 330.362018 
L 286.560076 335.56623 
L 282.313999 346.540186 
L 266.932471 347.137515 
L 259.050107 358.719781 
L 245.147039 360.375192 
L 235.74102 351.980935 
L 235.388635 366.996241 
L 230.662044 365.346295 
L 212.091963 389.51068 
L 200.037114 403.832223 
L 198.100921 401.543712 
L 184.711229 410.145144 
L 176.503852 408.433591 
L 166.60433 422.313311 
L 155.380864 424.256979 
L 154.310433 438.837913 
L 158.863617 445.270617 
L 154.650321 449.001801 
L 155.373407 454.189121 
L 136.66569 460.802221 
L 137.325675 470.058166 
L 121.753285 475.876152 
L 108.370026 467.242377 
L 105.560205 482.204474 
L 95.035978 472.290537 
L 86.597543 477.515615 
L 82.866808 473.268084 
L 83.879137 464.098089 
L 71.36209 454.556372 
L 57.292049 460.513965 
L 49.127409 455.030986 
L 59.515476 431.237827 
L 48.40633 422.469363 
L 43.069908 428.004558 
L 31.665578 414.058264 
L 38.849195 401.646554 
L 45.64023 400.70135 
L 47.542577 386.971223 
L 59.139735 388.542125 
L 63.01212 380.36955 
L 69.141162 381.694426 
L 74.563058 369.342881 
L 85.566324 372.943401 
L 84.164897 364.987987 
L 88.444245 366.888878 
L 92.19436 362.510136 
L 101.931376 370.160899 
L 116.339338 362.315332 
L 126.555966 368.69587 
L 134.924826 364.798151 
L 135.056028 358.742138 
L 130.460106 355.475582 
L 130.822899 341.147629 
L 139.402985 343.770601 
L 147.39467 357.019158 
L 152.14814 353.823698 
L 156.705299 358.217344 
L 159.921633 352.196655 
L 158.688162 345.196382 
L 146.234258 339.536484 
L 144.943135 332.00794 
L 149.26772 330.673128 
L 150.926593 323.714091 
L 161.673438 329.737811 
L 166.644076 315.696574 
L 161.626726 315.954027 
L 151.746585 305.809466 
L 145.009719 304.905995 
L 140.675219 308.833523 
L 132.234242 295.854293 
L 117.399894 292.792975 
L 112.795491 275.378862 
L 118.941948 263.284721 
L 110.856841 263.729526 
L 110.000094 260.676653 
L 121.380576 249.697232 
L 136.917646 250.484446 
L 141.381381 239.012028 
L 158.109718 251.330783 
L 169.990136 250.26972 
L 178.523019 255.81187 
" style="fill:#b2df8a;stroke:#000000;stroke-width:0.2;"/>
    <path clip-path="url(#p6208f9fdb0)" d="M 415.130204 281.16053 
L 415.725571 289.761018 
L 421.975408 294.859854 
L 418.445984 299.154633 
L 419.973656 308.015008 
L 426.328306 308.678962 
L 429.221142 315.222506 
L 424.315122 319.978435 
L 425.38162 329.860079 
L 443.181862 341.037781 
L 432.339095 342.64997 
L 431.834201 350.649104 
L 450.1672 378.995936 
L 440.859071 386.542814 
L 438.405528 397.587865 
L 444.769685 401.480069 
L 442.371336 405.435419 
L 437.622823 405.077608 
L 431.137462 415.029303 
L 418.473314 423.002106 
L 421.999747 429.857754 
L 416.173837 436.429618 
L 420.768284 441.978227 
L 426.946046 440.790971 
L 423.699882 443.45518 
L 426.835209 445.641346 
L 422.82818 445.117546 
L 423.521477 452.092929 
L 416.039685 454.147885 
L 415.119304 461.330989 
L 425.401984 467.599195 
L 425.558017 471.705132 
L 416.107253 473.959363 
L 413.569261 482.496208 
L 399.184613 484.010969 
L 396.397657 507.233081 
L 389.901315 496.759574 
L 379.868623 496.570235 
L 377.811186 503.444266 
L 366.279137 501.88032 
L 370.456089 511.414584 
L 367.351084 526.090909 
L 356.882009 517.76576 
L 339.829684 517.473529 
L 330.300903 495.954026 
L 339.217926 483.59796 
L 340.184036 466.247441 
L 361.624539 453.59676 
L 362.713409 432.884246 
L 356.019281 428.743531 
L 357.103193 420.718065 
L 350.866754 404.682038 
L 354.34205 396.691846 
L 341.601853 377.99802 
L 344.680551 368.238147 
L 328.628098 349.432038 
L 316.033034 343.077833 
L 309.407498 333.118189 
L 311.993718 331.064723 
L 316.368497 337.274304 
L 319.897921 333.243885 
L 321.33766 341.218674 
L 324.624553 334.382948 
L 334.700022 345.915979 
L 338.288614 344.345574 
L 338.38851 337.123718 
L 324.096794 328.197712 
L 333.984885 315.149921 
L 351.911371 311.786485 
L 342.846756 297.352162 
L 341.125764 286.161989 
L 361.58131 266.515505 
L 371.659279 266.263567 
L 372.566712 277.033776 
L 381.540895 274.520602 
L 382.700325 268.334371 
L 391.153183 260.245809 
L 390.408216 249.17691 
L 396.794213 236.697136 
L 393.643972 250.70906 
L 417.850126 262.013502 
L 410.660526 263.547639 
L 403.966397 275.956319 
L 406.37372 278.384984 
L 411.748864 274.906235 
L 415.130204 281.16053 
" style="fill:#b2df8a;stroke:#000000;stroke-width:0.2;"/>
    <path clip-path="url(#p6208f9fdb0)" d="M 340.957316 165.47818 
L 349.532936 175.373238 
L 347.858655 187.630883 
L 358.782431 196.568762 
L 366.413781 197.975663 
L 368.331576 220.741097 
L 378.654042 222.718548 
L 379.860182 229.505089 
L 396.794213 236.697136 
L 390.408216 249.17691 
L 391.153183 260.245809 
L 382.700325 268.334371 
L 381.540895 274.520602 
L 372.566712 277.033776 
L 371.659279 266.263567 
L 361.58131 266.515505 
L 341.125764 286.161989 
L 342.846756 297.352162 
L 351.911371 311.786485 
L 333.984885 315.149921 
L 324.096794 328.197712 
L 338.38851 337.123718 
L 338.288614 344.345574 
L 334.700022 345.915979 
L 324.624553 334.382948 
L 321.33766 341.218674 
L 319.897921 333.243885 
L 316.368497 337.274304 
L 311.993718 331.064723 
L 309.407498 333.118189 
L 316.033034 343.077833 
L 296.748841 335.472778 
L 294.867842 328.565956 
L 286.560076 335.56623 
L 285.611382 330.362018 
L 290.721662 325.903238 
L 279.238292 309.543681 
L 280.137816 257.617372 
L 272.112327 248.940373 
L 271.215302 246.021195 
L 280.847462 240.060621 
L 284.915626 224.101105 
L 277.857721 223.715422 
L 273.712565 215.987652 
L 277.685298 210.516547 
L 280.990097 212.640611 
L 279.663694 209.529113 
L 287.070461 201.966785 
L 286.399044 187.656221 
L 294.449405 171.776195 
L 298.424104 174.885706 
L 308.09851 171.694717 
L 306.507737 165.617837 
L 312.149751 155.967266 
L 317.262531 158.602659 
L 324.047092 154.821793 
L 334.503219 166.147102 
L 340.957316 165.47818 
" style="fill:#33a02c;stroke:#000000;stroke-width:0.2;"/>
    <path clip-path="url(#p6208f9fdb0)" d="M 316.033034 343.077833 
L 328.628098 349.432038 
L 344.680551 368.238147 
L 341.601853 377.99802 
L 354.34205 396.691846 
L 350.866754 404.682038 
L 357.103193 420.718065 
L 356.019281 428.743531 
L 350.804145 431.804353 
L 354.092553 439.950597 
L 350.398615 446.250102 
L 344.66117 437.321165 
L 338.876031 435.35365 
L 330.359538 434.750359 
L 325.18714 442.53581 
L 320.992732 442.530345 
L 322.210305 456.599901 
L 329.128567 465.893605 
L 307.260612 473.985695 
L 314.589853 483.473755 
L 312.377858 486.90625 
L 306.796979 486.090269 
L 302.253711 491.523565 
L 292.0277 486.379966 
L 268.504354 499.266787 
L 261.316763 496.518068 
L 268.012859 480.538679 
L 252.970767 468.086726 
L 255.937645 467.731896 
L 251.724389 461.585461 
L 252.838582 455.212376 
L 247.37694 454.897788 
L 247.881343 447.620735 
L 241.132554 441.650225 
L 238.478274 427.439522 
L 243.541352 427.061838 
L 240.620202 417.909231 
L 228.722369 414.822078 
L 225.234166 404.128926 
L 222.070526 403.927613 
L 212.091963 389.51068 
L 230.662044 365.346295 
L 235.388635 366.996241 
L 235.74102 351.980935 
L 245.147039 360.375192 
L 259.050107 358.719781 
L 266.932471 347.137515 
L 282.313999 346.540186 
L 286.560076 335.56623 
L 294.867842 328.565956 
L 296.748841 335.472778 
L 316.033034 343.077833 
" style="fill:#b2df8a;stroke:#000000;stroke-width:0.2;"/>
    <path clip-path="url(#p6208f9fdb0)" d="M 279.269105 112.643929 
L 301.235933 143.123221 
L 311.065879 148.641027 
L 312.149751 155.967266 
L 306.507737 165.617837 
L 308.09851 171.694717 
L 298.424104 174.885706 
L 294.449405 171.776195 
L 264.29159 159.848589 
L 264.541087 164.893271 
L 251.65379 165.793265 
L 237.499258 181.632501 
L 228.628946 181.10423 
L 223.476912 173.903737 
L 231.385622 167.186254 
L 221.102901 161.065158 
L 226.58544 151.624295 
L 225.760982 144.947105 
L 232.70555 140.046551 
L 230.862289 131.658753 
L 240.980987 129.350865 
L 245.995345 122.054932 
L 262.684919 126.067914 
L 270.600554 120.297673 
L 273.568456 108.557865 
L 274.809343 113.16276 
L 279.269105 112.643929 
" style="fill:#b2df8a;stroke:#000000;stroke-width:0.2;"/>
    <path clip-path="url(#p6208f9fdb0)" d="M 273.712565 215.987652 
L 277.857721 223.715422 
L 284.915626 224.101105 
L 280.847462 240.060621 
L 271.215302 246.021195 
L 272.112327 248.940373 
L 268.970527 246.823812 
L 259.864649 256.046966 
L 250.906856 251.233853 
L 241.63798 253.505473 
L 236.408421 250.526676 
L 232.363122 261.124936 
L 234.703328 264.039145 
L 229.208414 272.628157 
L 218.132049 266.333122 
L 222.502854 263.362771 
L 221.038325 258.595366 
L 202.741588 254.71757 
L 200.814861 234.538344 
L 212.145149 228.543937 
L 211.88971 221.937792 
L 220.135809 212.154073 
L 224.115507 214.128991 
L 225.321156 205.892822 
L 230.092 202.06918 
L 235.604819 211.306245 
L 244.08554 209.950517 
L 248.558701 214.447553 
L 252.986174 211.854886 
L 256.028569 218.013792 
L 273.712565 215.987652 
" style="fill:#b2df8a;stroke:#000000;stroke-width:0.2;"/>
    <path clip-path="url(#p6208f9fdb0)" d="M 294.449405 171.776195 
L 286.399044 187.656221 
L 287.070461 201.966785 
L 279.663694 209.529113 
L 280.990097 212.640611 
L 277.685298 210.516547 
L 273.712565 215.987652 
L 256.028569 218.013792 
L 252.986174 211.854886 
L 248.558701 214.447553 
L 244.08554 209.950517 
L 235.604819 211.306245 
L 230.092 202.06918 
L 233.942504 195.043568 
L 226.952699 188.156173 
L 228.628946 181.10423 
L 237.499258 181.632501 
L 251.65379 165.793265 
L 264.541087 164.893271 
L 264.29159 159.848589 
L 294.449405 171.776195 
" style="fill:#b2df8a;stroke:#000000;stroke-width:0.2;"/>
    <path clip-path="url(#p6208f9fdb0)" d="M 496.656714 130.150997 
L 504.002345 143.996386 
L 513.634997 147.602371 
L 514.987747 156.262477 
L 520.977147 159.505186 
L 517.553069 161.241082 
L 519.220876 166.901973 
L 508.967534 168.494735 
L 486.669218 168.459461 
L 471.021311 184.278824 
L 466.683327 181.409378 
L 463.031142 184.852852 
L 462.093347 192.1463 
L 448.99634 184.215231 
L 442.464759 196.757604 
L 443.05316 203.523278 
L 436.580706 210.813746 
L 430.500341 206.490648 
L 434.476557 197.889217 
L 430.91677 188.634712 
L 412.095267 180.776724 
L 380.914224 175.280779 
L 370.75578 182.07979 
L 368.566157 189.687279 
L 353.730293 185.508807 
L 347.858655 187.630883 
L 349.532936 175.373238 
L 340.957316 165.47818 
L 346.846327 156.659041 
L 357.525604 158.375064 
L 367.499168 154.350159 
L 373.511432 143.90199 
L 391.210343 147.530829 
L 398.1763 142.539306 
L 408.90573 142.023456 
L 415.258947 134.270298 
L 413.398313 128.324629 
L 417.911219 125.132149 
L 418.368951 117.561375 
L 426.91724 117.301487 
L 436.72629 125.213628 
L 440.685132 121.543553 
L 447.965162 122.790428 
L 448.416912 119.57112 
L 452.202757 124.145162 
L 463.993235 114.175085 
L 479.600414 121.827338 
L 487.342601 117.444075 
L 496.656714 130.150997 
" style="fill:#b2df8a;stroke:#000000;stroke-width:0.2;"/>
    <path clip-path="url(#p6208f9fdb0)" d="M 462.093347 192.1463 
L 466.721065 206.661605 
L 477.738796 220.442457 
L 486.989766 218.252316 
L 482.686078 220.592497 
L 488.669496 235.098411 
L 483.562697 240.867163 
L 503.365266 257.811679 
L 505.905717 270.806807 
L 501.642267 278.013758 
L 485.414399 277.171893 
L 485.388052 267.62322 
L 477.260208 263.771259 
L 474.039858 267.902534 
L 467.042637 266.341071 
L 461.145144 270.147822 
L 462.723502 275.012605 
L 458.542535 277.669858 
L 447.211755 277.495921 
L 435.790503 284.668144 
L 427.518548 283.800941 
L 427.485769 278.515697 
L 421.274202 280.89319 
L 419.796233 275.455869 
L 415.130204 281.16053 
L 411.748864 274.906235 
L 406.37372 278.384984 
L 403.966397 275.956319 
L 410.660526 263.547639 
L 417.850126 262.013502 
L 393.643972 250.70906 
L 396.794213 236.697136 
L 379.860182 229.505089 
L 378.654042 222.718548 
L 368.331576 220.741097 
L 366.413781 197.975663 
L 358.782431 196.568762 
L 347.858655 187.630883 
L 353.730293 185.508807 
L 368.566157 189.687279 
L 370.75578 182.07979 
L 380.914224 175.280779 
L 412.095267 180.776724 
L 430.91677 188.634712 
L 434.476557 197.889217 
L 430.500341 206.490648 
L 436.580706 210.813746 
L 443.05316 203.523278 
L 442.464759 196.757604 
L 448.99634 184.215231 
L 462.093347 192.1463 
" style="fill:#b2df8a;stroke:#000000;stroke-width:0.2;"/>
    <path clip-path="url(#p6208f9fdb0)" d="M 386.706329 35.1751 
L 394.329771 41.228132 
L 401.062662 39.939028 
L 405.903573 56.049131 
L 416.125159 55.998903 
L 423.079644 62.666206 
L 414.15967 66.380498 
L 412.830276 70.595289 
L 416.311022 72.14428 
L 408.700487 78.685341 
L 416.826857 87.994496 
L 405.590975 91.93837 
L 409.365429 107.991339 
L 418.368951 117.561375 
L 417.911219 125.132149 
L 413.398313 128.324629 
L 415.258947 134.270298 
L 408.90573 142.023456 
L 398.1763 142.539306 
L 391.210343 147.530829 
L 373.511432 143.90199 
L 367.499168 154.350159 
L 357.525604 158.375064 
L 346.846327 156.659041 
L 340.957316 165.47818 
L 334.503219 166.147102 
L 324.047092 154.821793 
L 317.262531 158.602659 
L 312.149751 155.967266 
L 311.065879 148.641027 
L 301.235933 143.123221 
L 279.269105 112.643929 
L 291.341369 107.669298 
L 304.014448 95.184059 
L 317.010575 96.781789 
L 333.751327 85.305893 
L 330.422148 81.765539 
L 339.604567 83.006452 
L 365.306062 69.472619 
L 370.59229 77.317193 
L 369.01889 59.148209 
L 363.167617 52.192699 
L 357.773093 51.993871 
L 360.766809 47.343317 
L 365.687253 47.412376 
L 365.229029 40.599503 
L 369.640113 40.525924 
L 375.94211 31.909091 
L 386.706329 35.1751 
" style="fill:#b2df8a;stroke:#000000;stroke-width:0.2;"/>
   </g>
   <g id="matplotlib.axis_1"/>
   <g id="matplotlib.axis_2"/>
   <g id="text_1">
    <!-- Cheshire East -->
    <g transform="translate(140.469037 361.345262)scale(0.15 -0.15)">
     <defs>
      <path d="M 65.703125 15.203125 
L 68.703125 12.703125 
Q 62 4.40625 55.453125 1.25 
Q 48.90625 -1.90625 39.90625 -1.90625 
Q 24 -1.90625 14.453125 7.75 
Q 4.90625 17.40625 4.90625 32.296875 
Q 4.90625 48.296875 14.65625 58.6875 
Q 24.40625 69.09375 39.59375 69.09375 
Q 46.703125 69.09375 55.203125 65.59375 
Q 58.40625 64.203125 59.796875 64.203125 
Q 61.203125 64.203125 62.140625 65.140625 
Q 63.09375 66.09375 64.203125 68.796875 
L 66.90625 68.796875 
L 66.90625 45.296875 
L 64.40625 45.296875 
Q 62.203125 51.5 57.703125 56.796875 
Q 50.203125 65.796875 41 65.796875 
Q 32.90625 65.796875 27.75 57.4375 
Q 22.59375 49.09375 22.59375 34.5 
Q 22.59375 19 28 10.5 
Q 30.203125 7.09375 34.25 5 
Q 38.296875 2.90625 42.703125 2.90625 
Q 49.09375 2.90625 55.296875 6.296875 
Q 59.40625 8.59375 65.703125 15.203125 
z
" id="STIXGeneral-Bold-67"/>
      <path d="M 53.40625 0 
L 30 0 
L 30 2.40625 
Q 32.5 2.703125 33.546875 4.046875 
Q 34.59375 5.40625 34.59375 8.5 
L 34.59375 30.90625 
Q 34.59375 36.296875 33.5 38.4375 
Q 32.40625 40.59375 29.5 40.59375 
Q 25.90625 40.59375 22.5 37.203125 
Q 20.796875 35.5 20.796875 34.796875 
L 20.796875 8.5 
Q 20.796875 5.40625 21.796875 4.09375 
Q 22.796875 2.796875 25.59375 2.40625 
L 25.59375 0 
L 1.59375 0 
L 1.59375 2.40625 
Q 5.203125 3.09375 6.046875 4 
Q 6.90625 4.90625 6.90625 8.90625 
L 6.90625 59.09375 
Q 6.90625 62.59375 6 63.546875 
Q 5.09375 64.5 1.5 65.203125 
L 1.5 67.59375 
L 20.796875 67.59375 
L 20.796875 39.59375 
Q 27.296875 47.296875 35.5 47.296875 
Q 41.5 47.296875 45 43.5 
Q 48.5 39.703125 48.5 33.703125 
L 48.5 8.703125 
Q 48.5 5.296875 49.640625 3.84375 
Q 50.796875 2.40625 53.40625 2.40625 
z
" id="STIXGeneral-Bold-104"/>
      <path d="M 40.296875 12.59375 
L 42.703125 11.203125 
Q 38.296875 4.203125 33.84375 1.390625 
Q 29.40625 -1.40625 22.90625 -1.40625 
Q 13.90625 -1.40625 8.203125 5.34375 
Q 2.5 12.09375 2.5 22.40625 
Q 2.5 33.59375 8.25 40.4375 
Q 14 47.296875 23.40625 47.296875 
Q 31.703125 47.296875 36.203125 42.296875 
Q 41.5 36.5 42.09375 24.5 
L 16.90625 24.5 
Q 17.203125 20.296875 17.703125 17.4375 
Q 18.203125 14.59375 19.390625 11.6875 
Q 20.59375 8.796875 22.9375 7.296875 
Q 25.296875 5.796875 28.796875 5.796875 
Q 32 5.796875 34.59375 7.34375 
Q 37.203125 8.90625 40.296875 12.59375 
z
M 29.796875 28.203125 
L 29.796875 30.296875 
Q 29.796875 37.59375 28.90625 39.5 
Q 27.703125 42 26.546875 43.09375 
Q 25.40625 44.203125 23.40625 44.203125 
Q 19.796875 44.203125 18.09375 40.546875 
Q 16.40625 36.90625 16.40625 28.203125 
z
" id="STIXGeneral-Bold-101"/>
      <path d="M 34 32.59375 
L 31.5 32.59375 
Q 29.59375 38.203125 26.796875 40.796875 
Q 23.40625 44 19.296875 44 
Q 16.5 44 14.59375 42.34375 
Q 12.703125 40.703125 12.703125 38.203125 
Q 12.703125 35.59375 14.953125 33.546875 
Q 17.203125 31.5 22.296875 29.40625 
Q 29.796875 26.296875 32.9375 22.6875 
Q 36.09375 19.09375 36.09375 13.796875 
Q 36.09375 7.09375 31.796875 2.84375 
Q 27.5 -1.40625 20.703125 -1.40625 
Q 15.5 -1.40625 9.90625 0.90625 
Q 8.40625 1.5 7.59375 1.5 
Q 6.5 1.5 5 -1.296875 
L 2.5 -1.296875 
L 2.5 15.203125 
L 5.296875 15.203125 
Q 8.5 2 19 2 
Q 22.40625 2 24.453125 3.796875 
Q 26.5 5.59375 26.5 8.5 
Q 26.5 10.90625 24.296875 12.953125 
Q 22.09375 15 16.90625 17.203125 
Q 9.40625 20.40625 6.046875 24.046875 
Q 2.703125 27.703125 2.703125 32.703125 
Q 2.703125 39 7.140625 43.140625 
Q 11.59375 47.296875 18.40625 47.296875 
Q 21.796875 47.296875 26.203125 45.796875 
Q 28.40625 45.09375 29.296875 45.09375 
Q 31 45.09375 31.796875 47.09375 
L 34 47.09375 
z
" id="STIXGeneral-Bold-115"/>
      <path d="M 21.5 61.296875 
Q 21.5 58 19.25 55.796875 
Q 17 53.59375 13.703125 53.59375 
Q 10.40625 53.59375 8.203125 55.796875 
Q 6 58 6 61.296875 
Q 6 64.59375 8.25 66.84375 
Q 10.5 69.09375 13.90625 69.09375 
Q 17 69.09375 19.25 66.796875 
Q 21.5 64.5 21.5 61.296875 
z
M 25.59375 0 
L 1.59375 0 
L 1.59375 2.40625 
Q 5.09375 3.203125 6 4.296875 
Q 6.90625 5.40625 6.90625 8.796875 
L 6.90625 37.296875 
Q 6.90625 40.59375 5.84375 41.796875 
Q 4.796875 43 1.5 43.703125 
L 1.5 46.09375 
L 20.796875 46.09375 
L 20.796875 8.5 
Q 20.796875 5.296875 21.84375 4.046875 
Q 22.90625 2.796875 25.59375 2.40625 
z
" id="STIXGeneral-Bold-105"/>
      <path d="M 21.796875 46.09375 
L 21.796875 37.90625 
Q 25.296875 43 28.390625 45.140625 
Q 31.5 47.296875 35.296875 47.296875 
Q 38.796875 47.296875 41.09375 45.046875 
Q 43.40625 42.796875 43.40625 39.40625 
Q 43.40625 36.40625 41.65625 34.5 
Q 39.90625 32.59375 37.09375 32.59375 
Q 33.40625 32.59375 31.09375 36.40625 
Q 29.703125 38.703125 28.296875 38.703125 
Q 25.703125 38.703125 23.953125 35.703125 
Q 22.203125 32.703125 22.203125 28.296875 
L 22.203125 10.59375 
Q 22.203125 5.796875 23.546875 4.25 
Q 24.90625 2.703125 29.40625 2.40625 
L 29.40625 0 
L 2.90625 0 
L 2.90625 2.40625 
Q 6.203125 3 7.25 4.140625 
Q 8.296875 5.296875 8.296875 8.40625 
L 8.296875 37.296875 
Q 8.296875 40.796875 7.1875 42 
Q 6.09375 43.203125 2.796875 43.703125 
L 2.796875 46.09375 
z
" id="STIXGeneral-Bold-114"/>
      <path id="STIXGeneral-Bold-32"/>
      <path d="M 64.09375 20.796875 
L 60.09375 0 
L 1.59375 0 
L 1.59375 2.5 
Q 7 3.09375 8.703125 4.59375 
Q 10.40625 6.09375 10.40625 10.09375 
L 10.40625 58 
Q 10.40625 61.796875 8.59375 63.296875 
Q 6.796875 64.796875 1.59375 65.09375 
L 1.59375 67.59375 
L 59.296875 67.59375 
L 59.296875 47.5 
L 56.796875 47.5 
Q 55.09375 57.5 50.25 60.84375 
Q 45.40625 64.203125 33.09375 64.203125 
Q 29.296875 64.203125 27.9375 63 
Q 26.59375 61.796875 26.59375 58.796875 
L 26.59375 36.296875 
Q 34.703125 36.40625 38.296875 39.546875 
Q 41.90625 42.703125 42.796875 51.203125 
L 45.40625 51.203125 
L 45.40625 17.40625 
L 42.796875 17.40625 
Q 42.09375 26.203125 38.5 29.546875 
Q 34.90625 32.90625 26.59375 32.90625 
L 26.59375 8.703125 
Q 26.59375 5.5 28.34375 4.296875 
Q 30.09375 3.09375 34.90625 3.09375 
Q 46.59375 3.09375 53.09375 8.5 
Q 55.59375 10.5 57.296875 13.09375 
Q 59 15.703125 61.296875 20.796875 
z
" id="STIXGeneral-Bold-69"/>
      <path d="M 47.296875 6.40625 
L 48.796875 4.296875 
Q 43.5 -1.40625 37.59375 -1.40625 
Q 33.90625 -1.40625 32.046875 0.140625 
Q 30.203125 1.703125 29.40625 5.5 
Q 21.796875 -1.40625 13.5 -1.40625 
Q 8.5 -1.40625 5.5 1.25 
Q 2.5 3.90625 2.5 9.203125 
Q 2.5 15.90625 9.203125 20.40625 
Q 14.203125 23.703125 29.296875 28 
L 29.296875 34.796875 
Q 29.296875 39.703125 27.4375 41.890625 
Q 25.59375 44.09375 21.203125 44.09375 
Q 18.40625 44.09375 16.546875 43.09375 
Q 14.703125 42.09375 14.703125 40.40625 
Q 14.703125 39.296875 15.796875 38.09375 
Q 17.703125 35.796875 17.703125 33.90625 
Q 17.703125 31.296875 15.796875 29.59375 
Q 13.90625 27.90625 10.90625 27.90625 
Q 7.796875 27.90625 6.09375 29.703125 
Q 4.40625 31.5 4.40625 34.703125 
Q 4.40625 40.59375 9.65625 43.9375 
Q 14.90625 47.296875 23.5 47.296875 
Q 32.703125 47.296875 37.890625 43.796875 
Q 43.09375 40.296875 43.09375 33.90625 
L 43.09375 7.796875 
Q 43.09375 5 45.203125 5 
Q 45.90625 5 46.296875 5.40625 
z
M 29.296875 9.703125 
L 29.296875 24.5 
Q 17.09375 21.09375 17.09375 12.40625 
Q 17.09375 9.203125 18.546875 7.453125 
Q 20 5.703125 22.296875 5.703125 
Q 26.5 5.703125 29.296875 9.703125 
z
" id="STIXGeneral-Bold-97"/>
      <path d="M 30.703125 11.203125 
L 33.203125 10.09375 
Q 30.09375 3.90625 26.75 1.34375 
Q 23.40625 -1.203125 18.40625 -1.203125 
Q 13.203125 -1.203125 10.203125 1.640625 
Q 7.203125 4.5 7.203125 9.5 
L 7.203125 41.703125 
L 1.90625 41.703125 
L 1.90625 44.40625 
Q 6.796875 47.703125 10.09375 51.546875 
Q 13.40625 55.40625 18.59375 63 
L 21.09375 63 
L 21.09375 46.09375 
L 30.59375 46.09375 
L 30.59375 41.703125 
L 21.09375 41.703125 
L 21.09375 11.90625 
Q 21.09375 5.90625 25 5.90625 
Q 27.90625 5.90625 30.703125 11.203125 
z
" id="STIXGeneral-Bold-116"/>
     </defs>
     <use xlink:href="#STIXGeneral-Bold-67"/>
     <use x="72.199982" xlink:href="#STIXGeneral-Bold-104"/>
     <use x="127.799973" xlink:href="#STIXGeneral-Bold-101"/>
     <use x="172.199966" xlink:href="#STIXGeneral-Bold-115"/>
     <use x="211.09996" xlink:href="#STIXGeneral-Bold-104"/>
     <use x="266.699951" xlink:href="#STIXGeneral-Bold-105"/>
     <use x="294.499939" xlink:href="#STIXGeneral-Bold-114"/>
     <use x="338.899933" xlink:href="#STIXGeneral-Bold-101"/>
     <use x="383.299927" xlink:href="#STIXGeneral-Bold-32"/>
     <use x="408.299911" xlink:href="#STIXGeneral-Bold-69"/>
     <use x="474.999908" xlink:href="#STIXGeneral-Bold-97"/>
     <use x="524.999893" xlink:href="#STIXGeneral-Bold-115"/>
     <use x="563.899887" xlink:href="#STIXGeneral-Bold-116"/>
    </g>
   </g>
   <g id="text_2">
    <!-- Derbyshire Dales -->
    <g transform="translate(339.981035 382.769375)scale(0.15 -0.15)">
     <defs>
      <path d="M 1.40625 67.59375 
L 32.59375 67.59375 
Q 49.703125 67.59375 59.34375 58.796875 
Q 69 50 69 34.5 
Q 69 26.796875 65.953125 19.796875 
Q 62.90625 12.796875 57.5 8.09375 
Q 48.203125 0 32.296875 0 
L 1.40625 0 
L 1.40625 2.5 
Q 5.703125 2.59375 7.703125 4.390625 
Q 9.703125 6.203125 9.703125 9.796875 
L 9.703125 58.40625 
Q 9.703125 61.796875 7.953125 63.1875 
Q 6.203125 64.59375 1.40625 65.09375 
z
M 25.90625 59.796875 
L 25.90625 10 
Q 25.90625 6.5 27.15625 5 
Q 28.40625 3.5 31.703125 3.5 
Q 41.5 3.5 46.59375 10.703125 
Q 48.90625 14 50.25 20.140625 
Q 51.59375 26.296875 51.59375 33 
Q 51.59375 46.90625 47.5 54.09375 
Q 41.703125 64.203125 31.203125 64.203125 
Q 25.90625 64.203125 25.90625 59.796875 
z
" id="STIXGeneral-Bold-68"/>
      <path d="M 21.09375 67.59375 
L 21.09375 41.703125 
Q 26.40625 47.296875 33.296875 47.296875 
Q 41.59375 47.296875 46.84375 40.796875 
Q 52.09375 34.296875 52.09375 23.90625 
Q 52.09375 12.59375 45.796875 5.59375 
Q 39.5 -1.40625 29.5 -1.40625 
Q 22.5 -1.40625 16.296875 4.296875 
L 8.40625 -1.296875 
L 7.203125 -1.296875 
L 7.203125 59.40625 
Q 7.203125 62.40625 6.203125 63.453125 
Q 5.203125 64.5 1.703125 65.203125 
L 1.703125 67.59375 
z
M 21.09375 36 
L 21.09375 9.703125 
Q 21.09375 6.09375 23 3.9375 
Q 24.90625 1.796875 28 1.796875 
Q 37.40625 1.796875 37.40625 22.09375 
Q 37.40625 41.90625 28.09375 41.90625 
Q 25.59375 41.90625 24 40.546875 
Q 22.40625 39.203125 21.09375 36 
z
" id="STIXGeneral-Bold-98"/>
      <path d="M 48.203125 46.09375 
L 48.203125 43.703125 
Q 45.796875 43.40625 44.59375 42.34375 
Q 43.40625 41.296875 42.203125 38.203125 
L 27.40625 -1.59375 
Q 22.90625 -13.703125 19.703125 -17.203125 
Q 16.59375 -20.5 11.296875 -20.5 
Q 7 -20.5 4.296875 -18.296875 
Q 1.59375 -16.09375 1.59375 -12.59375 
Q 1.59375 -9.703125 3.296875 -7.796875 
Q 5 -5.90625 7.796875 -5.90625 
Q 10.296875 -5.90625 12.046875 -7.40625 
Q 13.796875 -8.90625 13.796875 -11.09375 
Q 13.796875 -11.5 13.59375 -12.5 
L 13.5 -13.09375 
Q 13.5 -13.796875 14 -14.296875 
Q 14.5 -14.796875 15.203125 -14.796875 
Q 19 -14.796875 21.796875 -6.59375 
L 23.59375 -1.296875 
L 11.703125 27.703125 
Q 6.796875 39.796875 5 42.296875 
Q 4.203125 43.296875 1.59375 43.703125 
L 1.59375 46.09375 
L 26.5 46.09375 
L 26.5 43.703125 
L 24.90625 43.59375 
Q 21.296875 43.296875 21.296875 41.09375 
Q 21.296875 40.40625 23.296875 35.296875 
L 30.5 16.703125 
L 37.296875 35.5 
Q 38.40625 38.703125 38.40625 40.40625 
Q 38.40625 42.203125 37.296875 42.890625 
Q 36.203125 43.59375 33 43.703125 
L 33 46.09375 
z
" id="STIXGeneral-Bold-121"/>
      <path d="M 25.59375 0 
L 1.59375 0 
L 1.59375 2.40625 
Q 6.703125 2.796875 6.703125 8.703125 
L 6.703125 58.703125 
Q 6.703125 64.796875 1.5 65.203125 
L 1.5 67.59375 
L 20.59375 67.59375 
L 20.59375 8.703125 
Q 20.59375 5.40625 21.796875 3.953125 
Q 23 2.5 25.59375 2.40625 
z
" id="STIXGeneral-Bold-108"/>
     </defs>
     <use xlink:href="#STIXGeneral-Bold-68"/>
     <use x="72.199982" xlink:href="#STIXGeneral-Bold-101"/>
     <use x="116.599976" xlink:href="#STIXGeneral-Bold-114"/>
     <use x="160.999969" xlink:href="#STIXGeneral-Bold-98"/>
     <use x="216.59996" xlink:href="#STIXGeneral-Bold-121"/>
     <use x="266.599945" xlink:href="#STIXGeneral-Bold-115"/>
     <use x="305.499939" xlink:href="#STIXGeneral-Bold-104"/>
     <use x="361.09993" xlink:href="#STIXGeneral-Bold-105"/>
     <use x="388.899918" xlink:href="#STIXGeneral-Bold-114"/>
     <use x="433.299911" xlink:href="#STIXGeneral-Bold-101"/>
     <use x="477.699905" xlink:href="#STIXGeneral-Bold-32"/>
     <use x="502.69989" xlink:href="#STIXGeneral-Bold-68"/>
     <use x="574.899872" xlink:href="#STIXGeneral-Bold-97"/>
     <use x="624.899857" xlink:href="#STIXGeneral-Bold-108"/>
     <use x="652.699844" xlink:href="#STIXGeneral-Bold-101"/>
     <use x="697.099838" xlink:href="#STIXGeneral-Bold-115"/>
    </g>
   </g>
   <g id="text_3">
    <!-- High Peak -->
    <g transform="translate(299.917261 253.397141)scale(0.15 -0.15)">
     <defs>
      <path d="M 75.90625 0 
L 42 0 
L 42 2.5 
Q 47.40625 3.09375 49.15625 4.546875 
Q 50.90625 6 50.90625 9.796875 
L 50.90625 32.59375 
L 26.796875 32.59375 
L 26.796875 9.796875 
Q 26.796875 5.796875 28.5 4.4375 
Q 30.203125 3.09375 35.703125 2.5 
L 35.703125 0 
L 2.09375 0 
L 2.09375 2.5 
Q 7.40625 3.203125 9 4.546875 
Q 10.59375 5.90625 10.59375 9.796875 
L 10.59375 57.703125 
Q 10.59375 61.796875 8.890625 63.1875 
Q 7.203125 64.59375 2.09375 65.09375 
L 2.09375 67.59375 
L 35.703125 67.59375 
L 35.703125 65.09375 
Q 30.40625 64.703125 28.59375 63.25 
Q 26.796875 61.796875 26.796875 57.703125 
L 26.796875 37.296875 
L 50.90625 37.296875 
L 50.90625 57.703125 
Q 50.90625 61.796875 49.09375 63.25 
Q 47.296875 64.703125 42 65.09375 
L 42 67.59375 
L 75.90625 67.59375 
L 75.90625 65.09375 
Q 70.796875 64.703125 68.9375 63.203125 
Q 67.09375 61.703125 67.09375 57.703125 
L 67.09375 9.796875 
Q 67.09375 5.90625 68.75 4.546875 
Q 70.40625 3.203125 75.90625 2.5 
z
" id="STIXGeneral-Bold-72"/>
      <path d="M 25.40625 6.796875 
L 30.59375 6.796875 
Q 38.703125 6.796875 43.5 3.546875 
Q 48.296875 0.296875 48.296875 -5.203125 
Q 48.296875 -12.296875 41.4375 -16.4375 
Q 34.59375 -20.59375 22.203125 -20.59375 
Q 2.796875 -20.59375 2.796875 -11.40625 
Q 2.796875 -5.296875 12.40625 -3.90625 
Q 7.703125 -2.203125 5.953125 -0.390625 
Q 4.203125 1.40625 4.203125 4.296875 
Q 4.203125 8.703125 7.09375 11.453125 
Q 10 14.203125 16.09375 16 
Q 10.59375 17.5 7.140625 21.59375 
Q 3.703125 25.703125 3.703125 31.203125 
Q 3.703125 38.5 9.34375 42.890625 
Q 15 47.296875 24 47.296875 
Q 29.203125 47.296875 35.203125 45.09375 
L 48.09375 45.09375 
L 48.09375 39.796875 
L 40.09375 39.796875 
Q 44.09375 36.203125 44.09375 30 
Q 44.09375 20.59375 34.90625 16.796875 
Q 32.5 15.796875 30.796875 15.59375 
Q 29.09375 15.40625 22.203125 15.40625 
Q 19.203125 15.40625 17.25 14.046875 
Q 15.296875 12.703125 15.296875 10.5 
Q 15.296875 8.40625 17.390625 7.59375 
Q 19.5 6.796875 25.40625 6.796875 
z
M 30.59375 31.203125 
Q 30.59375 38.203125 29.046875 41.203125 
Q 27.5 44.203125 23.890625 44.203125 
Q 20.296875 44.203125 18.84375 41.296875 
Q 17.40625 38.40625 17.40625 31.09375 
Q 17.40625 24.09375 18.90625 21.140625 
Q 20.40625 18.203125 24 18.203125 
Q 27.59375 18.203125 29.09375 21.140625 
Q 30.59375 24.09375 30.59375 31.203125 
z
M 31.5 -5.203125 
L 15.09375 -5.203125 
Q 13 -6.90625 12.296875 -8 
Q 11.59375 -9.09375 11.59375 -10.703125 
Q 11.59375 -17.40625 25 -17.40625 
Q 32.203125 -17.40625 36.296875 -15.546875 
Q 40.40625 -13.703125 40.40625 -10.796875 
Q 40.40625 -5.203125 31.5 -5.203125 
z
" id="STIXGeneral-Bold-103"/>
      <path d="M 1.59375 67.59375 
L 33.09375 67.59375 
Q 45.90625 67.59375 52.953125 63.046875 
Q 60 58.5 60 49.5 
Q 60 43.5 56.640625 39.046875 
Q 53.296875 34.59375 47.09375 32.296875 
Q 43.90625 31.09375 40.046875 30.75 
Q 36.203125 30.40625 26.203125 30.296875 
L 26.203125 11.09375 
Q 26.203125 6 27.59375 4.59375 
Q 29 3.203125 34.90625 2.5 
L 34.90625 0 
L 1.59375 0 
L 1.59375 2.5 
Q 4.90625 2.796875 6.09375 3.40625 
Q 8.40625 4.296875 9.203125 6.390625 
Q 10 8.5 10 12.59375 
L 10 55.296875 
Q 10 61.09375 8.453125 62.84375 
Q 6.90625 64.59375 1.59375 65.09375 
z
M 26.203125 60.59375 
L 26.203125 33.796875 
Q 35.59375 33.90625 39.1875 37 
Q 42.796875 40.09375 42.796875 48.40625 
Q 42.796875 56.796875 40.09375 60.4375 
Q 37.40625 64.09375 31.203125 64.09375 
Q 26.203125 64.09375 26.203125 60.59375 
z
" id="STIXGeneral-Bold-80"/>
      <path d="M 54.296875 0 
L 30.90625 0 
L 30.90625 2.40625 
Q 35.09375 2.59375 35.09375 4.296875 
Q 35.09375 5.5 32.703125 8.796875 
L 23.203125 22.203125 
L 20.90625 19.796875 
L 20.90625 8.40625 
Q 20.90625 4.90625 21.75 3.90625 
Q 22.59375 2.90625 26.09375 2.40625 
L 26.09375 0 
L 2.203125 0 
L 2.203125 2.40625 
Q 7 2.796875 7 8.40625 
L 7 59.40625 
Q 7 64.796875 2.203125 65.203125 
L 2.203125 67.59375 
L 20.90625 67.59375 
L 20.90625 24.5 
L 33.703125 37.296875 
Q 35.796875 39.40625 35.796875 41.09375 
Q 35.796875 42.90625 32.296875 43.40625 
L 29.90625 43.796875 
L 29.90625 46.09375 
L 51.296875 46.09375 
L 51.296875 43.796875 
Q 46.59375 43.203125 43.25 40.890625 
Q 39.90625 38.59375 32.40625 30.703125 
L 51.796875 3.90625 
Q 52.90625 2.40625 54.296875 2.40625 
z
" id="STIXGeneral-Bold-107"/>
     </defs>
     <use xlink:href="#STIXGeneral-Bold-72"/>
     <use x="77.799988" xlink:href="#STIXGeneral-Bold-105"/>
     <use x="105.599976" xlink:href="#STIXGeneral-Bold-103"/>
     <use x="155.59996" xlink:href="#STIXGeneral-Bold-104"/>
     <use x="211.199951" xlink:href="#STIXGeneral-Bold-32"/>
     <use x="236.199936" xlink:href="#STIXGeneral-Bold-80"/>
     <use x="297.299927" xlink:href="#STIXGeneral-Bold-101"/>
     <use x="341.699921" xlink:href="#STIXGeneral-Bold-97"/>
     <use x="391.699905" xlink:href="#STIXGeneral-Bold-107"/>
    </g>
   </g>
   <g id="text_4">
    <!-- Staffordshire Moorlands -->
    <g transform="translate(210.581223 409.752058)scale(0.15 -0.15)">
     <defs>
      <path d="M 48.40625 47.40625 
L 45.59375 47.40625 
Q 43 55.90625 38.59375 60.40625 
Q 33.203125 66 26.296875 66 
Q 21.203125 66 18.25 63.25 
Q 15.296875 60.5 15.296875 56.09375 
Q 15.296875 52.5 17.390625 50.203125 
Q 19.5 47.90625 25.59375 44.703125 
Q 27.40625 43.703125 32.453125 41.140625 
Q 37.5 38.59375 40.40625 37 
Q 45.296875 34.296875 48.296875 29.640625 
Q 51.296875 25 51.296875 19.40625 
Q 51.296875 9.90625 44.4375 4 
Q 37.59375 -1.90625 26.5 -1.90625 
Q 20.40625 -1.90625 13.5 0.5 
Q 10.40625 1.5 9.40625 1.5 
Q 8.203125 1.5 7.5 0.75 
Q 6.796875 0 6.40625 -1.90625 
L 3.5 -1.90625 
L 3.5 22.90625 
L 6.40625 22.90625 
Q 8.703125 13.296875 12.40625 8.59375 
Q 18.09375 1.40625 26.796875 1.40625 
Q 32.59375 1.40625 36 4.453125 
Q 39.40625 7.5 39.40625 12.703125 
Q 39.40625 17.5 33.703125 21.5 
Q 31.203125 23.296875 21.5 28 
Q 12.59375 32.296875 8.5 37 
Q 4.40625 41.703125 4.40625 49 
Q 4.40625 58.5 10.25 63.796875 
Q 16.09375 69.09375 26.296875 69.09375 
Q 31.796875 69.09375 38 66.796875 
Q 41 65.796875 42.203125 65.796875 
Q 43.59375 65.796875 44.25 66.5 
Q 44.90625 67.203125 45.40625 69.203125 
L 48.40625 69.203125 
z
" id="STIXGeneral-Bold-83"/>
      <path d="M 1.40625 46.09375 
L 7.09375 46.09375 
Q 7.09375 59.203125 11.09375 64 
Q 15.296875 69.09375 24.59375 69.09375 
Q 31 69.09375 34.953125 66.296875 
Q 38.90625 63.5 38.90625 59.09375 
Q 38.90625 56.296875 37.203125 54.5 
Q 35.5 52.703125 32.703125 52.703125 
Q 30.203125 52.703125 28.453125 54.390625 
Q 26.703125 56.09375 26.703125 58.40625 
Q 26.703125 60.40625 27.796875 62.046875 
Q 28.90625 63.703125 28.90625 64.09375 
Q 28.90625 66 26 66 
Q 23.296875 66 22.140625 64.25 
Q 21 62.5 21 58.09375 
L 21 46.09375 
L 29.59375 46.09375 
L 29.59375 41.703125 
L 21 41.703125 
L 21 10.703125 
Q 21 5.703125 22.5 4.09375 
Q 24 2.5 29.203125 2.40625 
L 29.203125 0 
L 1.40625 0 
L 1.40625 2.40625 
Q 4.796875 2.796875 5.9375 4.046875 
Q 7.09375 5.296875 7.09375 8.703125 
L 7.09375 41.703125 
L 1.40625 41.703125 
z
" id="STIXGeneral-Bold-102"/>
      <path d="M 47.59375 22.90625 
Q 47.59375 12.40625 41.140625 5.5 
Q 34.703125 -1.40625 25 -1.40625 
Q 15.5 -1.40625 9 5.4375 
Q 2.5 12.296875 2.5 22.796875 
Q 2.5 33.703125 8.953125 40.5 
Q 15.40625 47.296875 25.40625 47.296875 
Q 34.90625 47.296875 41.25 40.390625 
Q 47.59375 33.5 47.59375 22.90625 
z
M 32.90625 21.796875 
Q 32.90625 34.59375 31.203125 39.390625 
Q 29.5 44.203125 25.09375 44.203125 
Q 20.5 44.203125 18.84375 39.453125 
Q 17.203125 34.703125 17.203125 21.796875 
Q 17.203125 10.90625 19 6.296875 
Q 20.796875 1.703125 25.09375 1.703125 
Q 29.40625 1.703125 31.15625 6.140625 
Q 32.90625 10.59375 32.90625 21.796875 
z
" id="STIXGeneral-Bold-111"/>
      <path d="M 53.40625 2 
L 47.203125 1.203125 
Q 39 0.09375 33.90625 -1.296875 
L 33.90625 5.203125 
Q 30.40625 1.5 27.5 0.046875 
Q 24.59375 -1.40625 20.59375 -1.40625 
Q 12.703125 -1.40625 7.59375 5.1875 
Q 2.5 11.796875 2.5 22.09375 
Q 2.5 33 7.953125 40.140625 
Q 13.40625 47.296875 21.703125 47.296875 
Q 25.09375 47.296875 27.75 45.9375 
Q 30.40625 44.59375 33.59375 41.09375 
L 33.59375 59.40625 
Q 33.59375 62.90625 32.296875 63.84375 
Q 31 64.796875 26 65.203125 
L 26 67.59375 
L 47.5 67.59375 
L 47.5 10.09375 
Q 47.5 6.90625 48.75 5.703125 
Q 50 4.5 53.40625 4.296875 
z
M 33.59375 11.203125 
L 33.59375 35.5 
Q 32.5 38.40625 30.390625 40.046875 
Q 28.296875 41.703125 25.796875 41.703125 
Q 17.296875 41.703125 17.296875 22.90625 
Q 17.296875 4.203125 25.09375 4.203125 
Q 28.703125 4.203125 31.703125 7.90625 
Q 33.59375 10.40625 33.59375 11.203125 
z
" id="STIXGeneral-Bold-100"/>
      <path d="M 92.09375 0 
L 58.90625 0 
L 58.90625 2.5 
Q 64.40625 3 66.09375 4.703125 
Q 67.796875 6.40625 67.796875 10.90625 
L 67.796875 60.5 
L 42.59375 0 
L 39.90625 0 
L 14.703125 59.40625 
L 14.703125 12.90625 
Q 14.703125 7.09375 16.703125 5 
Q 18.703125 2.90625 24.796875 2.5 
L 24.796875 0 
L 1.40625 0 
L 1.40625 2.5 
Q 7.296875 3.09375 8.890625 4.546875 
Q 10.5 6 10.5 10.796875 
L 10.5 57.703125 
Q 10.5 61.796875 8.796875 63.25 
Q 7.09375 64.703125 1.59375 65.09375 
L 1.59375 67.59375 
L 26.90625 67.59375 
L 46.796875 20.40625 
L 66.90625 67.59375 
L 92.09375 67.59375 
L 92.09375 65.09375 
Q 86.59375 64.703125 84.9375 62.84375 
Q 83.296875 61 83.296875 55.40625 
L 83.296875 12.59375 
Q 83.296875 6.90625 84.796875 4.953125 
Q 86.296875 3 92.09375 2.5 
z
" id="STIXGeneral-Bold-77"/>
      <path d="M 53.90625 0 
L 30.5 0 
L 30.5 2.40625 
Q 33 2.703125 34.046875 4.046875 
Q 35.09375 5.40625 35.09375 8.40625 
L 35.09375 32.09375 
Q 35.09375 40.59375 30 40.59375 
Q 26.40625 40.59375 23 37.203125 
Q 21.296875 35.5 21.296875 34.796875 
L 21.296875 8.40625 
Q 21.296875 5.5 22.34375 4.140625 
Q 23.40625 2.796875 26.09375 2.40625 
L 26.09375 0 
L 2.09375 0 
L 2.09375 2.40625 
Q 5.40625 3.09375 6.40625 4.296875 
Q 7.40625 5.5 7.40625 8.703125 
L 7.40625 37.59375 
Q 7.40625 40.796875 6.40625 42 
Q 5.40625 43.203125 2.09375 43.703125 
L 2.09375 46.09375 
L 21.203125 46.09375 
L 21.203125 38.59375 
L 21.296875 38.59375 
Q 26.203125 47.296875 35.5 47.296875 
Q 41.703125 47.296875 45.34375 43.4375 
Q 49 39.59375 49 33.09375 
L 49 8.40625 
Q 49 5 50 3.796875 
Q 51 2.59375 53.90625 2.40625 
z
" id="STIXGeneral-Bold-110"/>
     </defs>
     <use xlink:href="#STIXGeneral-Bold-83"/>
     <use x="55.599991" xlink:href="#STIXGeneral-Bold-116"/>
     <use x="88.899979" xlink:href="#STIXGeneral-Bold-97"/>
     <use x="138.899963" xlink:href="#STIXGeneral-Bold-102"/>
     <use x="172.199951" xlink:href="#STIXGeneral-Bold-102"/>
     <use x="205.499939" xlink:href="#STIXGeneral-Bold-111"/>
     <use x="255.499924" xlink:href="#STIXGeneral-Bold-114"/>
     <use x="299.899918" xlink:href="#STIXGeneral-Bold-100"/>
     <use x="355.499908" xlink:href="#STIXGeneral-Bold-115"/>
     <use x="394.399902" xlink:href="#STIXGeneral-Bold-104"/>
     <use x="449.999893" xlink:href="#STIXGeneral-Bold-105"/>
     <use x="477.799881" xlink:href="#STIXGeneral-Bold-114"/>
     <use x="522.199875" xlink:href="#STIXGeneral-Bold-101"/>
     <use x="566.599869" xlink:href="#STIXGeneral-Bold-32"/>
     <use x="591.599854" xlink:href="#STIXGeneral-Bold-77"/>
     <use x="685.999847" xlink:href="#STIXGeneral-Bold-111"/>
     <use x="735.999832" xlink:href="#STIXGeneral-Bold-111"/>
     <use x="785.999817" xlink:href="#STIXGeneral-Bold-114"/>
     <use x="830.399811" xlink:href="#STIXGeneral-Bold-108"/>
     <use x="858.199799" xlink:href="#STIXGeneral-Bold-97"/>
     <use x="908.199783" xlink:href="#STIXGeneral-Bold-110"/>
     <use x="963.799774" xlink:href="#STIXGeneral-Bold-100"/>
     <use x="1019.399765" xlink:href="#STIXGeneral-Bold-115"/>
    </g>
   </g>
   <g id="text_5">
    <!-- Oldham -->
    <g transform="translate(240.62642 146.794066)scale(0.15 -0.15)">
     <defs>
      <path d="M 74.296875 33.5 
Q 74.296875 17.90625 64.34375 8 
Q 54.40625 -1.90625 38.796875 -1.90625 
Q 23.296875 -1.90625 13.390625 8 
Q 3.5 17.90625 3.5 33.40625 
Q 3.5 49.296875 13.59375 59.1875 
Q 23.703125 69.09375 39.40625 69.09375 
Q 54.5 69.09375 64.390625 59.046875 
Q 74.296875 49 74.296875 33.5 
z
M 56.59375 32.796875 
Q 56.59375 48.796875 51.9375 57.296875 
Q 47.296875 65.796875 38.5 65.796875 
Q 30.203125 65.796875 25.703125 57.25 
Q 21.203125 48.703125 21.203125 33 
Q 21.203125 17.296875 25.796875 9.34375 
Q 30.40625 1.40625 39 1.40625 
Q 47.59375 1.40625 52.09375 9.40625 
Q 56.59375 17.40625 56.59375 32.796875 
z
" id="STIXGeneral-Bold-79"/>
      <path d="M 81.40625 0 
L 57.703125 0 
L 57.703125 2.40625 
Q 60.5 2.59375 61.5 3.84375 
Q 62.5 5.09375 62.5 8.296875 
L 62.5 31.09375 
Q 62.5 40.59375 57.203125 40.59375 
Q 54.296875 40.59375 51.40625 38.09375 
Q 50.5 37.40625 49.59375 36.296875 
Q 48.703125 35.203125 48.703125 34.796875 
L 48.703125 8.296875 
Q 48.703125 5.40625 49.703125 4.046875 
Q 50.703125 2.703125 53.296875 2.40625 
L 53.296875 0 
L 30.09375 0 
L 30.09375 2.40625 
Q 32.796875 2.59375 33.796875 3.890625 
Q 34.796875 5.203125 34.796875 8.296875 
L 34.796875 32.296875 
Q 34.796875 36.796875 33.546875 38.6875 
Q 32.296875 40.59375 29.40625 40.59375 
Q 27.5 40.59375 24.25 38.34375 
Q 21 36.09375 21 34.40625 
L 21 8.296875 
Q 21 5.40625 21.953125 4.09375 
Q 22.90625 2.796875 25.5 2.40625 
L 25.5 0 
L 1.59375 0 
L 1.59375 2.40625 
Q 4.90625 3 6 4.25 
Q 7.09375 5.5 7.09375 8.59375 
L 7.09375 37.296875 
Q 7.09375 40.796875 6 42 
Q 4.90625 43.203125 1.5 43.703125 
L 1.5 46.09375 
L 20.703125 46.09375 
L 20.703125 38.59375 
L 21 38.59375 
Q 23.90625 43.203125 27.25 45.25 
Q 30.59375 47.296875 35.40625 47.296875 
Q 40.09375 47.296875 43 45.296875 
Q 45.90625 43.296875 48.203125 38.59375 
Q 52.09375 43.40625 55.34375 45.34375 
Q 58.59375 47.296875 62.90625 47.296875 
Q 69.09375 47.296875 72.75 43.5 
Q 76.40625 39.703125 76.40625 33.09375 
L 76.40625 8.296875 
Q 76.40625 5.09375 77.453125 3.796875 
Q 78.5 2.5 81.40625 2.40625 
z
" id="STIXGeneral-Bold-109"/>
     </defs>
     <use xlink:href="#STIXGeneral-Bold-79"/>
     <use x="77.799988" xlink:href="#STIXGeneral-Bold-108"/>
     <use x="105.599976" xlink:href="#STIXGeneral-Bold-100"/>
     <use x="161.199966" xlink:href="#STIXGeneral-Bold-104"/>
     <use x="216.799957" xlink:href="#STIXGeneral-Bold-97"/>
     <use x="266.799942" xlink:href="#STIXGeneral-Bold-109"/>
    </g>
   </g>
   <g id="text_6">
    <!-- Stockport -->
    <g transform="translate(209.650831 237.299483)scale(0.15 -0.15)">
     <defs>
      <path d="M 41.203125 10.90625 
L 43 9.09375 
Q 38.90625 3.5 34.40625 1.046875 
Q 29.90625 -1.40625 23.90625 -1.40625 
Q 14.40625 -1.40625 8.453125 5.09375 
Q 2.5 11.59375 2.5 22.203125 
Q 2.5 33.203125 9.296875 40.25 
Q 16.09375 47.296875 26.203125 47.296875 
Q 32.796875 47.296875 37.1875 44.1875 
Q 41.59375 41.09375 41.59375 36.296875 
Q 41.59375 33.40625 39.75 31.65625 
Q 37.90625 29.90625 34.796875 29.90625 
Q 32.203125 29.90625 30.703125 31.796875 
Q 29.203125 33.703125 29.203125 37.203125 
Q 29.203125 39 29.140625 39.796875 
Q 29.09375 40.59375 28.890625 41.640625 
Q 28.703125 42.703125 28.296875 43.140625 
Q 27.90625 43.59375 27.046875 43.890625 
Q 26.203125 44.203125 25 44.203125 
Q 21.203125 44.203125 18.890625 39.75 
Q 16.59375 35.296875 16.59375 27.296875 
Q 16.59375 17.09375 20.296875 11.1875 
Q 24 5.296875 30.5 5.296875 
Q 36.296875 5.296875 41.203125 10.90625 
z
" id="STIXGeneral-Bold-99"/>
      <path d="M 21.203125 46.09375 
L 21.203125 39.203125 
Q 23.703125 43.59375 26.75 45.4375 
Q 29.796875 47.296875 34.296875 47.296875 
Q 42.796875 47.296875 47.59375 41.546875 
Q 52.40625 35.796875 52.40625 24.90625 
Q 52.40625 13.09375 47.25 5.890625 
Q 42.09375 -1.296875 33.203125 -1.296875 
Q 29.796875 -1.296875 27.390625 -0.046875 
Q 25 1.203125 21.40625 4.703125 
L 21.40625 -7.90625 
Q 21.40625 -13.09375 23.046875 -15.5 
Q 24.703125 -17.90625 29.09375 -18.09375 
L 29.09375 -20.5 
L 1.90625 -20.5 
L 1.90625 -18.09375 
Q 5.40625 -17.5 6.453125 -16.25 
Q 7.5 -15 7.5 -11.796875 
L 7.5 37.203125 
Q 7.5 40.5 6.390625 41.84375 
Q 5.296875 43.203125 2 43.703125 
L 2 46.09375 
z
M 21.40625 34.59375 
L 21.40625 10.703125 
Q 22.59375 7.796875 24.640625 6 
Q 26.703125 4.203125 29.09375 4.203125 
Q 37.59375 4.203125 37.59375 23.40625 
Q 37.59375 41.59375 30 41.59375 
Q 26.296875 41.59375 23.203125 37.90625 
Q 21.40625 35.796875 21.40625 34.59375 
z
" id="STIXGeneral-Bold-112"/>
     </defs>
     <use xlink:href="#STIXGeneral-Bold-83"/>
     <use x="55.599991" xlink:href="#STIXGeneral-Bold-116"/>
     <use x="88.899979" xlink:href="#STIXGeneral-Bold-111"/>
     <use x="138.899963" xlink:href="#STIXGeneral-Bold-99"/>
     <use x="183.299957" xlink:href="#STIXGeneral-Bold-107"/>
     <use x="238.899948" xlink:href="#STIXGeneral-Bold-112"/>
     <use x="294.499939" xlink:href="#STIXGeneral-Bold-111"/>
     <use x="344.499924" xlink:href="#STIXGeneral-Bold-114"/>
     <use x="388.899918" xlink:href="#STIXGeneral-Bold-116"/>
    </g>
   </g>
   <g id="text_7">
    <!-- Tameside -->
    <g transform="translate(227.682633 191.599871)scale(0.15 -0.15)">
     <defs>
      <path d="M 63.59375 47.5 
L 60.703125 47.5 
Q 59.40625 56.40625 55.046875 60.25 
Q 50.703125 64.09375 41.5 64.40625 
L 41.5 11.703125 
Q 41.5 6 43.140625 4.5 
Q 44.796875 3 51.296875 2.5 
L 51.296875 0 
L 15.59375 0 
L 15.59375 2.5 
Q 22 3 23.640625 4.546875 
Q 25.296875 6.09375 25.296875 11.703125 
L 25.296875 64.40625 
Q 16 64.09375 11.640625 60.25 
Q 7.296875 56.40625 6 47.5 
L 3.09375 47.5 
L 3.40625 67.59375 
L 63.40625 67.59375 
z
" id="STIXGeneral-Bold-84"/>
     </defs>
     <use xlink:href="#STIXGeneral-Bold-84"/>
     <use x="66.699997" xlink:href="#STIXGeneral-Bold-97"/>
     <use x="116.699982" xlink:href="#STIXGeneral-Bold-109"/>
     <use x="199.999969" xlink:href="#STIXGeneral-Bold-101"/>
     <use x="244.399963" xlink:href="#STIXGeneral-Bold-115"/>
     <use x="283.299957" xlink:href="#STIXGeneral-Bold-105"/>
     <use x="311.099945" xlink:href="#STIXGeneral-Bold-100"/>
     <use x="366.699936" xlink:href="#STIXGeneral-Bold-101"/>
    </g>
   </g>
   <g id="text_8">
    <!-- Barnsley -->
    <g transform="translate(401.938672 163.359631)scale(0.15 -0.15)">
     <defs>
      <path d="M 42.59375 36.5 
L 42.59375 36.40625 
Q 51.09375 35.296875 56.5 30.546875 
Q 61.90625 25.796875 61.90625 18.796875 
Q 61.90625 10.5 54.703125 5.25 
Q 47.5 0 34.5 0 
L 1.59375 0 
L 1.59375 2.5 
Q 7.09375 3.09375 8.75 4.59375 
Q 10.40625 6.09375 10.40625 10.296875 
L 10.40625 57 
Q 10.40625 61.40625 8.546875 63.046875 
Q 6.703125 64.703125 1.59375 65.09375 
L 1.59375 67.59375 
L 33.296875 67.59375 
Q 45.40625 67.59375 51.953125 63.4375 
Q 58.5 59.296875 58.5 51.59375 
Q 58.5 45.703125 54.796875 41.953125 
Q 51.09375 38.203125 42.59375 36.5 
z
M 26.40625 59.203125 
L 26.40625 37.296875 
Q 35.5 37.296875 38.75 40.296875 
Q 42 43.296875 42 50.90625 
Q 42 64.59375 32.09375 64.59375 
Q 29.09375 64.59375 27.75 63.34375 
Q 26.40625 62.09375 26.40625 59.203125 
z
M 26.40625 34.296875 
L 26.40625 9.796875 
Q 26.40625 6.203125 27.90625 4.703125 
Q 29.40625 3.203125 32.703125 3.203125 
Q 38.5 3.203125 41.59375 7.203125 
Q 44.703125 11.203125 44.703125 18.796875 
Q 44.703125 34.296875 29 34.296875 
z
" id="STIXGeneral-Bold-66"/>
     </defs>
     <use xlink:href="#STIXGeneral-Bold-66"/>
     <use x="66.699997" xlink:href="#STIXGeneral-Bold-97"/>
     <use x="116.699982" xlink:href="#STIXGeneral-Bold-114"/>
     <use x="161.099976" xlink:href="#STIXGeneral-Bold-110"/>
     <use x="216.699966" xlink:href="#STIXGeneral-Bold-115"/>
     <use x="255.59996" xlink:href="#STIXGeneral-Bold-108"/>
     <use x="283.399948" xlink:href="#STIXGeneral-Bold-101"/>
     <use x="327.799942" xlink:href="#STIXGeneral-Bold-121"/>
    </g>
   </g>
   <g id="text_9">
    <!-- Sheffield -->
    <g transform="translate(408.646899 232.30175)scale(0.15 -0.15)">
     <use xlink:href="#STIXGeneral-Bold-83"/>
     <use x="55.599991" xlink:href="#STIXGeneral-Bold-104"/>
     <use x="111.199982" xlink:href="#STIXGeneral-Bold-101"/>
     <use x="155.599976" xlink:href="#STIXGeneral-Bold-102"/>
     <use x="188.899963" xlink:href="#STIXGeneral-Bold-102"/>
     <use x="222.199951" xlink:href="#STIXGeneral-Bold-105"/>
     <use x="249.999939" xlink:href="#STIXGeneral-Bold-101"/>
     <use x="294.399933" xlink:href="#STIXGeneral-Bold-108"/>
     <use x="322.199921" xlink:href="#STIXGeneral-Bold-100"/>
    </g>
   </g>
   <g id="text_10">
    <!-- Kirklees -->
    <g transform="translate(325.355183 102.225544)scale(0.15 -0.15)">
     <defs>
      <path d="M 76.90625 0 
L 43.5 0 
L 43.5 2.5 
Q 48.203125 2.59375 49.703125 3.09375 
Q 51.203125 3.59375 51.203125 4.59375 
Q 51.203125 5.90625 48.703125 9.09375 
L 30.59375 31.59375 
L 27.90625 29.09375 
L 27.90625 9.5 
Q 27.90625 5.796875 29.546875 4.5 
Q 31.203125 3.203125 36.59375 2.5 
L 36.59375 0 
L 3 0 
L 3 2.5 
Q 8.5 3 10.09375 4.390625 
Q 11.703125 5.796875 11.703125 10.09375 
L 11.703125 57.296875 
Q 11.703125 61.90625 10 63.34375 
Q 8.296875 64.796875 3 65.09375 
L 3 67.59375 
L 36.703125 67.59375 
L 36.703125 65.09375 
Q 31.296875 64.703125 29.59375 63.046875 
Q 27.90625 61.40625 27.90625 56.703125 
L 27.90625 34.40625 
L 49.09375 55.90625 
Q 51.5 58.296875 52.296875 59.390625 
Q 53.09375 60.5 53.09375 61.703125 
Q 53.09375 63.203125 52.046875 63.890625 
Q 51 64.59375 48.296875 64.796875 
L 44.796875 65.09375 
L 44.796875 67.59375 
L 73.703125 67.59375 
L 73.703125 65.09375 
Q 65.90625 64.203125 60.40625 60.453125 
Q 54.90625 56.703125 41.5 42.40625 
L 72 4.59375 
Q 73.59375 2.59375 76.90625 2.5 
z
" id="STIXGeneral-Bold-75"/>
     </defs>
     <use xlink:href="#STIXGeneral-Bold-75"/>
     <use x="77.799988" xlink:href="#STIXGeneral-Bold-105"/>
     <use x="105.599976" xlink:href="#STIXGeneral-Bold-114"/>
     <use x="149.999969" xlink:href="#STIXGeneral-Bold-107"/>
     <use x="205.59996" xlink:href="#STIXGeneral-Bold-108"/>
     <use x="233.399948" xlink:href="#STIXGeneral-Bold-101"/>
     <use x="277.799942" xlink:href="#STIXGeneral-Bold-101"/>
     <use x="322.199936" xlink:href="#STIXGeneral-Bold-115"/>
    </g>
   </g>
  </g>
 </g>
 <defs>
  <clipPath id="p6208f9fdb0">
   <rect height="543.6" width="538.242725" x="7.2" y="7.2"/>
  </clipPath>
 </defs>
</svg>
