<?xml version="1.0" encoding="utf-8" standalone="no"?>
<!DOCTYPE svg PUBLIC "-//W3C//DTD SVG 1.1//EN"
  "http://www.w3.org/Graphics/SVG/1.1/DTD/svg11.dtd">
<!-- Created with matplotlib (https://matplotlib.org/) -->
<svg height="492.075625pt" version="1.1" viewBox="0 0 255.007178 492.075625" width="255.007178pt" xmlns="http://www.w3.org/2000/svg" xmlns:xlink="http://www.w3.org/1999/xlink">
 <metadata>
  <rdf:RDF xmlns:cc="http://creativecommons.org/ns#" xmlns:dc="http://purl.org/dc/elements/1.1/" xmlns:rdf="http://www.w3.org/1999/02/22-rdf-syntax-ns#">
   <cc:Work>
    <dc:type rdf:resource="http://purl.org/dc/dcmitype/StillImage"/>
    <dc:date>2021-07-03T19:07:52.580364</dc:date>
    <dc:format>image/svg+xml</dc:format>
    <dc:creator>
     <cc:Agent>
      <dc:title>Matplotlib v3.3.4, https://matplotlib.org/</dc:title>
     </cc:Agent>
    </dc:creator>
   </cc:Work>
  </rdf:RDF>
 </metadata>
 <defs>
  <style type="text/css">*{stroke-linecap:butt;stroke-linejoin:round;}</style>
 </defs>
 <g id="figure_1">
  <g id="patch_1">
   <path d="M 0 492.075625 
L 255.007178 492.075625 
L 255.007178 0 
L 0 0 
z
" style="fill:none;"/>
  </g>
  <g id="axes_1">
   <g id="patch_2">
    <path d="M 20.2 453.275625 
L 247.807178 453.275625 
L 247.807178 18.395625 
L 20.2 18.395625 
z
" style="fill:#ffffff;"/>
   </g>
   <g id="matplotlib.axis_1">
    <g id="xtick_1">
     <g id="line2d_1">
      <defs>
       <path d="M 0 0 
L 0 3.5 
" id="m6428f18b47" style="stroke:#323034;stroke-width:0.8;"/>
      </defs>
      <g>
       <use style="fill:#323034;stroke:#323034;stroke-width:0.8;" x="24.916253" xlink:href="#m6428f18b47" y="453.275625"/>
      </g>
     </g>
     <g id="text_1">
      <!-- $\mathdefault{2}$ -->
      <g style="fill:#323034;" transform="translate(21.916253 468.47125)scale(0.12 -0.12)">
       <defs>
        <path d="M 47.40625 13.703125 
L 42 0 
L 2.90625 0 
L 2.90625 1.203125 
L 20.703125 20.09375 
Q 27.703125 27.40625 30.703125 33.5 
Q 33.703125 39.59375 33.703125 46.09375 
Q 33.703125 52.796875 30 56.5 
Q 26.296875 60.203125 19.796875 60.203125 
Q 14.40625 60.203125 11.25 57.390625 
Q 8.09375 54.59375 5.09375 47.203125 
L 3 47.703125 
Q 4.703125 57 9.84375 62.296875 
Q 15 67.59375 23.796875 67.59375 
Q 32.09375 67.59375 37.1875 62.59375 
Q 42.296875 57.59375 42.296875 50 
Q 42.296875 38.703125 29.5 25.203125 
L 13 7.59375 
L 36.40625 7.59375 
Q 39.703125 7.59375 41.640625 8.890625 
Q 43.59375 10.203125 46 14.296875 
z
" id="STIXGeneral-Regular-50"/>
       </defs>
       <use transform="translate(0 0.40625)" xlink:href="#STIXGeneral-Regular-50"/>
      </g>
     </g>
    </g>
    <g id="xtick_2">
     <g id="line2d_2">
      <g>
       <use style="fill:#323034;stroke:#323034;stroke-width:0.8;" x="83.024369" xlink:href="#m6428f18b47" y="453.275625"/>
      </g>
     </g>
     <g id="text_2">
      <!-- $\mathdefault{3}$ -->
      <g style="fill:#323034;" transform="translate(80.024369 468.47125)scale(0.12 -0.12)">
       <defs>
        <path d="M 6.09375 51 
L 4.5 51.40625 
Q 6.796875 58.90625 11.6875 63.25 
Q 16.59375 67.59375 24.09375 67.59375 
Q 31.09375 67.59375 35.390625 63.796875 
Q 39.703125 60 39.703125 53.90625 
Q 39.703125 45.703125 30.40625 40.09375 
Q 35.90625 37.703125 38.703125 34.796875 
Q 43.09375 29.90625 43.09375 21.90625 
Q 43.09375 13.90625 38.5 7.90625 
Q 35.09375 3.296875 28.75 0.9375 
Q 22.40625 -1.40625 15.296875 -1.40625 
Q 4.09375 -1.40625 4.09375 4.296875 
Q 4.09375 5.90625 5.296875 6.90625 
Q 6.5 7.90625 8.203125 7.90625 
Q 10.703125 7.90625 14.296875 5.296875 
Q 18.703125 2.203125 22.90625 2.203125 
Q 28.40625 2.203125 32.15625 6.640625 
Q 35.90625 11.09375 35.90625 17.5 
Q 35.90625 29 25.5 32 
Q 22.40625 33 15.296875 33 
L 15.296875 34.40625 
Q 20.90625 36.296875 23.703125 38 
Q 31.796875 42.59375 31.796875 51.40625 
Q 31.796875 56.40625 28.9375 59 
Q 26.09375 61.59375 21 61.59375 
Q 12 61.59375 6.09375 51 
z
" id="STIXGeneral-Regular-51"/>
       </defs>
       <use transform="translate(0 0.40625)" xlink:href="#STIXGeneral-Regular-51"/>
      </g>
     </g>
    </g>
    <g id="xtick_3">
     <g id="line2d_3">
      <g>
       <use style="fill:#323034;stroke:#323034;stroke-width:0.8;" x="141.132486" xlink:href="#m6428f18b47" y="453.275625"/>
      </g>
     </g>
     <g id="text_3">
      <!-- $\mathdefault{4}$ -->
      <g style="fill:#323034;" transform="translate(138.132486 468.47125)scale(0.12 -0.12)">
       <defs>
        <path d="M 47.296875 16.703125 
L 37 16.703125 
L 37 0 
L 29.203125 0 
L 29.203125 16.703125 
L 1.203125 16.703125 
L 1.203125 23.09375 
L 32.59375 67.59375 
L 37 67.59375 
L 37 23.09375 
L 47.296875 23.09375 
z
M 29.203125 23.09375 
L 29.203125 57.40625 
L 5.203125 23.09375 
z
" id="STIXGeneral-Regular-52"/>
       </defs>
       <use transform="translate(0 0.40625)" xlink:href="#STIXGeneral-Regular-52"/>
      </g>
     </g>
    </g>
    <g id="xtick_4">
     <g id="line2d_4">
      <g>
       <use style="fill:#323034;stroke:#323034;stroke-width:0.8;" x="199.240602" xlink:href="#m6428f18b47" y="453.275625"/>
      </g>
     </g>
     <g id="text_4">
      <!-- $\mathdefault{5}$ -->
      <g style="fill:#323034;" transform="translate(196.240602 468.47125)scale(0.12 -0.12)">
       <defs>
        <path d="M 43.796875 68.09375 
L 40.203125 59.59375 
Q 39.59375 58.296875 37.5 58.296875 
L 18.09375 58.296875 
L 14.09375 49.796875 
Q 25.09375 47.703125 30 45.25 
Q 34.90625 42.796875 39.09375 37 
Q 42.59375 32.203125 42.59375 24.296875 
Q 42.59375 17.09375 40.25 12.1875 
Q 37.90625 7.296875 32.796875 3.5 
Q 26 -1.40625 15.796875 -1.40625 
Q 10.09375 -1.40625 6.59375 0.296875 
Q 3.09375 2 3.09375 4.796875 
Q 3.09375 8.59375 7.59375 8.59375 
Q 11.203125 8.59375 15 5.5 
Q 18.90625 2.296875 22.09375 2.296875 
Q 27.296875 2.296875 31.4375 7.5 
Q 35.59375 12.703125 35.59375 19.203125 
Q 35.59375 28.796875 28.90625 34.203125 
Q 20.203125 41.203125 7.59375 41.203125 
Q 6.40625 41.203125 6.40625 42 
L 6.5 42.5 
L 17.40625 66.203125 
L 38.09375 66.203125 
Q 39.796875 66.203125 40.75 66.703125 
Q 41.703125 67.203125 42.90625 68.796875 
z
" id="STIXGeneral-Regular-53"/>
       </defs>
       <use transform="translate(0 0.203125)" xlink:href="#STIXGeneral-Regular-53"/>
      </g>
     </g>
    </g>
    <g id="text_5">
     <!-- $\times\mathdefault{10^{5}}\mathdefault{}$ -->
     <g style="fill:#323034;" transform="translate(223.087178 482.27125)scale(0.12 -0.12)">
      <defs>
       <path d="M 59.703125 2.203125 
L 55.09375 -2.5 
L 32 20.5 
L 8.90625 -2.5 
L 4.296875 2.09375 
L 27.296875 25.203125 
L 4.296875 48.296875 
L 9 52.90625 
L 32 29.90625 
L 55.09375 52.90625 
L 59.703125 48.40625 
L 36.703125 25.203125 
z
" id="STIXGeneral-Regular-215"/>
       <path d="M 39.40625 0 
L 11.796875 0 
L 11.796875 1.5 
Q 17.296875 1.796875 19.296875 3.546875 
Q 21.296875 5.296875 21.296875 9.5 
L 21.296875 54.40625 
Q 21.296875 59.296875 18.296875 59.296875 
Q 16.90625 59.296875 13.796875 58.09375 
L 11.09375 57.09375 
L 11.09375 58.5 
L 29 67.59375 
L 29.90625 67.296875 
L 29.90625 7.59375 
Q 29.90625 4.296875 31.90625 2.890625 
Q 33.90625 1.5 39.40625 1.5 
z
" id="STIXGeneral-Regular-49"/>
       <path d="M 47.59375 33 
Q 47.59375 26.296875 46.296875 20.34375 
Q 45 14.40625 42.453125 9.40625 
Q 39.90625 4.40625 35.40625 1.5 
Q 30.90625 -1.40625 25 -1.40625 
Q 18.90625 -1.40625 14.296875 1.6875 
Q 9.703125 4.796875 7.203125 10 
Q 4.703125 15.203125 3.546875 21.09375 
Q 2.40625 27 2.40625 33.59375 
Q 2.40625 42.90625 4.703125 50.34375 
Q 7 57.796875 12.34375 62.6875 
Q 17.703125 67.59375 25.40625 67.59375 
Q 35.203125 67.59375 41.390625 58 
Q 47.59375 48.40625 47.59375 33 
z
M 38 32.5 
Q 38 48.296875 34.640625 56.640625 
Q 31.296875 65 24.796875 65 
Q 18.59375 65 15.296875 56.59375 
Q 12 48.203125 12 32.90625 
Q 12 17.5 15.296875 9.34375 
Q 18.59375 1.203125 25 1.203125 
Q 31.296875 1.203125 34.640625 9.34375 
Q 38 17.5 38 32.5 
z
" id="STIXGeneral-Regular-48"/>
      </defs>
      <use transform="translate(0 0.842187)" xlink:href="#STIXGeneral-Regular-215"/>
      <use transform="translate(63.999985 0.842187)" xlink:href="#STIXGeneral-Regular-49"/>
      <use transform="translate(113.999969 0.842187)" xlink:href="#STIXGeneral-Regular-48"/>
      <use transform="translate(165.574954 36.842187)scale(0.7)" xlink:href="#STIXGeneral-Regular-53"/>
     </g>
    </g>
   </g>
   <g id="matplotlib.axis_2">
    <g id="ytick_1">
     <g id="line2d_5">
      <defs>
       <path d="M 0 0 
L -3.5 0 
" id="m0d51b81ff0" style="stroke:#323034;stroke-width:0.8;"/>
      </defs>
      <g>
       <use style="fill:#323034;stroke:#323034;stroke-width:0.8;" x="20.2" xlink:href="#m0d51b81ff0" y="414.174455"/>
      </g>
     </g>
     <g id="text_6">
      <!-- $\mathdefault{2}$ -->
      <g style="fill:#323034;" transform="translate(7.2 418.272268)scale(0.12 -0.12)">
       <use transform="translate(0 0.40625)" xlink:href="#STIXGeneral-Regular-50"/>
      </g>
     </g>
    </g>
    <g id="ytick_2">
     <g id="line2d_6">
      <g>
       <use style="fill:#323034;stroke:#323034;stroke-width:0.8;" x="20.2" xlink:href="#m0d51b81ff0" y="356.066339"/>
      </g>
     </g>
     <g id="text_7">
      <!-- $\mathdefault{3}$ -->
      <g style="fill:#323034;" transform="translate(7.2 360.164152)scale(0.12 -0.12)">
       <use transform="translate(0 0.40625)" xlink:href="#STIXGeneral-Regular-51"/>
      </g>
     </g>
    </g>
    <g id="ytick_3">
     <g id="line2d_7">
      <g>
       <use style="fill:#323034;stroke:#323034;stroke-width:0.8;" x="20.2" xlink:href="#m0d51b81ff0" y="297.958223"/>
      </g>
     </g>
     <g id="text_8">
      <!-- $\mathdefault{4}$ -->
      <g style="fill:#323034;" transform="translate(7.2 302.056036)scale(0.12 -0.12)">
       <use transform="translate(0 0.40625)" xlink:href="#STIXGeneral-Regular-52"/>
      </g>
     </g>
    </g>
    <g id="ytick_4">
     <g id="line2d_8">
      <g>
       <use style="fill:#323034;stroke:#323034;stroke-width:0.8;" x="20.2" xlink:href="#m0d51b81ff0" y="239.850107"/>
      </g>
     </g>
     <g id="text_9">
      <!-- $\mathdefault{5}$ -->
      <g style="fill:#323034;" transform="translate(7.2 243.947919)scale(0.12 -0.12)">
       <use transform="translate(0 0.203125)" xlink:href="#STIXGeneral-Regular-53"/>
      </g>
     </g>
    </g>
    <g id="ytick_5">
     <g id="line2d_9">
      <g>
       <use style="fill:#323034;stroke:#323034;stroke-width:0.8;" x="20.2" xlink:href="#m0d51b81ff0" y="181.741991"/>
      </g>
     </g>
     <g id="text_10">
      <!-- $\mathdefault{6}$ -->
      <g style="fill:#323034;" transform="translate(7.2 185.839803)scale(0.12 -0.12)">
       <defs>
        <path d="M 44.59375 68.40625 
L 44.796875 66.796875 
Q 33 64.90625 25.09375 57.25 
Q 17.203125 49.59375 15.203125 38.296875 
Q 21 42.796875 27.90625 42.796875 
Q 36.703125 42.796875 41.75 37.1875 
Q 46.796875 31.59375 46.796875 21.90625 
Q 46.796875 12.09375 41.703125 5.90625 
Q 35.796875 -1.40625 25.796875 -1.40625 
Q 13.59375 -1.40625 8.09375 8.703125 
Q 3.40625 17.296875 3.40625 27.90625 
Q 3.40625 44.296875 14.296875 55.5 
Q 20.5 61.90625 27.046875 64.546875 
Q 33.59375 67.203125 44.59375 68.40625 
z
M 37.796875 18.796875 
Q 37.796875 38.203125 24.296875 38.203125 
Q 19.296875 38.203125 16 35.546875 
Q 12.703125 32.90625 12.703125 26.59375 
Q 12.703125 14.90625 16.34375 8.15625 
Q 20 1.40625 26.90625 1.40625 
Q 32.203125 1.40625 35 6.15625 
Q 37.796875 10.90625 37.796875 18.796875 
z
" id="STIXGeneral-Regular-54"/>
       </defs>
       <use transform="translate(0 0.59375)" xlink:href="#STIXGeneral-Regular-54"/>
      </g>
     </g>
    </g>
    <g id="ytick_6">
     <g id="line2d_10">
      <g>
       <use style="fill:#323034;stroke:#323034;stroke-width:0.8;" x="20.2" xlink:href="#m0d51b81ff0" y="123.633875"/>
      </g>
     </g>
     <g id="text_11">
      <!-- $\mathdefault{7}$ -->
      <g style="fill:#323034;" transform="translate(7.2 127.731687)scale(0.12 -0.12)">
       <defs>
        <path d="M 44.90625 64.59375 
L 23.703125 -0.796875 
L 17.203125 -0.796875 
L 37 58.796875 
L 15.5 58.796875 
Q 11.203125 58.796875 9.09375 57.296875 
Q 7 55.796875 3.796875 50.59375 
L 2 51.5 
L 8 66.203125 
L 44.90625 66.203125 
z
" id="STIXGeneral-Regular-55"/>
       </defs>
       <use transform="translate(0 0.796875)" xlink:href="#STIXGeneral-Regular-55"/>
      </g>
     </g>
    </g>
    <g id="ytick_7">
     <g id="line2d_11">
      <g>
       <use style="fill:#323034;stroke:#323034;stroke-width:0.8;" x="20.2" xlink:href="#m0d51b81ff0" y="65.525759"/>
      </g>
     </g>
     <g id="text_12">
      <!-- $\mathdefault{8}$ -->
      <g style="fill:#323034;" transform="translate(7.2 69.623571)scale(0.12 -0.12)">
       <defs>
        <path d="M 44.5 15.5 
Q 44.5 7.796875 39.140625 3.1875 
Q 33.796875 -1.40625 24.796875 -1.40625 
Q 16.40625 -1.40625 11 3.1875 
Q 5.59375 7.796875 5.59375 14.90625 
Q 5.59375 20.203125 8.1875 23.953125 
Q 10.796875 27.703125 18.59375 33.203125 
Q 11.09375 39.40625 8.640625 43.203125 
Q 6.203125 47 6.203125 52 
Q 6.203125 59.09375 11.640625 63.34375 
Q 17.09375 67.59375 25.59375 67.59375 
Q 32.90625 67.59375 37.65625 63.4375 
Q 42.40625 59.296875 42.40625 53.296875 
Q 42.40625 47.796875 39.546875 44.5 
Q 36.703125 41.203125 29 37.09375 
Q 38 31.09375 41.25 26.390625 
Q 44.5 21.703125 44.5 15.5 
z
M 35.5 53.296875 
Q 35.5 58.5 32.59375 61.640625 
Q 29.703125 64.796875 24.59375 64.796875 
Q 19.5 64.796875 16.546875 62.140625 
Q 13.59375 59.5 13.59375 54.890625 
Q 13.59375 50.296875 16.546875 46.546875 
Q 19.5 42.796875 26.09375 38.90625 
Q 31.203125 41.90625 33.34375 45.25 
Q 35.5 48.59375 35.5 53.296875 
z
M 27.09375 27.203125 
L 21.203125 31.203125 
Q 16.796875 27.59375 15 24.140625 
Q 13.203125 20.703125 13.203125 15.796875 
Q 13.203125 9 16.640625 5.203125 
Q 20.09375 1.40625 25.90625 1.40625 
Q 30.796875 1.40625 33.84375 4.453125 
Q 36.90625 7.5 36.90625 12.40625 
Q 36.90625 16.90625 34.59375 20.296875 
Q 32.296875 23.703125 27.09375 27.203125 
z
" id="STIXGeneral-Regular-56"/>
       </defs>
       <use transform="translate(0 0.40625)" xlink:href="#STIXGeneral-Regular-56"/>
      </g>
     </g>
    </g>
    <g id="text_13">
     <!-- $\times\mathdefault{10^{5}}\mathdefault{}$ -->
     <g style="fill:#323034;" transform="translate(20.2 15.395625)scale(0.12 -0.12)">
      <use transform="translate(0 0.842187)" xlink:href="#STIXGeneral-Regular-215"/>
      <use transform="translate(63.999985 0.842187)" xlink:href="#STIXGeneral-Regular-49"/>
      <use transform="translate(113.999969 0.842187)" xlink:href="#STIXGeneral-Regular-48"/>
      <use transform="translate(165.574954 36.842187)scale(0.7)" xlink:href="#STIXGeneral-Regular-53"/>
     </g>
    </g>
   </g>
   <g id="LineCollection_1">
    <path clip-path="url(#p69275cc18d)" d="M 139.155919 404.911444 
L 140.302534 405.395896 
L 141.273556 406.300671 
L 142.000821 407.825803 
L 142.343905 409.529742 
L 142.413371 411.817552 
L 143.132733 413.237196 
L 143.679617 414.735699 
L 147.28936 416.797311 
L 148.074838 416.974387 
L 148.496496 416.836625 
L 151.650924 416.658779 
L 152.429714 416.30879 
L 153.523068 414.981686 
L 153.935101 415.008855 
L 155.617663 415.453388 
L 156.453604 415.238789 
L 158.777537 414.03188 
L 161.921412 414.011335 
L 162.358306 413.866206 
L 163.219733 413.252378 
L 163.69245 413.114669 
L 164.131287 413.245391 
L 165.108646 413.69517 
L 165.630559 413.580413 
L 166.26645 412.659864 
L 166.796058 410.091162 
L 167.508585 409.11179 
L 168.225642 408.673955 
L 168.687829 408.559193 
L 169.1944 408.654326 
L 169.485002 409.017087 
L 169.891061 410.165032 
L 170.963905 411.02482 
L 171.36667 412.404045 
L 171.645542 413.776612 
L 172.106418 414.40297 
L 172.432185 414.604654 
L 172.437026 415.059576 
L 172.134538 415.52038 
L 169.77085 416.588374 
L 170.421249 417.352528 
L 171.240083 417.591482 
L 172.698403 417.481546 
L 172.750724 417.173287 
L 173.081884 416.633213 
L 173.459506 416.463405 
L 173.749025 417.793573 
L 174.010505 418.056286 
L 175.6557 418.794884 
L 176.161857 419.236002 
L 176.397641 420.058993 
L 176.469129 421.651884 
L 176.19821 422.570333 
L 175.693309 423.404711 
L 175.441072 424.414893 
L 175.945314 425.871225 
L 176.554621 426.60037 
L 177.359024 427.148178 
L 178.259655 427.489432 
L 179.157457 427.593757 
L 179.861109 427.913384 
L 181.411437 429.373383 
L 182.078942 429.763979 
L 182.995913 429.651206 
L 184.325448 428.64848 
L 185.304468 428.207965 
L 186.34777 426.835087 
L 186.626684 426.183806 
L 186.588446 425.831962 
L 186.389602 425.493102 
L 186.189425 424.849164 
L 186.03209 423.565447 
L 186.225935 423.373123 
L 186.771849 423.682975 
L 187.680575 423.902858 
L 190.567298 422.932731 
L 191.112916 423.007714 
L 191.813769 422.572301 
L 192.78586 422.473896 
L 193.682199 422.726347 
L 194.145972 423.351954 
L 194.040772 424.619009 
L 193.625314 425.428655 
L 193.564854 426.089941 
L 194.485927 426.920412 
L 195.178189 427.06565 
L 196.848332 426.813689 
L 197.519206 426.864082 
L 198.056132 427.29044 
L 198.530565 428.044088 
L 198.798477 428.980542 
L 198.70271 429.971422 
L 200.502552 430.709207 
L 203.056888 433.508352 
L 204.871005 433.375242 
L 205.737036 432.635756 
L 206.460171 432.298992 
L 206.668246 432.036609 
L 206.902688 431.926195 
L 207.91988 432.826776 
L 208.518737 432.82112 
L 208.945932 432.648284 
L 209.268673 432.227883 
L 209.54718 431.463815 
L 209.104707 430.889974 
L 209.028662 430.370829 
L 209.507384 429.741579 
L 208.874589 428.524953 
L 209.388253 427.997529 
L 210.966418 427.897565 
L 211.422935 427.749958 
L 211.914116 427.130541 
L 212.337574 426.980945 
L 212.762707 427.173251 
L 213.434185 428.032984 
L 213.908997 428.231815 
L 214.67324 428.03928 
L 215.571135 427.54588 
L 216.412054 426.890526 
L 217.718112 425.441488 
L 218.415929 425.254921 
L 219.130781 425.467649 
L 220.340291 426.119545 
L 221.600126 426.306501 
L 222.254913 425.867599 
L 222.684944 425.739983 
L 223.817826 426.434719 
L 224.77061 426.321065 
L 227.03579 425.474528 
L 227.832069 425.411804 
L 228.650342 425.758727 
L 229.484668 426.744375 
L 230.103006 427.199496 
L 233.01262 428.178929 
L 234.276332 427.69201 
L 234.919864 427.66642 
L 235.223696 428.330525 
L 235.574872 428.824647 
L 236.338741 428.952828 
L 237.461397 428.479615 
L 237.461397 428.479615 
" style="fill:none;stroke:#0000cd;stroke-width:2;"/>
    <path clip-path="url(#p69275cc18d)" d="M 47.111008 60.007795 
L 47.134509 59.992909 
L 48.454534 58.600461 
L 49.168382 57.903431 
L 51.39028 55.205567 
L 52.597695 54.094016 
L 53.197661 53.473345 
L 54.765647 51.030404 
L 57.314525 47.5149 
L 58.806889 45.878417 
L 59.33288 44.492459 
" style="fill:none;stroke:#0000cd;stroke-width:2;"/>
    <path clip-path="url(#p69275cc18d)" d="M 59.335812 44.489925 
L 60.057852 43.756018 
L 60.66106 42.741267 
L 61.304931 41.854201 
L 62.161023 41.487763 
L 62.157575 41.250559 
L 62.501189 40.740405 
L 62.891223 40.281796 
L 63.034743 40.191704 
L 63.197523 40.033748 
L 63.350903 40.117826 
L 63.46865 40.076912 
L 63.531383 39.549489 
L 63.520692 39.269909 
L 63.490992 39.137221 
L 63.48897 38.939587 
L 63.661993 38.162898 
" style="fill:none;stroke:#0000cd;stroke-width:2;"/>
    <path clip-path="url(#p69275cc18d)" d="M 41.126934 68.672703 
L 40.9084 68.879709 
L 40.794394 69.062068 
L 40.42442 69.449827 
L 40.068803 69.904022 
L 39.386206 71.011145 
L 39.047118 71.405296 
L 38.213784 71.907497 
L 37.585342 72.660704 
L 36.923944 73.16724 
L 36.595448 73.566817 
L 36.200164 73.776325 
" style="fill:none;stroke:#0000cd;stroke-width:2;"/>
    <path clip-path="url(#p69275cc18d)" d="M 47.134509 59.992909 
L 46.463947 60.361732 
L 46.060646 60.777899 
L 45.72421 61.238833 
L 45.426459 61.73289 
L 44.254652 64.34202 
L 43.428615 64.822392 
L 41.126934 68.672703 
" style="fill:none;stroke:#0000cd;stroke-width:2;"/>
    <path clip-path="url(#p69275cc18d)" d="M 134.797273 327.466118 
L 133.61357 330.1803 
L 133.527724 331.395251 
L 134.056716 333.132606 
L 134.687516 334.430864 
L 135.419415 335.568743 
L 137.100417 337.433933 
L 139.208937 338.980201 
L 139.810305 339.674953 
L 141.240146 342.071446 
L 141.900054 342.705248 
L 145.078384 344.943614 
L 145.879656 345.223832 
L 147.685575 345.1887 
L 149.265187 345.250386 
L 151.760074 346.007554 
L 152.444721 345.610377 
L 153.726924 344.011061 
L 154.768368 343.027797 
L 157.378679 339.515736 
L 158.419924 338.720456 
L 159.543439 338.429276 
L 164.332794 339.020002 
L 165.410164 338.78473 
L 168.723848 336.760393 
L 170.004988 336.655495 
L 171.581749 335.357838 
L 174.578005 332.19346 
L 176.286797 331.541226 
L 177.718576 331.86227 
L 178.191574 331.840268 
L 178.71348 331.43871 
L 179.068372 330.205394 
L 180.804166 329.260637 
L 183.562881 325.971227 
L 186.690916 323.396339 
L 187.737107 321.561106 
L 188.180006 319.485753 
L 188.908534 311.643483 
L 189.646781 309.494241 
L 189.766542 308.776488 
L 189.672601 308.27034 
L 189.022727 306.213642 
L 188.838596 305.940564 
L 188.580751 305.77135 
L 188.372467 305.553907 
L 188.336743 305.12039 
L 188.497804 304.420398 
L 188.541945 304.059182 
L 188.498404 303.720518 
L 187.962885 302.553556 
L 187.572052 301.931332 
L 187.45051 301.244032 
L 187.71627 299.866124 
L 188.219949 298.468332 
L 189.385667 296.032741 
L 189.735549 294.537332 
L 190.16473 286.646534 
L 190.857762 284.88421 
" style="fill:none;stroke:#0000cd;stroke-width:2;"/>
    <path clip-path="url(#p69275cc18d)" d="M 74.541226 359.733171 
L 75.60308 360.031496 
L 76.335137 360.442954 
L 76.857045 361.780902 
L 77.550622 362.648969 
L 78.558611 363.413263 
L 79.57259 363.924731 
L 80.247915 364.055009 
L 81.561927 364.845766 
L 82.468085 364.864565 
L 83.349005 364.701035 
L 84.12057 364.053602 
L 84.452365 363.36831 
L 84.874811 361.827115 
L 85.146719 361.145823 
L 85.585822 360.607214 
L 86.102491 360.280513 
L 87.198442 360.027917 
L 90.814395 360.233676 
L 91.99382 359.762369 
L 92.814132 359.068779 
L 94.297356 357.239001 
L 95.700194 354.910003 
L 99.059722 347.393578 
L 99.746287 346.535624 
L 100.030447 346.318807 
L 100.175283 346.239366 
L 100.319767 346.183587 
L 100.853446 346.149174 
L 103.136927 346.567577 
L 104.79401 346.576282 
L 105.366726 346.736182 
L 106.471637 347.24979 
L 107.028612 347.409156 
L 107.809147 347.305383 
L 109.359329 346.628853 
L 110.145549 346.558703 
L 110.203984 346.76189 
L 110.184829 347.634986 
L 110.255289 347.909323 
L 110.67031 348.079551 
L 111.964324 347.901195 
L 112.632949 348.115815 
L 112.914307 348.410609 
L 113.053816 348.838113 
L 113.309958 349.432482 
L 115.174069 352.117455 
L 116.315771 353.245607 
L 117.331403 353.675188 
L 120.962578 352.772318 
L 122.217197 353.191315 
L 122.896709 354.011147 
L 123.346745 355.234431 
L 123.902726 358.062697 
L 123.962573 358.765319 
L 123.960227 360.209274 
L 124.071478 360.912202 
L 126.437463 366.877394 
L 127.517634 368.928972 
L 129.158622 371.219246 
L 129.829367 372.605396 
L 130.237522 373.290798 
L 130.414171 373.875334 
L 130.435281 374.262025 
L 130.389478 375.295448 
L 130.43264 375.824241 
L 130.664852 376.706154 
L 131.236738 378.328271 
L 131.468936 379.349498 
L 131.617469 381.296161 
L 131.712855 381.769859 
L 131.971895 382.630668 
L 132.07062 383.104358 
L 132.105593 384.31947 
L 131.810046 386.656517 
L 131.774131 387.734665 
L 131.962556 388.561063 
L 133.654176 393.315495 
L 134.083771 394.123947 
L 135.003228 395.230591 
L 135.071211 395.328039 
L 132.390224 399.25009 
L 131.088617 400.47663 
L 130.754852 401.025076 
L 131.001754 402.05945 
L 131.020052 402.411903 
L 130.872065 402.837404 
L 130.642713 403.241565 
L 129.539618 404.696882 
L 129.203696 404.790192 
L 128.842691 404.64668 
L 128.15202 404.659453 
L 127.642459 404.954295 
L 127.405639 405.429176 
L 127.262628 406.035973 
L 127.047538 406.705529 
L 126.669674 407.30326 
L 125.79367 408.332269 
L 125.499651 409.02496 
" style="fill:none;stroke:#0000cd;stroke-width:2;"/>
    <path clip-path="url(#p69275cc18d)" d="M 36.200164 73.776325 
L 35.558676 74.802602 
L 33.998922 76.16247 
L 31.031667 79.674563 
L 30.545781 80.63298 
" style="fill:none;stroke:#0000cd;stroke-width:2;"/>
   </g>
   <g id="patch_3">
    <path d="M 20.2 453.275625 
L 20.2 18.395625 
" style="fill:none;stroke:#000000;stroke-linecap:square;stroke-linejoin:miter;stroke-width:0.6;"/>
   </g>
   <g id="patch_4">
    <path d="M 20.2 453.275625 
L 247.807178 453.275625 
" style="fill:none;stroke:#000000;stroke-linecap:square;stroke-linejoin:miter;stroke-width:0.6;"/>
   </g>
  </g>
 </g>
 <defs>
  <clipPath id="p69275cc18d">
   <rect height="434.88" width="227.607178" x="20.2" y="18.395625"/>
  </clipPath>
 </defs>
</svg>
