<?xml version="1.0" encoding="utf-8" standalone="no"?>
<!DOCTYPE svg PUBLIC "-//W3C//DTD SVG 1.1//EN"
  "http://www.w3.org/Graphics/SVG/1.1/DTD/svg11.dtd">
<!-- Created with matplotlib (https://matplotlib.org/) -->
<svg height="467.08pt" version="1.1" viewBox="0 0 402.757464 467.08" width="402.757464pt" xmlns="http://www.w3.org/2000/svg" xmlns:xlink="http://www.w3.org/1999/xlink">
 <metadata>
  <rdf:RDF xmlns:cc="http://creativecommons.org/ns#" xmlns:dc="http://purl.org/dc/elements/1.1/" xmlns:rdf="http://www.w3.org/1999/02/22-rdf-syntax-ns#">
   <cc:Work>
    <dc:type rdf:resource="http://purl.org/dc/dcmitype/StillImage"/>
    <dc:date>2021-07-03T19:07:39.847775</dc:date>
    <dc:format>image/svg+xml</dc:format>
    <dc:creator>
     <cc:Agent>
      <dc:title>Matplotlib v3.3.4, https://matplotlib.org/</dc:title>
     </cc:Agent>
    </dc:creator>
   </cc:Work>
  </rdf:RDF>
 </metadata>
 <defs>
  <style type="text/css">*{stroke-linecap:butt;stroke-linejoin:round;}</style>
 </defs>
 <g id="figure_1">
  <g id="patch_1">
   <path d="M 0 467.08 
L 402.757464 467.08 
L 402.757464 0 
L 0 0 
z
" style="fill:none;"/>
  </g>
  <g id="axes_1">
   <g id="patch_2">
    <path d="M 26.2 442.08 
L 395.557464 442.08 
L 395.557464 7.2 
L 26.2 7.2 
z
" style="fill:#ffffff;"/>
   </g>
   <g id="PatchCollection_1">
    <path clip-path="url(#p17c25e0936)" d="M 54.127519 70.948816 
L 55.109193 71.784543 
L 57.183152 72.674129 
L 62.816025 71.459538 
L 66.316868 70.239377 
L 68.780731 68.956071 
L 70.30993 69.182646 
L 75.840488 71.099247 
L 77.665572 70.124232 
L 81.653104 67.520477 
L 82.250404 66.151741 
L 85.391761 62.004677 
L 85.449832 60.990661 
L 84.155682 58.388763 
L 84.556647 57.816754 
L 88.414211 55.147998 
L 90.300131 52.781961 
L 92.343672 51.195936 
L 93.812035 51.16065 
L 94.215766 51.69923 
L 94.389979 52.806104 
L 94.262776 57.367319 
L 94.826893 58.773198 
L 97.857638 62.047392 
L 100.017321 63.911992 
L 105.025241 65.191583 
L 105.257524 65.80445 
L 103.87765 68.270774 
L 106.911161 71.218106 
L 107.453156 73.37614 
L 108.852387 74.59073 
L 110.835092 73.994578 
L 111.484932 72.857989 
L 110.705124 70.859672 
L 110.132711 68.768496 
L 110.248853 67.559478 
L 110.796378 66.168456 
L 112.173487 64.229568 
L 115.923205 59.787213 
L 117.272661 57.218745 
L 117.518771 53.244397 
L 117.529832 50.051919 
L 118.782503 49.277478 
L 121.470354 49.843915 
L 122.272285 49.780772 
L 122.640067 51.740088 
L 123.784892 54.860137 
L 125.134349 56.47959 
L 126.575059 56.864025 
L 128.270175 56.871454 
L 132.470633 54.964138 
L 135.208259 54.137697 
L 136.759581 54.364272 
L 137.677653 55.662435 
L 139.641001 59.070345 
L 140.760939 59.45478 
L 142.113161 59.064774 
L 142.591554 58.483479 
L 142.157405 57.172315 
L 141.584992 54.325271 
L 140.799653 52.122665 
L 139.770969 51.090078 
L 139.563573 49.747342 
L 140.213414 47.329305 
L 140.943448 45.308702 
L 142.373097 44.758979 
L 144.015672 44.502689 
L 146.189182 46.642151 
L 148.760891 47.318162 
L 150.674464 47.204874 
L 151.009063 45.956855 
L 150.890156 44.588119 
L 149.748095 42.831235 
L 149.977614 40.175479 
L 151.302182 35.227973 
L 152.054338 35.601265 
L 154.897045 35.655123 
L 157.996922 35.933698 
L 159.993453 37.952444 
L 161.951271 38.639598 
L 164.738672 38.858744 
L 166.605235 38.57274 
L 167.506716 37.813156 
L 168.593471 35.448977 
L 170.587237 32.518359 
L 173.717532 31.015907 
L 179.062816 30.735474 
L 181.734076 30.189466 
L 184.50765 30.221038 
L 186.600966 30.674188 
L 188.760649 30.62033 
L 194.249728 28.581155 
L 199.910253 26.967273 
L 200.695593 27.23842 
L 200.811734 27.775142 
L 199.799642 29.019448 
L 198.815203 30.670473 
L 199.476105 32.553646 
L 202.70042 36.33299 
L 204.459137 39.226464 
L 206.107243 41.401212 
L 208.681718 42.547087 
L 212.063654 43.247241 
L 214.928483 43.499816 
L 217.92328 44.320686 
L 228.207352 46.345004 
L 233.383954 46.90587 
L 237.305119 46.995014 
L 243.250468 48.337749 
L 242.67529 50.519926 
L 241.469629 51.065934 
L 239.379078 52.338097 
L 236.978816 54.083839 
L 234.741706 56.048727 
L 234.138875 58.175188 
L 234.744471 59.569924 
L 235.350067 60.050932 
L 236.165824 59.623782 
L 237.354894 59.887501 
L 238.853675 60.648941 
L 241.339661 61.39181 
L 241.408793 62.125393 
L 240.88892 63.063265 
L 238.947695 64.736576 
L 237.202804 66.621606 
L 237.028591 67.774909 
L 237.238752 68.616208 
L 237.847114 69.123216 
L 240.435415 68.894784 
L 240.814258 69.583795 
L 239.558821 74.434728 
L 239.948726 75.263026 
L 242.216254 76.037467 
L 243.86436 77.205628 
L 246.964238 80.281105 
L 248.197552 82.775286 
L 247.348612 83.611014 
L 245.401855 84.025163 
L 243.81182 83.811588 
L 245.609251 82.303565 
L 241.220754 76.837908 
L 239.235284 76.847194 
L 236.599973 79.157516 
L 229.271984 76.821193 
L 227.867222 77.764637 
L 226.830243 79.616237 
L 224.286186 81.913559 
L 220.683028 82.929432 
L 216.667843 85.4589 
L 212.434201 87.249213 
L 209.20159 88.601234 
L 207.348853 88.363516 
L 210.293875 85.434756 
L 209.038439 85.382756 
L 205.1311 87.447931 
L 202.880163 89.195529 
L 202.158425 92.131718 
L 201.503054 96.975222 
L 203.220292 98.260385 
L 206.22615 104.647199 
L 209.934389 107.379099 
L 209.212651 109.986568 
L 208.239273 112.048029 
L 205.999397 113.830914 
L 204.146661 112.508607 
L 203.010131 112.542037 
L 202.144599 116.715102 
L 203.74846 127.861847 
L 206.333996 135.68054 
L 208.89741 139.090308 
L 214.682373 144.396248 
L 220.796404 147.193149 
L 231.791153 156.135431 
L 237.819461 158.965761 
L 239.403966 160.501642 
L 243.059664 167.401035 
L 246.214847 175.37016 
L 249.618906 187.876355 
L 252.04129 194.038451 
L 256.919242 201.002845 
L 267.056754 210.974001 
L 276.270663 218.267115 
L 284.840262 222.774471 
L 291.529472 223.565626 
L 307.360693 222.568325 
L 310.120441 222.999189 
L 313.040576 224.213779 
L 313.734661 227.339399 
L 312.661732 229.451004 
L 309.332337 231.646181 
L 305.936574 234.686371 
L 305.560496 238.82415 
L 308.735036 241.73991 
L 324.004906 249.47503 
L 339.623201 255.936131 
L 344.487326 259.234468 
L 350.122965 264.363977 
L 363.736432 271.415658 
L 366.034379 274.847712 
L 374.305328 282.22997 
L 378.055046 287.927773 
L 378.768488 292.347842 
L 376.976587 296.834769 
L 376.152534 300.001247 
L 374.745007 303.128725 
L 371.222042 301.943849 
L 367.217918 298.732799 
L 361.189611 285.678738 
L 350.17827 284.356432 
L 347.902446 283.394417 
L 343.992342 281.156525 
L 343.757293 279.680073 
L 342.792211 277.834044 
L 341.79118 277.211892 
L 337.57966 276.805171 
L 334.662291 278.913061 
L 331.23058 283.918139 
L 327.339832 291.116537 
L 323.385484 301.672702 
L 323.155966 305.936769 
L 325.304587 310.068976 
L 331.720034 312.373726 
L 336.672648 316.052784 
L 339.938443 319.893415 
L 340.176257 329.17556 
L 341.639089 334.442499 
L 339.484937 337.438117 
L 335.320427 336.659962 
L 329.770512 338.565421 
L 325.841051 341.971474 
L 324.206771 345.21781 
L 324.638155 353.632656 
L 323.827928 356.845563 
L 316.375502 362.912943 
L 312.459867 369.119612 
L 311.486489 371.695509 
L 309.987708 374.61684 
L 300.577464 374.720842 
L 298.348649 371.103071 
L 298.271221 365.733987 
L 299.888909 362.428221 
L 303.348273 360.881197 
L 305.682169 354.015233 
L 304.94937 349.054727 
L 306.309887 346.855836 
L 307.595742 345.301383 
L 310.233818 344.395083 
L 313.950352 343.527784 
L 314.323665 336.609819 
L 311.420122 333.463769 
L 310.4025 329.065987 
L 309.047513 320.920431 
L 304.255285 310.540698 
L 301.686341 301.277124 
L 299.678748 296.708482 
L 296.631411 294.32573 
L 291.131271 294.351731 
L 288.401941 293.672006 
L 278.670925 287.244334 
L 277.993432 286.265604 
L 278.054268 284.560721 
L 279.669191 281.977395 
L 278.579671 278.484054 
L 277.42655 275.185717 
L 275.518507 272.373959 
L 273.427956 270.912365 
L 269.053285 271.811236 
L 267.51579 272.509533 
L 264.753277 272.269957 
L 262.582533 273.519834 
L 261.371341 273.558835 
L 264.78646 268.618758 
L 263.868387 267.454311 
L 260.491982 265.426279 
L 255.91268 265.119846 
L 254.643417 264.874699 
L 253.894027 266.137576 
L 253.000842 265.441137 
L 253.094861 263.232959 
L 247.774465 253.35652 
L 244.196194 249.3376 
L 242.393232 248.620731 
L 239.138499 249.469459 
L 233.677073 247.707003 
L 230.419575 247.313282 
L 228.622143 247.738575 
L 225.939823 249.025595 
L 224.590367 248.17501 
L 224.114739 246.854561 
L 219.159359 242.753926 
L 212.976196 240.436175 
L 200.936172 227.3914 
L 197.244525 222.514467 
L 189.648304 217.145383 
L 184.842249 209.328547 
L 180.910023 206.461073 
L 175.185895 204.165609 
L 173.866857 204.453471 
L 172.144089 205.313341 
L 170.794633 205.435915 
L 169.718939 204.420042 
L 170.811224 203.374454 
L 172.027947 202.899018 
L 171.546788 199.910828 
L 165.034557 192.168279 
L 161.221237 189.674097 
L 160.145544 188.138216 
L 159.351909 186.035898 
L 158.538917 184.652305 
L 156.73319 183.859292 
L 155.192929 183.994866 
L 153.058134 183.465572 
L 153.127266 179.753085 
L 153.553119 176.900469 
L 153.226816 174.478717 
L 151.152857 168.112332 
L 147.555229 162.715391 
L 145.439791 149.821047 
L 143.805511 146.192133 
L 139.82904 143.43609 
L 130.858476 140.347613 
L 118.35665 132.053484 
L 115.713044 131.910482 
L 108.191485 128.686431 
L 103.53199 128.132994 
L 97.47603 131.030182 
L 90.125919 139.003021 
L 84.158447 147.278579 
L 81.987703 148.883175 
L 74.294697 151.704219 
L 67.494877 153.052526 
L 67.420214 150.929778 
L 67.179635 149.334468 
L 68.329991 147.577583 
L 70.226972 145.510551 
L 71.977394 142.916082 
L 72.704662 141.03291 
L 72.361767 139.783033 
L 71.573663 137.925861 
L 70.5035 137.792145 
L 64.032748 139.350312 
L 62.550558 138.947306 
L 57.761095 136.523696 
L 52.60385 133.544793 
L 50.704104 131.42576 
L 49.985131 129.284441 
L 50.52436 127.910134 
L 50.092977 126.574827 
L 49.08365 124.771513 
L 49.996192 122.723053 
L 51.602819 120.171298 
L 52.407515 118.440414 
L 53.754206 117.990979 
L 54.398516 116.936105 
L 53.322823 112.729611 
L 52.761471 112.055458 
L 51.826807 111.533592 
L 50.397158 111.474163 
L 47.897346 110.605006 
L 46.116506 109.150841 
L 45.734898 107.18781 
L 44.791937 105.300924 
L 43.188076 103.568182 
L 42.988976 101.673867 
L 44.816825 100.672851 
L 47.311106 100.633851 
L 49.064293 101.001571 
L 52.999285 97.96138 
L 54.448291 97.693948 
L 55.747972 97.034652 
L 56.837492 92.88573 
L 57.675371 91.641425 
L 57.874472 90.911556 
L 57.100193 90.046114 
L 53.917358 87.124783 
L 52.465586 84.079021 
L 50.17317 80.663682 
L 48.043905 79.155658 
L 47.609757 77.981926 
L 47.559982 76.490617 
L 47.99413 75.179454 
L 51.85446 73.13285 
L 54.127519 70.948816 
M 207.547953 224.130206 
L 207.525831 223.833059 
L 207.304609 223.860916 
L 207.218885 224.041062 
L 207.304609 224.161778 
L 207.547953 224.130206 
M 208.853165 147.945303 
L 209.685514 145.98413 
L 209.375803 144.585679 
L 207.603259 144.864255 
L 206.350588 146.684284 
L 207.185702 148.223879 
L 208.853165 147.945303 
" style="fill:#bc80bd;stroke:#000000;stroke-width:0.2;"/>
    <path clip-path="url(#p17c25e0936)" d="M 149.667902 187.625637 
L 150.608097 189.10766 
L 150.718708 189.96753 
L 150.088225 190.940688 
L 150.353691 193.13958 
L 147.983848 191.315837 
L 144.397281 192.236994 
L 142.196119 192.041991 
L 141.587758 190.405823 
L 142.091038 189.445665 
L 145.508923 189.237662 
L 146.57079 188.769655 
L 148.644749 188.988801 
L 149.667902 187.625637 
" style="fill:#bc80bd;stroke:#000000;stroke-width:0.2;"/>
    <path clip-path="url(#p17c25e0936)" d="M 249.997749 269.4972 
L 248.734016 269.825919 
L 247.998452 269.378341 
L 247.597487 268.795189 
L 248.098002 267.359595 
L 250.672477 268.212037 
L 250.636528 269.019907 
L 249.997749 269.4972 
" style="fill:#bc80bd;stroke:#000000;stroke-width:0.2;"/>
    <path clip-path="url(#p17c25e0936)" d="M 196.564266 419.681115 
L 195.206514 420.100836 
L 193.431205 418.793387 
L 193.312298 416.958501 
L 193.641366 416.408778 
L 195.798284 417.250077 
L 196.473012 418.945675 
L 196.564266 419.681115 
" style="fill:#bc80bd;stroke:#000000;stroke-width:0.2;"/>
    <path clip-path="url(#p17c25e0936)" d="M 296.388066 364.025389 
L 294.471728 368.348885 
L 293.531533 370.011054 
L 286.701295 380.589505 
L 285.918721 383.033543 
L 285.437562 385.689299 
L 284.729651 388.016335 
L 283.772864 390.209655 
L 282.879679 392.99727 
L 283.053892 396.158176 
L 283.374664 397.708915 
L 284.195952 398.724788 
L 285.545408 399.681231 
L 286.582388 401.14654 
L 284.992352 402.483704 
L 286.745539 405.163603 
L 288.236024 406.753342 
L 288.435125 408.341224 
L 288.401941 409.934677 
L 285.304829 412.919152 
L 284.093637 414.562749 
L 283.341481 416.553637 
L 283.015178 418.607669 
L 283.355307 420.462984 
L 283.250227 422.312727 
L 280.130992 422.082438 
L 276.937095 420.955135 
L 273.718311 421.454714 
L 269.141774 419.317109 
L 267.474311 418.930817 
L 265.956173 418.096947 
L 262.145619 411.472415 
L 259.08169 408.673657 
L 255.793773 406.497052 
L 252.433959 406.365193 
L 249.068615 406.612197 
L 246.098706 405.271319 
L 240.053806 400.773248 
L 233.64942 397.175906 
L 230.931151 394.832156 
L 229.689541 393.255417 
L 228.240535 392.209829 
L 224.57101 391.173527 
L 221.280328 388.740632 
L 219.781547 388.562344 
L 216.557232 388.859491 
L 214.90636 388.690488 
L 213.241663 387.834332 
L 210.028409 384.974288 
L 207.979337 381.009226 
L 207.445638 379.25977 
L 208.89741 374.735699 
L 210.620178 370.391774 
L 212.149377 369.17347 
L 213.924686 368.300599 
L 215.00038 367.015436 
L 215.907391 365.442411 
L 219.200838 369.981339 
L 220.674732 371.078928 
L 222.167983 370.833781 
L 224.81712 369.206899 
L 225.038342 367.425871 
L 227.958477 365.165693 
L 231.672246 365.122978 
L 233.386719 365.538984 
L 234.2882 367.581873 
L 235.704023 368.211455 
L 237.341068 368.482602 
L 242.727831 372.377091 
L 244.237673 373.012244 
L 245.766872 373.11996 
L 249.950739 371.485648 
L 253.161228 370.863496 
L 259.891916 371.764224 
L 263.531023 370.785495 
L 266.072315 370.674064 
L 269.775023 369.169755 
L 272.620495 366.670002 
L 274.10545 366.053421 
L 275.69825 365.875132 
L 279.550284 366.031135 
L 283.424439 366.595715 
L 285.047658 366.012563 
L 286.40541 364.378252 
L 287.978854 363.642812 
L 289.709918 364.138677 
L 294.184139 361.341776 
L 296.155783 361.150487 
L 298.033407 362.227647 
L 296.388066 364.025389 
" style="fill:#bc80bd;stroke:#000000;stroke-width:0.2;"/>
    <path clip-path="url(#p17c25e0936)" d="M 128.060014 262.787238 
L 129.475836 265.218276 
L 132.655907 275.180146 
L 132.965618 277.334465 
L 132.329604 279.542642 
L 131.519377 281.110095 
L 128.369725 286.126317 
L 128.837057 290.278953 
L 130.00677 292.843707 
L 130.175452 295.687037 
L 129.589213 299.211949 
L 127.634161 320.890716 
L 126.688435 324.725776 
L 126.091135 328.055685 
L 123.934218 329.062272 
L 121.152347 327.998113 
L 117.643208 326.124226 
L 116.022755 326.237514 
L 114.39124 326.878238 
L 113.044549 326.334087 
L 111.758695 325.273642 
L 110.804674 332.724615 
L 109.217404 335.749948 
L 106.803315 337.683264 
L 104.533021 337.805837 
L 102.193595 337.157684 
L 100.21089 337.163256 
L 98.706579 335.727662 
L 97.514744 333.216766 
L 95.614997 330.167289 
L 93.687598 326.545804 
L 93.477436 323.27161 
L 93.148368 316.052784 
L 93.701424 314.476045 
L 94.50612 312.964307 
L 94.901555 309.734685 
L 94.622262 306.92107 
L 95.186379 305.91634 
L 96.309082 306.92107 
L 97.152492 306.544064 
L 97.099952 305.09547 
L 97.357123 302.450857 
L 95.88876 300.235251 
L 93.394478 299.483096 
L 93.153899 297.165346 
L 93.4166 294.903311 
L 94.732873 293.384144 
L 95.178083 291.363541 
L 95.191909 285.203302 
L 93.433192 282.933838 
L 92.758464 279.49807 
L 91.848687 277.297322 
L 90.214407 275.087287 
L 88.367201 273.287688 
L 87.225141 271.551232 
L 86.96797 267.00859 
L 87.617811 263.218102 
L 88.195754 261.596791 
L 88.790289 261.836366 
L 90.629199 263.719538 
L 92.133511 264.144831 
L 95.111716 264.601695 
L 98.040147 263.998114 
L 101.637774 262.283945 
L 105.099903 260.205769 
L 110.110589 254.103103 
L 113.199405 252.864369 
L 114.781145 251.257915 
L 115.320374 249.088739 
L 116.631116 248.522301 
L 118.176907 250.630191 
L 120.096011 250.849338 
L 123.052094 252.589508 
L 124.326887 254.255391 
L 125.419172 256.259279 
L 126.464448 257.139579 
L 127.587151 257.642872 
L 127.753068 258.114594 
L 126.862648 258.586315 
L 125.84226 260.88178 
L 126.417438 261.542933 
L 128.060014 262.787238 
" style="fill:#bc80bd;stroke:#000000;stroke-width:0.2;"/>
    <path clip-path="url(#p17c25e0936)" d="M 95.407601 331.801601 
L 93.781617 335.562374 
L 92.067144 332.899189 
L 92.000778 330.613011 
L 92.233061 329.961143 
L 94.323612 330.923158 
L 95.407601 331.801601 
" style="fill:#bc80bd;stroke:#000000;stroke-width:0.2;"/>
    <path clip-path="url(#p17c25e0936)" d="M 89.946175 256.784859 
L 89.003215 258.523172 
L 87.670351 258.396884 
L 88.190223 257.109864 
L 89.418007 254.530252 
L 90.914023 253.66481 
L 91.580455 254.435536 
L 90.878074 255.913845 
L 89.946175 256.784859 
" style="fill:#bc80bd;stroke:#000000;stroke-width:0.2;"/>
   </g>
   <g id="matplotlib.axis_1">
    <g id="xtick_1">
     <g id="line2d_1">
      <defs>
       <path d="M 0 0 
L 0 3.5 
" id="m4182fabc02" style="stroke:#323034;stroke-width:0.8;"/>
      </defs>
      <g>
       <use style="fill:#323034;stroke:#323034;stroke-width:0.8;" x="81.846674" xlink:href="#m4182fabc02" y="442.08"/>
      </g>
     </g>
     <g id="text_1">
      <!-- $\mathdefault{8}$ -->
      <g style="fill:#323034;" transform="translate(78.846674 457.275625)scale(0.12 -0.12)">
       <defs>
        <path d="M 44.5 15.5 
Q 44.5 7.796875 39.140625 3.1875 
Q 33.796875 -1.40625 24.796875 -1.40625 
Q 16.40625 -1.40625 11 3.1875 
Q 5.59375 7.796875 5.59375 14.90625 
Q 5.59375 20.203125 8.1875 23.953125 
Q 10.796875 27.703125 18.59375 33.203125 
Q 11.09375 39.40625 8.640625 43.203125 
Q 6.203125 47 6.203125 52 
Q 6.203125 59.09375 11.640625 63.34375 
Q 17.09375 67.59375 25.59375 67.59375 
Q 32.90625 67.59375 37.65625 63.4375 
Q 42.40625 59.296875 42.40625 53.296875 
Q 42.40625 47.796875 39.546875 44.5 
Q 36.703125 41.203125 29 37.09375 
Q 38 31.09375 41.25 26.390625 
Q 44.5 21.703125 44.5 15.5 
z
M 35.5 53.296875 
Q 35.5 58.5 32.59375 61.640625 
Q 29.703125 64.796875 24.59375 64.796875 
Q 19.5 64.796875 16.546875 62.140625 
Q 13.59375 59.5 13.59375 54.890625 
Q 13.59375 50.296875 16.546875 46.546875 
Q 19.5 42.796875 26.09375 38.90625 
Q 31.203125 41.90625 33.34375 45.25 
Q 35.5 48.59375 35.5 53.296875 
z
M 27.09375 27.203125 
L 21.203125 31.203125 
Q 16.796875 27.59375 15 24.140625 
Q 13.203125 20.703125 13.203125 15.796875 
Q 13.203125 9 16.640625 5.203125 
Q 20.09375 1.40625 25.90625 1.40625 
Q 30.796875 1.40625 33.84375 4.453125 
Q 36.90625 7.5 36.90625 12.40625 
Q 36.90625 16.90625 34.59375 20.296875 
Q 32.296875 23.703125 27.09375 27.203125 
z
" id="STIXGeneral-Regular-56"/>
       </defs>
       <use transform="translate(0 0.40625)" xlink:href="#STIXGeneral-Regular-56"/>
      </g>
     </g>
    </g>
    <g id="xtick_2">
     <g id="line2d_2">
      <g>
       <use style="fill:#323034;stroke:#323034;stroke-width:0.8;" x="138.479584" xlink:href="#m4182fabc02" y="442.08"/>
      </g>
     </g>
     <g id="text_2">
      <!-- $\mathdefault{10}$ -->
      <g style="fill:#323034;" transform="translate(132.479584 457.275625)scale(0.12 -0.12)">
       <defs>
        <path d="M 39.40625 0 
L 11.796875 0 
L 11.796875 1.5 
Q 17.296875 1.796875 19.296875 3.546875 
Q 21.296875 5.296875 21.296875 9.5 
L 21.296875 54.40625 
Q 21.296875 59.296875 18.296875 59.296875 
Q 16.90625 59.296875 13.796875 58.09375 
L 11.09375 57.09375 
L 11.09375 58.5 
L 29 67.59375 
L 29.90625 67.296875 
L 29.90625 7.59375 
Q 29.90625 4.296875 31.90625 2.890625 
Q 33.90625 1.5 39.40625 1.5 
z
" id="STIXGeneral-Regular-49"/>
        <path d="M 47.59375 33 
Q 47.59375 26.296875 46.296875 20.34375 
Q 45 14.40625 42.453125 9.40625 
Q 39.90625 4.40625 35.40625 1.5 
Q 30.90625 -1.40625 25 -1.40625 
Q 18.90625 -1.40625 14.296875 1.6875 
Q 9.703125 4.796875 7.203125 10 
Q 4.703125 15.203125 3.546875 21.09375 
Q 2.40625 27 2.40625 33.59375 
Q 2.40625 42.90625 4.703125 50.34375 
Q 7 57.796875 12.34375 62.6875 
Q 17.703125 67.59375 25.40625 67.59375 
Q 35.203125 67.59375 41.390625 58 
Q 47.59375 48.40625 47.59375 33 
z
M 38 32.5 
Q 38 48.296875 34.640625 56.640625 
Q 31.296875 65 24.796875 65 
Q 18.59375 65 15.296875 56.59375 
Q 12 48.203125 12 32.90625 
Q 12 17.5 15.296875 9.34375 
Q 18.59375 1.203125 25 1.203125 
Q 31.296875 1.203125 34.640625 9.34375 
Q 38 17.5 38 32.5 
z
" id="STIXGeneral-Regular-48"/>
       </defs>
       <use transform="translate(0 0.40625)" xlink:href="#STIXGeneral-Regular-49"/>
       <use transform="translate(49.999985 0.40625)" xlink:href="#STIXGeneral-Regular-48"/>
      </g>
     </g>
    </g>
    <g id="xtick_3">
     <g id="line2d_3">
      <g>
       <use style="fill:#323034;stroke:#323034;stroke-width:0.8;" x="195.112495" xlink:href="#m4182fabc02" y="442.08"/>
      </g>
     </g>
     <g id="text_3">
      <!-- $\mathdefault{12}$ -->
      <g style="fill:#323034;" transform="translate(189.112495 457.275625)scale(0.12 -0.12)">
       <defs>
        <path d="M 47.40625 13.703125 
L 42 0 
L 2.90625 0 
L 2.90625 1.203125 
L 20.703125 20.09375 
Q 27.703125 27.40625 30.703125 33.5 
Q 33.703125 39.59375 33.703125 46.09375 
Q 33.703125 52.796875 30 56.5 
Q 26.296875 60.203125 19.796875 60.203125 
Q 14.40625 60.203125 11.25 57.390625 
Q 8.09375 54.59375 5.09375 47.203125 
L 3 47.703125 
Q 4.703125 57 9.84375 62.296875 
Q 15 67.59375 23.796875 67.59375 
Q 32.09375 67.59375 37.1875 62.59375 
Q 42.296875 57.59375 42.296875 50 
Q 42.296875 38.703125 29.5 25.203125 
L 13 7.59375 
L 36.40625 7.59375 
Q 39.703125 7.59375 41.640625 8.890625 
Q 43.59375 10.203125 46 14.296875 
z
" id="STIXGeneral-Regular-50"/>
       </defs>
       <use transform="translate(0 0.40625)" xlink:href="#STIXGeneral-Regular-49"/>
       <use transform="translate(49.999985 0.40625)" xlink:href="#STIXGeneral-Regular-50"/>
      </g>
     </g>
    </g>
    <g id="xtick_4">
     <g id="line2d_4">
      <g>
       <use style="fill:#323034;stroke:#323034;stroke-width:0.8;" x="251.745405" xlink:href="#m4182fabc02" y="442.08"/>
      </g>
     </g>
     <g id="text_4">
      <!-- $\mathdefault{14}$ -->
      <g style="fill:#323034;" transform="translate(245.745405 457.275625)scale(0.12 -0.12)">
       <defs>
        <path d="M 47.296875 16.703125 
L 37 16.703125 
L 37 0 
L 29.203125 0 
L 29.203125 16.703125 
L 1.203125 16.703125 
L 1.203125 23.09375 
L 32.59375 67.59375 
L 37 67.59375 
L 37 23.09375 
L 47.296875 23.09375 
z
M 29.203125 23.09375 
L 29.203125 57.40625 
L 5.203125 23.09375 
z
" id="STIXGeneral-Regular-52"/>
       </defs>
       <use transform="translate(0 0.40625)" xlink:href="#STIXGeneral-Regular-49"/>
       <use transform="translate(49.999985 0.40625)" xlink:href="#STIXGeneral-Regular-52"/>
      </g>
     </g>
    </g>
    <g id="xtick_5">
     <g id="line2d_5">
      <g>
       <use style="fill:#323034;stroke:#323034;stroke-width:0.8;" x="308.378315" xlink:href="#m4182fabc02" y="442.08"/>
      </g>
     </g>
     <g id="text_5">
      <!-- $\mathdefault{16}$ -->
      <g style="fill:#323034;" transform="translate(302.378315 457.275625)scale(0.12 -0.12)">
       <defs>
        <path d="M 44.59375 68.40625 
L 44.796875 66.796875 
Q 33 64.90625 25.09375 57.25 
Q 17.203125 49.59375 15.203125 38.296875 
Q 21 42.796875 27.90625 42.796875 
Q 36.703125 42.796875 41.75 37.1875 
Q 46.796875 31.59375 46.796875 21.90625 
Q 46.796875 12.09375 41.703125 5.90625 
Q 35.796875 -1.40625 25.796875 -1.40625 
Q 13.59375 -1.40625 8.09375 8.703125 
Q 3.40625 17.296875 3.40625 27.90625 
Q 3.40625 44.296875 14.296875 55.5 
Q 20.5 61.90625 27.046875 64.546875 
Q 33.59375 67.203125 44.59375 68.40625 
z
M 37.796875 18.796875 
Q 37.796875 38.203125 24.296875 38.203125 
Q 19.296875 38.203125 16 35.546875 
Q 12.703125 32.90625 12.703125 26.59375 
Q 12.703125 14.90625 16.34375 8.15625 
Q 20 1.40625 26.90625 1.40625 
Q 32.203125 1.40625 35 6.15625 
Q 37.796875 10.90625 37.796875 18.796875 
z
" id="STIXGeneral-Regular-54"/>
       </defs>
       <use transform="translate(0 0.59375)" xlink:href="#STIXGeneral-Regular-49"/>
       <use transform="translate(49.999985 0.59375)" xlink:href="#STIXGeneral-Regular-54"/>
      </g>
     </g>
    </g>
    <g id="xtick_6">
     <g id="line2d_6">
      <g>
       <use style="fill:#323034;stroke:#323034;stroke-width:0.8;" x="365.011226" xlink:href="#m4182fabc02" y="442.08"/>
      </g>
     </g>
     <g id="text_6">
      <!-- $\mathdefault{18}$ -->
      <g style="fill:#323034;" transform="translate(359.011226 457.275625)scale(0.12 -0.12)">
       <use transform="translate(0 0.40625)" xlink:href="#STIXGeneral-Regular-49"/>
       <use transform="translate(49.999985 0.40625)" xlink:href="#STIXGeneral-Regular-56"/>
      </g>
     </g>
    </g>
   </g>
   <g id="matplotlib.axis_2">
    <g id="ytick_1">
     <g id="line2d_7">
      <defs>
       <path d="M 0 0 
L -3.5 0 
" id="m324a7e00f9" style="stroke:#323034;stroke-width:0.8;"/>
      </defs>
      <g>
       <use style="fill:#323034;stroke:#323034;stroke-width:0.8;" x="26.2" xlink:href="#m324a7e00f9" y="372.404949"/>
      </g>
     </g>
     <g id="text_7">
      <!-- $\mathdefault{38}$ -->
      <g style="fill:#323034;" transform="translate(7.2 376.502761)scale(0.12 -0.12)">
       <defs>
        <path d="M 6.09375 51 
L 4.5 51.40625 
Q 6.796875 58.90625 11.6875 63.25 
Q 16.59375 67.59375 24.09375 67.59375 
Q 31.09375 67.59375 35.390625 63.796875 
Q 39.703125 60 39.703125 53.90625 
Q 39.703125 45.703125 30.40625 40.09375 
Q 35.90625 37.703125 38.703125 34.796875 
Q 43.09375 29.90625 43.09375 21.90625 
Q 43.09375 13.90625 38.5 7.90625 
Q 35.09375 3.296875 28.75 0.9375 
Q 22.40625 -1.40625 15.296875 -1.40625 
Q 4.09375 -1.40625 4.09375 4.296875 
Q 4.09375 5.90625 5.296875 6.90625 
Q 6.5 7.90625 8.203125 7.90625 
Q 10.703125 7.90625 14.296875 5.296875 
Q 18.703125 2.203125 22.90625 2.203125 
Q 28.40625 2.203125 32.15625 6.640625 
Q 35.90625 11.09375 35.90625 17.5 
Q 35.90625 29 25.5 32 
Q 22.40625 33 15.296875 33 
L 15.296875 34.40625 
Q 20.90625 36.296875 23.703125 38 
Q 31.796875 42.59375 31.796875 51.40625 
Q 31.796875 56.40625 28.9375 59 
Q 26.09375 61.59375 21 61.59375 
Q 12 61.59375 6.09375 51 
z
" id="STIXGeneral-Regular-51"/>
       </defs>
       <use transform="translate(0 0.40625)" xlink:href="#STIXGeneral-Regular-51"/>
       <use transform="translate(49.999985 0.40625)" xlink:href="#STIXGeneral-Regular-56"/>
      </g>
     </g>
    </g>
    <g id="ytick_2">
     <g id="line2d_8">
      <g>
       <use style="fill:#323034;stroke:#323034;stroke-width:0.8;" x="26.2" xlink:href="#m324a7e00f9" y="296.33519"/>
      </g>
     </g>
     <g id="text_8">
      <!-- $\mathdefault{40}$ -->
      <g style="fill:#323034;" transform="translate(7.2 300.433003)scale(0.12 -0.12)">
       <use transform="translate(0 0.40625)" xlink:href="#STIXGeneral-Regular-52"/>
       <use transform="translate(49.999985 0.40625)" xlink:href="#STIXGeneral-Regular-48"/>
      </g>
     </g>
    </g>
    <g id="ytick_3">
     <g id="line2d_9">
      <g>
       <use style="fill:#323034;stroke:#323034;stroke-width:0.8;" x="26.2" xlink:href="#m324a7e00f9" y="220.265432"/>
      </g>
     </g>
     <g id="text_9">
      <!-- $\mathdefault{42}$ -->
      <g style="fill:#323034;" transform="translate(7.2 224.363244)scale(0.12 -0.12)">
       <use transform="translate(0 0.40625)" xlink:href="#STIXGeneral-Regular-52"/>
       <use transform="translate(49.999985 0.40625)" xlink:href="#STIXGeneral-Regular-50"/>
      </g>
     </g>
    </g>
    <g id="ytick_4">
     <g id="line2d_10">
      <g>
       <use style="fill:#323034;stroke:#323034;stroke-width:0.8;" x="26.2" xlink:href="#m324a7e00f9" y="144.195673"/>
      </g>
     </g>
     <g id="text_10">
      <!-- $\mathdefault{44}$ -->
      <g style="fill:#323034;" transform="translate(7.2 148.293486)scale(0.12 -0.12)">
       <use transform="translate(0 0.40625)" xlink:href="#STIXGeneral-Regular-52"/>
       <use transform="translate(49.999985 0.40625)" xlink:href="#STIXGeneral-Regular-52"/>
      </g>
     </g>
    </g>
    <g id="ytick_5">
     <g id="line2d_11">
      <g>
       <use style="fill:#323034;stroke:#323034;stroke-width:0.8;" x="26.2" xlink:href="#m324a7e00f9" y="68.125915"/>
      </g>
     </g>
     <g id="text_11">
      <!-- $\mathdefault{46}$ -->
      <g style="fill:#323034;" transform="translate(7.2 72.223727)scale(0.12 -0.12)">
       <use transform="translate(0 0.59375)" xlink:href="#STIXGeneral-Regular-52"/>
       <use transform="translate(49.999985 0.59375)" xlink:href="#STIXGeneral-Regular-54"/>
      </g>
     </g>
    </g>
   </g>
   <g id="patch_3">
    <path d="M 26.2 442.08 
L 26.2 7.2 
" style="fill:none;stroke:#000000;stroke-linecap:square;stroke-linejoin:miter;stroke-width:0.6;"/>
   </g>
   <g id="patch_4">
    <path d="M 26.2 442.08 
L 395.557464 442.08 
" style="fill:none;stroke:#000000;stroke-linecap:square;stroke-linejoin:miter;stroke-width:0.6;"/>
   </g>
  </g>
 </g>
 <defs>
  <clipPath id="p17c25e0936">
   <rect height="434.88" width="369.357464" x="26.2" y="7.2"/>
  </clipPath>
 </defs>
</svg>
