<?xml version="1.0" encoding="UTF-8" standalone="no"?>
<!DOCTYPE svg PUBLIC "-//W3C//DTD SVG 1.1//EN"
 "http://www.w3.org/Graphics/SVG/1.1/DTD/svg11.dtd">
<!-- Generated by graphviz version 2.49.1 (20210923.0004)
 -->
<!-- Pages: 1 -->
<svg width="270pt" height="260pt"
 viewBox="0.00 0.00 270.34 260.00" xmlns="http://www.w3.org/2000/svg" xmlns:xlink="http://www.w3.org/1999/xlink">
<g id="graph0" class="graph" transform="scale(1 1) rotate(0) translate(4 256)">
<polygon fill="white" stroke="transparent" points="-4,4 -4,-256 266.34,-256 266.34,4 -4,4"/>
<!-- A -->
<g id="node1" class="node">
<title>A</title>
<ellipse fill="none" stroke="black" cx="154.04" cy="-234" rx="40.09" ry="18"/>
<text text-anchor="middle" x="154.04" y="-230.3" font-family="Times,serif" font-size="14.00">Utilities</text>
</g>
<!-- B -->
<g id="node2" class="node">
<title>B</title>
<ellipse fill="none" stroke="black" cx="63.04" cy="-162" rx="63.09" ry="18"/>
<text text-anchor="middle" x="63.04" y="-158.3" font-family="Times,serif" font-size="14.00">Data Cleaning</text>
</g>
<!-- A&#45;&gt;B -->
<g id="edge1" class="edge">
<title>A&#45;&gt;B</title>
<path fill="none" stroke="black" d="M134.75,-218.15C122.39,-208.65 106.12,-196.14 92.21,-185.43"/>
<polygon fill="black" stroke="black" points="93.96,-182.37 83.9,-179.04 89.69,-187.91 93.96,-182.37"/>
</g>
<!-- C -->
<g id="node3" class="node">
<title>C</title>
<ellipse fill="none" stroke="black" cx="122.04" cy="-90" rx="42.49" ry="18"/>
<text text-anchor="middle" x="122.04" y="-86.3" font-family="Times,serif" font-size="14.00">Analysis</text>
</g>
<!-- A&#45;&gt;C -->
<g id="edge2" class="edge">
<title>A&#45;&gt;C</title>
<path fill="none" stroke="black" d="M150.55,-215.9C146.85,-197.96 140.77,-168.95 135.04,-144 133.11,-135.56 130.9,-126.39 128.86,-118.09"/>
<polygon fill="black" stroke="black" points="132.2,-117.02 126.39,-108.15 125.4,-118.7 132.2,-117.02"/>
</g>
<!-- D -->
<g id="node4" class="node">
<title>D</title>
<ellipse fill="none" stroke="black" cx="157.04" cy="-18" rx="105.08" ry="18"/>
<text text-anchor="middle" x="157.04" y="-14.3" font-family="Times,serif" font-size="14.00">Generate Plots and Tables</text>
</g>
<!-- A&#45;&gt;D -->
<g id="edge3" class="edge">
<title>A&#45;&gt;D</title>
<path fill="none" stroke="black" d="M158.99,-216.04C166.9,-186.64 180.77,-124.35 173.04,-72 171.77,-63.35 169.38,-54.15 166.82,-45.89"/>
<polygon fill="black" stroke="black" points="170.14,-44.78 163.7,-36.37 163.49,-46.96 170.14,-44.78"/>
</g>
<!-- B&#45;&gt;C -->
<g id="edge4" class="edge">
<title>B&#45;&gt;C</title>
<path fill="none" stroke="black" d="M77.03,-144.41C84.37,-135.69 93.52,-124.85 101.64,-115.21"/>
<polygon fill="black" stroke="black" points="104.39,-117.37 108.16,-107.47 99.04,-112.86 104.39,-117.37"/>
</g>
<!-- C&#45;&gt;D -->
<g id="edge5" class="edge">
<title>C&#45;&gt;D</title>
<path fill="none" stroke="black" d="M130.52,-72.05C134.54,-64.01 139.44,-54.2 143.93,-45.23"/>
<polygon fill="black" stroke="black" points="147.07,-46.78 148.41,-36.28 140.8,-43.65 147.07,-46.78"/>
</g>
</g>
</svg>
